BriemScript-Bold.ufo
<glyph name="exclam" format="2">
  <advance width="333.75892857142856"/>
  <unicode hex="0021"/>
  <outline>
    <contour>
      <point x="131.28035714285716" y="243.53571428571428" type="curve" smooth="yes"/>
      <point x="192.24285714285713" y="243.53571428571428"/>
      <point x="233.9375" y="256.24285714285713"/>
      <point x="238.79107142857143" y="280.0392857142857" type="curve" smooth="yes"/>
      <point x="241.21785714285716" y="297.90535714285716"/>
      <point x="296.5875" y="510.8017857142857"/>
      <point x="296.5875" y="574.1392857142857" type="curve" smooth="yes"/>
      <point x="296.5875" y="637.1464285714286"/>
      <point x="200.01964285714286" y="652.0"/>
      <point x="138.52857142857144" y="652.0" type="curve" smooth="yes"/>
      <point x="111.11428571428571" y="652.0"/>
      <point x="97.26071428571429" y="645.1464285714286"/>
      <point x="97.26071428571429" y="628.2482142857143" type="curve" smooth="yes"/>
      <point x="97.26071428571429" y="582.5535714285714"/>
      <point x="98.05714285714285" y="301.00714285714287"/>
      <point x="98.05714285714285" y="255.00714285714287" type="curve" smooth="yes"/>
      <point x="98.05714285714285" y="246.9625"/>
      <point x="117.0" y="243.53571428571428"/>
    </contour>
    <contour>
      <point x="149.01964285714286" y="-0.8089285714285714" type="curve" smooth="yes"/>
      <point x="199.90535714285716" y="-0.8089285714285714"/>
      <point x="249.64464285714286" y="21.853571428571428"/>
      <point x="249.64464285714286" y="83.06428571428572" type="curve" smooth="yes"/>
      <point x="249.64464285714286" y="124.34464285714286"/>
      <point x="217.65714285714284" y="171.08392857142857"/>
      <point x="170.49107142857144" y="171.08392857142857" type="curve" smooth="yes"/>
      <point x="125.79642857142858" y="171.08392857142857"/>
      <point x="68.05714285714285" y="132.0964285714286"/>
      <point x="68.05714285714285" y="78.68214285714285" type="curve" smooth="yes"/>
      <point x="68.05714285714285" y="20.089285714285715"/>
      <point x="106.79642857142858" y="-0.8089285714285714"/>
    </contour>
  </outline>
</glyph>
<glyph name="quotedbl" format="2">
  <advance width="423.3964285714286"/>
  <unicode hex="0022"/>
  <outline>
    <contour>
      <point x="303.24285714285713" y="419.6428571428571" type="curve" smooth="yes"/>
      <point x="330.8482142857143" y="419.6428571428571"/>
      <point x="343.12857142857143" y="428.45178571428573"/>
      <point x="364.4089285714286" y="470.30535714285713" type="curve" smooth="yes"/>
      <point x="392.5875" y="525.9553571428571"/>
      <point x="430.25" y="605.1589285714285"/>
      <point x="430.25" y="623.4392857142857" type="curve" smooth="yes"/>
      <point x="430.25" y="644.3375"/>
      <point x="400.8357142857143" y="651.1910714285714"/>
      <point x="343.625" y="651.1910714285714" type="curve" smooth="yes"/>
      <point x="284.4142857142857" y="651.1910714285714"/>
      <point x="258.6625" y="641.9553571428571"/>
      <point x="258.28035714285716" y="612.8660714285714" type="curve" smooth="yes"/>
      <point x="257.70714285714286" y="585.1464285714286"/>
      <point x="263.3125" y="492.28035714285716"/>
      <point x="265.7392857142857" y="468.38214285714287" type="curve" smooth="yes"/>
      <point x="269.7839285714286" y="429.1142857142857"/>
      <point x="276.2107142857143" y="419.6428571428571"/>
    </contour>
    <contour>
      <point x="94.50357142857143" y="420.45178571428573" type="curve" smooth="yes"/>
      <point x="122.10892857142858" y="420.45178571428573"/>
      <point x="134.3892857142857" y="429.2607142857143"/>
      <point x="155.66964285714286" y="471.1142857142857" type="curve" smooth="yes"/>
      <point x="183.84821428571428" y="526.7642857142857"/>
      <point x="221.5107142857143" y="605.9678571428572"/>
      <point x="221.5107142857143" y="624.2482142857143" type="curve" smooth="yes"/>
      <point x="221.5107142857143" y="645.1464285714286"/>
      <point x="192.0964285714286" y="652.0"/>
      <point x="134.8857142857143" y="652.0" type="curve" smooth="yes"/>
      <point x="75.675" y="652.0"/>
      <point x="49.92321428571428" y="642.7642857142857"/>
      <point x="49.54107142857143" y="613.675" type="curve" smooth="yes"/>
      <point x="48.96785714285714" y="585.9553571428571"/>
      <point x="54.573214285714286" y="493.0892857142857"/>
      <point x="57.0" y="469.19107142857143" type="curve" smooth="yes"/>
      <point x="61.04464285714286" y="429.92321428571427"/>
      <point x="67.47142857142858" y="420.45178571428573"/>
    </contour>
  </outline>
</glyph>
<glyph name="numbersign" format="2">
  <advance width="774.825"/>
  <unicode hex="0023"/>
  <outline>
    <contour>
      <point x="270.3517857142857" y="-13.0" type="curve" smooth="yes"/>
      <point x="302.0017857142857" y="-13.0"/>
      <point x="306.2375" y="-5.955357142857142"/>
      <point x="306.2375" y="11.9875" type="curve" smooth="yes"/>
      <point x="306.2375" y="58.89821428571429"/>
      <point x="308.42857142857144" y="119.57321428571429"/>
      <point x="310.8107142857143" y="182.24821428571428" type="curve"/>
      <point x="455.63214285714287" y="182.24821428571428" type="line"/>
      <point x="450.44107142857143" y="100.04464285714286"/>
      <point x="446.86785714285713" y="47.3125"/>
      <point x="446.86785714285713" y="41.50357142857143" type="curve" smooth="yes"/>
      <point x="446.86785714285713" y="4.089285714285715"/>
      <point x="524.6839285714286" y="-13.0"/>
      <point x="573.5696428571429" y="-13.0" type="curve" smooth="yes"/>
      <point x="605.0285714285715" y="-13.0"/>
      <point x="609.4553571428571" y="-5.955357142857142"/>
      <point x="609.4553571428571" y="11.9875" type="curve" smooth="yes"/>
      <point x="609.4553571428571" y="58.89821428571429"/>
      <point x="611.4553571428571" y="119.57321428571429"/>
      <point x="613.8375" y="182.24821428571428" type="curve"/>
      <point x="693.5571428571428" y="182.24821428571428" type="line" smooth="yes"/>
      <point x="708.7482142857143" y="182.24821428571428"/>
      <point x="718.9839285714286" y="203.675"/>
      <point x="718.9839285714286" y="236.2357142857143" type="curve" smooth="yes"/>
      <point x="718.9839285714286" y="255.9875"/>
      <point x="715.9839285714286" y="258.7964285714286"/>
      <point x="706.9392857142857" y="258.7964285714286" type="curve" smooth="yes"/>
      <point x="617.0732142857144" y="258.7964285714286" type="line"/>
      <point x="619.0732142857144" y="308.0892857142857"/>
      <point x="622.2642857142857" y="355.5732142857143"/>
      <point x="624.6464285714286" y="395.6303571428571" type="curve"/>
      <point x="708.5571428571428" y="395.6303571428571" type="line" smooth="yes"/>
      <point x="723.7482142857143" y="395.6303571428571"/>
      <point x="733.9839285714286" y="416.86607142857144"/>
      <point x="733.9839285714286" y="449.4267857142857" type="curve" smooth="yes"/>
      <point x="733.9839285714286" y="469.17857142857144"/>
      <point x="730.9839285714286" y="471.9875"/>
      <point x="721.9392857142857" y="471.9875" type="curve" smooth="yes"/>
      <point x="628.0732142857144" y="471.9875" type="line"/>
      <point x="631.8375" y="541.1017857142857"/>
      <point x="635.4107142857142" y="591.8785714285714"/>
      <point x="635.4107142857142" y="597.6875" type="curve" smooth="yes"/>
      <point x="635.4107142857142" y="635.9107142857143"/>
      <point x="557.5946428571428" y="652.0"/>
      <point x="509.7089285714286" y="652.0" type="curve" smooth="yes"/>
      <point x="477.25" y="652.0"/>
      <point x="473.8232142857143" y="645.9553571428571"/>
      <point x="473.8232142857143" y="627.2035714285714" type="curve" smooth="yes"/>
      <point x="473.44107142857143" y="587.5410714285714"/>
      <point x="472.05892857142857" y="532.5285714285715"/>
      <point x="468.86785714285713" y="471.9875" type="curve"/>
      <point x="325.0464285714286" y="471.9875" type="line"/>
      <point x="328.6196428571428" y="541.1017857142857"/>
      <point x="332.38392857142856" y="591.8785714285714"/>
      <point x="332.38392857142856" y="597.6875" type="curve" smooth="yes"/>
      <point x="332.38392857142856" y="635.9107142857143"/>
      <point x="254.56785714285715" y="652.0"/>
      <point x="206.49107142857144" y="652.0" type="curve" smooth="yes"/>
      <point x="174.22321428571428" y="652.0"/>
      <point x="170.60535714285714" y="645.9553571428571"/>
      <point x="170.60535714285714" y="627.2035714285714" type="curve" smooth="yes"/>
      <point x="170.4142857142857" y="587.5410714285714"/>
      <point x="168.84107142857144" y="532.5285714285715"/>
      <point x="165.84107142857144" y="471.9875" type="curve"/>
      <point x="89.35714285714286" y="471.9875" type="line" smooth="yes"/>
      <point x="73.975" y="471.9875"/>
      <point x="63.93035714285715" y="450.5607142857143"/>
      <point x="63.93035714285715" y="418.0" type="curve" smooth="yes"/>
      <point x="63.93035714285715" y="398.2482142857143"/>
      <point x="66.93035714285715" y="395.6303571428571"/>
      <point x="75.975" y="395.6303571428571" type="curve" smooth="yes"/>
      <point x="162.60535714285714" y="395.6303571428571" type="line"/>
      <point x="155.84107142857144" y="258.7964285714286" type="line"/>
      <point x="74.35714285714286" y="258.7964285714286" type="line" smooth="yes"/>
      <point x="58.975" y="258.7964285714286"/>
      <point x="48.93035714285715" y="237.36964285714285"/>
      <point x="48.93035714285715" y="204.80892857142857" type="curve" smooth="yes"/>
      <point x="48.93035714285715" y="185.05714285714285"/>
      <point x="51.739285714285714" y="182.24821428571428"/>
      <point x="60.783928571428575" y="182.24821428571428" type="curve" smooth="yes"/>
      <point x="151.79642857142858" y="182.24821428571428" type="line"/>
      <point x="147.22321428571428" y="104.89821428571429"/>
      <point x="143.84107142857144" y="48.121428571428574"/>
      <point x="143.84107142857144" y="41.50357142857143" type="curve" smooth="yes"/>
      <point x="143.84107142857144" y="4.089285714285715"/>
      <point x="221.65714285714284" y="-13.0"/>
    </contour>
    <contour>
      <point x="313.6642857142857" y="258.2232142857143" type="line"/>
      <point x="320.42857142857144" y="396.0125" type="line"/>
      <point x="465.8232142857143" y="396.0125" type="line"/>
      <point x="459.05892857142857" y="258.2232142857143" type="line"/>
    </contour>
  </outline>
</glyph>
<glyph name="dollar" format="2">
  <advance width="546.7392857142858"/>
  <unicode hex="0024"/>
  <outline>
    <contour>
      <point x="311.8732142857143" y="-229.0964285714286" type="curve" smooth="yes"/>
      <point x="341.7142857142857" y="-229.0964285714286"/>
      <point x="344.33214285714286" y="-221.24285714285713"/>
      <point x="344.33214285714286" y="-200.06428571428572" type="curve" smooth="yes"/>
      <point x="344.33214285714286" y="-145.93035714285713"/>
      <point x="343.0964285714286" y="-74.325"/>
      <point x="345.0964285714286" y="-0.7196428571428566" type="curve"/>
      <point x="429.9946428571429" y="25.369642857142857"/>
      <point x="488.38928571428573" y="96.41428571428571"/>
      <point x="488.38928571428573" y="195.22321428571428" type="curve" smooth="yes"/>
      <point x="488.38928571428573" y="246.3125"/>
      <point x="466.34464285714284" y="285.7839285714286"/>
      <point x="434.34464285714284" y="320.01964285714286" type="curve" smooth="yes"/>
      <point x="394.2553571428571" y="363.1535714285714"/>
      <point x="328.0392857142857" y="401.69464285714287"/>
      <point x="294.8482142857143" y="434.07678571428573" type="curve" smooth="yes"/>
      <point x="275.17321428571427" y="452.9428571428571"/>
      <point x="263.4089285714286" y="472.0"/>
      <point x="263.4089285714286" y="493.0125" type="curve" smooth="yes"/>
      <point x="263.4089285714286" y="530.375"/>
      <point x="290.2875" y="541.0053571428572"/>
      <point x="314.9625" y="541.0053571428572" type="curve" smooth="yes"/>
      <point x="363.8857142857143" y="541.0053571428572"/>
      <point x="408.7392857142857" y="522.2285714285714"/>
      <point x="433.54821428571427" y="508.7446428571429" type="curve" smooth="yes"/>
      <point x="449.59285714285716" y="499.98035714285714"/>
      <point x="461.44642857142856" y="491.7892857142857"/>
      <point x="471.49107142857144" y="491.7892857142857" type="curve" smooth="yes"/>
      <point x="485.5357142857143" y="491.7892857142857"/>
      <point x="493.7714285714286" y="517.3053571428571"/>
      <point x="493.7714285714286" y="555.0125" type="curve" smooth="yes"/>
      <point x="493.7714285714286" y="578.8089285714286"/>
      <point x="489.34464285714284" y="595.0892857142857"/>
      <point x="459.8857142857143" y="610.7964285714286" type="curve" smooth="yes"/>
      <point x="436.3571428571429" y="626.0"/>
      <point x="404.91785714285714" y="640.9553571428571"/>
      <point x="366.38928571428573" y="646.7642857142857" type="curve"/>
      <point x="368.9625" y="700.35"/>
      <point x="371.5357142857143" y="737.9803571428572"/>
      <point x="371.5357142857143" y="742.7892857142857" type="curve" smooth="yes"/>
      <point x="371.5357142857143" y="786.675"/>
      <point x="300.38214285714287" y="806.0"/>
      <point x="256.35" y="806.0" type="curve" smooth="yes"/>
      <point x="226.7" y="806.0"/>
      <point x="223.89107142857142" y="798.3375"/>
      <point x="223.89107142857142" y="777.1589285714285" type="curve" smooth="yes"/>
      <point x="223.7" y="741.8785714285714"/>
      <point x="224.12678571428572" y="694.1589285714285"/>
      <point x="223.55357142857144" y="642.9107142857143" type="curve"/>
      <point x="131.73214285714286" y="619.1589285714285"/>
      <point x="79.025" y="545.2035714285714"/>
      <point x="79.025" y="446.55357142857144" type="curve" smooth="yes"/>
      <point x="79.025" y="383.8464285714286"/>
      <point x="110.92321428571428" y="339.56607142857143"/>
      <point x="150.20357142857142" y="303.9035714285714" type="curve" smooth="yes"/>
      <point x="189.1142857142857" y="267.99285714285713"/>
      <point x="241.09464285714284" y="236.40714285714284"/>
      <point x="269.4321428571428" y="206.6875" type="curve" smooth="yes"/>
      <point x="286.9607142857143" y="188.77678571428572"/>
      <point x="298.1071428571429" y="169.48392857142858"/>
      <point x="298.1071428571429" y="147.47142857142856" type="curve" smooth="yes"/>
      <point x="298.1071428571429" y="114.3892857142857"/>
      <point x="273.2607142857143" y="97.75892857142857"/>
      <point x="237.30535714285713" y="97.75892857142857" type="curve" smooth="yes"/>
      <point x="174.5857142857143" y="97.75892857142857"/>
      <point x="138.7642857142857" y="115.58035714285714"/>
      <point x="112.80892857142857" y="130.25535714285715" type="curve" smooth="yes"/>
      <point x="98.04464285714286" y="138.975"/>
      <point x="87.61785714285715" y="147.7392857142857"/>
      <point x="75.52857142857142" y="147.7392857142857" type="curve" smooth="yes"/>
      <point x="60.48392857142857" y="147.7392857142857"/>
      <point x="51.63035714285714" y="117.44642857142857"/>
      <point x="51.63035714285714" y="83.36964285714285" type="curve" smooth="yes"/>
      <point x="51.63035714285714" y="58.95535714285714"/>
      <point x="56.675" y="45.528571428571425"/>
      <point x="87.13392857142857" y="27.20357142857143" type="curve" smooth="yes"/>
      <point x="112.28035714285714" y="10.3375"/>
      <point x="151.95535714285714" y="-5.3375"/>
      <point x="204.06964285714287" y="-9.764285714285714" type="curve"/>
      <point x="200.6875" y="-95.325"/>
      <point x="196.87857142857143" y="-158.45892857142857"/>
      <point x="196.87857142857143" y="-165.69464285714287" type="curve" smooth="yes"/>
      <point x="196.87857142857143" y="-209.58035714285714"/>
      <point x="268.2232142857143" y="-229.0964285714286"/>
    </contour>
  </outline>
</glyph>
<glyph name="percent" format="2">
  <advance width="1100.544642857143"/>
  <unicode hex="0025"/>
  <outline>
    <contour>
      <point x="458.69107142857143" y="-34.808928571428574" type="curve" smooth="yes"/>
      <point x="480.2517857142857" y="-34.808928571428574"/>
      <point x="493.9142857142857" y="-30.617857142857144"/>
      <point x="509.62142857142857" y="6.885714285714286" type="curve" smooth="yes"/>
      <point x="539.5892857142858" y="72.85357142857143"/>
      <point x="742.8357142857143" y="515.6232142857143"/>
      <point x="759.275" y="547.4892857142858" type="curve" smooth="yes"/>
      <point x="770.0839285714286" y="569.5785714285714"/>
      <point x="787.2625" y="603.7"/>
      <point x="787.2625" y="611.3625" type="curve" smooth="yes"/>
      <point x="787.2625" y="640.7767857142857"/>
      <point x="704.1660714285714" y="675.0"/>
      <point x="668.9875" y="675.0" type="curve" smooth="yes"/>
      <point x="647.4267857142858" y="675.0"/>
      <point x="634.5732142857142" y="670.8089285714286"/>
      <point x="618.0571428571428" y="633.3053571428571" type="curve" smooth="yes"/>
      <point x="584.4535714285714" y="576.4732142857142"/>
      <point x="406.6696428571429" y="157.24107142857144"/>
      <point x="367.8303571428571" y="92.12857142857143" type="curve" smooth="yes"/>
      <point x="355.16785714285714" y="65.75892857142857"/>
      <point x="340.4160714285714" y="37.06428571428572"/>
      <point x="340.4160714285714" y="28.82857142857143" type="curve" smooth="yes"/>
      <point x="340.4160714285714" y="0.2232142857142847"/>
      <point x="439.69107142857143" y="-34.808928571428574"/>
    </contour>
    <contour>
      <point x="243.15357142857144" y="275.19107142857143" type="curve" smooth="yes"/>
      <point x="397.6" y="275.19107142857143"/>
      <point x="475.44107142857143" y="358.19107142857143"/>
      <point x="475.44107142857143" y="493.38214285714287" type="curve" smooth="yes"/>
      <point x="475.44107142857143" y="600.1910714285714"/>
      <point x="395.6" y="651.1910714285714"/>
      <point x="285.4785714285714" y="651.1910714285714" type="curve" smooth="yes"/>
      <point x="130.22321428571428" y="651.1910714285714"/>
      <point x="53.0" y="568.1910714285714"/>
      <point x="53.0" y="432.19107142857143" type="curve" smooth="yes"/>
      <point x="53.0" y="326.19107142857143"/>
      <point x="133.03214285714284" y="275.19107142857143"/>
    </contour>
    <contour>
      <point x="257.4785714285714" y="323.9875" type="curve" smooth="yes"/>
      <point x="231.55535714285713" y="323.9875"/>
      <point x="212.30714285714288" y="370.5160714285714"/>
      <point x="212.30714285714288" y="437.61785714285713" type="curve" smooth="yes"/>
      <point x="212.30714285714288" y="534.4839285714286"/>
      <point x="233.9375" y="598.9678571428572"/>
      <point x="272.38928571428573" y="598.9678571428572" type="curve" smooth="yes"/>
      <point x="299.3125" y="598.9678571428572"/>
      <point x="316.13392857142856" y="553.4392857142857"/>
      <point x="316.13392857142856" y="486.95535714285717" type="curve" smooth="yes"/>
      <point x="316.13392857142856" y="390.28035714285716"/>
      <point x="296.12142857142857" y="323.9875"/>
    </contour>
    <contour>
      <point x="842.3910714285714" y="-13.808928571428572" type="curve" smooth="yes"/>
      <point x="997.0285714285715" y="-13.808928571428572"/>
      <point x="1074.6785714285716" y="69.38214285714285"/>
      <point x="1074.6785714285716" y="205.38214285714287" type="curve" smooth="yes"/>
      <point x="1074.6785714285716" y="311.19107142857143"/>
      <point x="995.0285714285715" y="362.38214285714287"/>
      <point x="884.9071428571428" y="362.38214285714287" type="curve" smooth="yes"/>
      <point x="729.4607142857143" y="362.38214285714287"/>
      <point x="652.4285714285714" y="279.38214285714287"/>
      <point x="652.4285714285714" y="143.38214285714287" type="curve" smooth="yes"/>
      <point x="652.4285714285714" y="37.38214285714286"/>
      <point x="732.4607142857143" y="-13.808928571428572"/>
    </contour>
    <contour>
      <point x="856.9071428571428" y="35.17857142857143" type="curve" smooth="yes"/>
      <point x="830.9839285714286" y="35.17857142857143"/>
      <point x="811.7357142857143" y="81.70714285714286"/>
      <point x="811.7357142857143" y="148.61785714285713" type="curve" smooth="yes"/>
      <point x="811.7357142857143" y="245.675"/>
      <point x="833.175" y="309.96785714285716"/>
      <point x="871.8178571428572" y="309.96785714285716" type="curve" smooth="yes"/>
      <point x="898.7410714285714" y="309.96785714285716"/>
      <point x="915.3714285714286" y="264.6303571428571"/>
      <point x="915.3714285714286" y="198.14642857142857" type="curve" smooth="yes"/>
      <point x="915.3714285714286" y="101.28035714285714"/>
      <point x="895.55" y="35.17857142857143"/>
    </contour>
  </outline>
</glyph>
<glyph name="ampersand" format="2">
  <advance width="778.6571428571428"/>
  <unicode hex="0026"/>
  <outline>
    <contour>
      <point x="367.81607142857143" y="-13.0" type="curve" smooth="yes"/>
      <point x="667.3392857142858" y="-13.0"/>
      <point x="740.2821428571428" y="155.70714285714286"/>
      <point x="740.2821428571428" y="224.91071428571428" type="curve" smooth="yes"/>
      <point x="740.2821428571428" y="285.23571428571427"/>
      <point x="718.0017857142857" y="317.71964285714284"/>
      <point x="683.3392857142858" y="328.86607142857144" type="curve"/>
      <point x="622.5303571428572" y="328.86607142857144" type="line"/>
      <point x="668.3446428571428" y="371.6928571428571"/>
      <point x="723.4785714285714" y="421.2089285714286"/>
      <point x="730.5803571428571" y="430.1196428571428" type="curve" smooth="yes"/>
      <point x="737.1982142857142" y="439.1642857142857"/>
      <point x="742.1535714285715" y="450.9732142857143"/>
      <point x="742.1535714285715" y="463.0625" type="curve" smooth="yes"/>
      <point x="742.1535714285715" y="496.9035714285714"/>
      <point x="721.0196428571428" y="539.025"/>
      <point x="698.0767857142857" y="567.6303571428572" type="curve" smooth="yes"/>
      <point x="686.9875" y="581.1464285714286"/>
      <point x="679.5607142857143" y="587.3821428571429"/>
      <point x="673.5160714285714" y="587.3821428571429" type="curve" smooth="yes"/>
      <point x="668.4714285714285" y="587.3821428571429"/>
      <point x="663.4714285714285" y="582.3821428571429"/>
      <point x="656.8535714285714" y="573.9553571428571" type="curve" smooth="yes"/>
      <point x="609.3375" y="514.35"/>
      <point x="415.4089285714286" y="320.7339285714286"/>
      <point x="404.17321428571427" y="309.3071428571429" type="curve" smooth="yes"/>
      <point x="394.7910714285714" y="299.7339285714286"/>
      <point x="392.7910714285714" y="290.2625"/>
      <point x="392.7910714285714" y="276.3642857142857" type="curve" smooth="yes"/>
      <point x="392.7910714285714" y="242.33214285714286"/>
      <point x="415.11607142857144" y="198.82857142857142"/>
      <point x="439.25" y="170.03214285714284" type="curve" smooth="yes"/>
      <point x="450.3392857142857" y="156.70714285714286"/>
      <point x="457.1928571428572" y="150.6625"/>
      <point x="463.0464285714286" y="150.6625" type="curve" smooth="yes"/>
      <point x="468.28214285714284" y="150.6625"/>
      <point x="473.7089285714286" y="155.47142857142856"/>
      <point x="479.5178571428571" y="163.08928571428572" type="curve" smooth="yes"/>
      <point x="511.6767857142857" y="203.82142857142856"/>
      <point x="550.7785714285715" y="247.6875"/>
      <point x="576.3196428571429" y="276.8017857142857" type="curve"/>
      <point x="591.5232142857143" y="276.41964285714283"/>
      <point x="609.3892857142857" y="246.5857142857143"/>
      <point x="609.3892857142857" y="214.80892857142857" type="curve" smooth="yes"/>
      <point x="609.3892857142857" y="139.56071428571428"/>
      <point x="522.5928571428572" y="61.401785714285715"/>
      <point x="413.4089285714286" y="61.401785714285715" type="curve" smooth="yes"/>
      <point x="317.6071428571429" y="61.401785714285715"/>
      <point x="237.51785714285714" y="112.14642857142857"/>
      <point x="237.51785714285714" y="215.94285714285715" type="curve" smooth="yes"/>
      <point x="237.51785714285714" y="278.5285714285714"/>
      <point x="270.7214285714286" y="337.4392857142857"/>
      <point x="345.75892857142856" y="352.0" type="curve" smooth="yes"/>
      <point x="355.9946428571429" y="354.4267857142857"/>
      <point x="359.5678571428572" y="364.04464285714283"/>
      <point x="359.5678571428572" y="373.04464285714283" type="curve" smooth="yes"/>
      <point x="359.5678571428572" y="387.19107142857143"/>
      <point x="357.6125" y="390.76428571428573"/>
      <point x="350.0392857142857" y="396.4267857142857" type="curve" smooth="yes"/>
      <point x="332.12857142857143" y="410.17857142857144"/>
      <point x="305.28214285714284" y="437.6625"/>
      <point x="305.28214285714284" y="482.6428571428571" type="curve" smooth="yes"/>
      <point x="305.28214285714284" y="531.7892857142857"/>
      <point x="326.8232142857143" y="561.9928571428571"/>
      <point x="368.31964285714287" y="561.9928571428571" type="curve" smooth="yes"/>
      <point x="401.00714285714287" y="561.9928571428571"/>
      <point x="428.1089285714286" y="550.9357142857143"/>
      <point x="448.3571428571429" y="539.7767857142857" type="curve" smooth="yes"/>
      <point x="456.7839285714286" y="536.3946428571428"/>
      <point x="463.4017857142857" y="533.8214285714286"/>
      <point x="467.2107142857143" y="533.8214285714286" type="curve" smooth="yes"/>
      <point x="476.01964285714286" y="533.8214285714286"/>
      <point x="488.3" y="553.9107142857143"/>
      <point x="488.3" y="589.2803571428572" type="curve" smooth="yes"/>
      <point x="488.3" y="604.7517857142857"/>
      <point x="484.2553571428571" y="613.7517857142857"/>
      <point x="476.0642857142857" y="617.7071428571429" type="curve" smooth="yes"/>
      <point x="436.50357142857143" y="636.6625"/>
      <point x="373.60535714285714" y="652.0"/>
      <point x="310.8410714285714" y="652.0" type="curve" smooth="yes"/>
      <point x="216.9875" y="652.0"/>
      <point x="127.36964285714285" y="617.6625"/>
      <point x="127.36964285714285" y="517.3821428571429" type="curve" smooth="yes"/>
      <point x="127.36964285714285" y="440.0"/>
      <point x="187.93035714285713" y="400.23571428571427"/>
      <point x="245.16607142857143" y="377.0" type="curve"/>
      <point x="119.6625" y="377.0"/>
      <point x="61.841071428571425" y="300.4839285714286"/>
      <point x="61.841071428571425" y="204.20357142857142" type="curve" smooth="yes"/>
      <point x="61.841071428571425" y="66.17142857142858"/>
      <point x="197.23035714285714" y="-13.0"/>
    </contour>
  </outline>
</glyph>
<glyph name="quotesingle" format="2">
  <advance width="214.65714285714284"/>
  <unicode hex="0027"/>
  <outline>
    <contour>
      <point x="94.50357142857143" y="420.6428571428571" type="curve" smooth="yes"/>
      <point x="122.10892857142858" y="420.6428571428571"/>
      <point x="134.3892857142857" y="429.2607142857143"/>
      <point x="155.66964285714286" y="471.1142857142857" type="curve" smooth="yes"/>
      <point x="183.84821428571428" y="526.7642857142857"/>
      <point x="221.5107142857143" y="605.9678571428572"/>
      <point x="221.5107142857143" y="623.4392857142857" type="curve" smooth="yes"/>
      <point x="221.5107142857143" y="645.1464285714286"/>
      <point x="192.0964285714286" y="652.0"/>
      <point x="134.8857142857143" y="652.0" type="curve" smooth="yes"/>
      <point x="75.675" y="652.0"/>
      <point x="49.92321428571428" y="642.9553571428571"/>
      <point x="49.54107142857143" y="613.8660714285714" type="curve" smooth="yes"/>
      <point x="48.776785714285715" y="586.1464285714286"/>
      <point x="54.573214285714286" y="493.28035714285716"/>
      <point x="57.0" y="469.38214285714287" type="curve" smooth="yes"/>
      <point x="61.04464285714286" y="430.1142857142857"/>
      <point x="67.47142857142858" y="420.6428571428571"/>
    </contour>
  </outline>
</glyph>
<glyph name="parenleft" format="2">
  <advance width="374.90535714285716"/>
  <unicode hex="0028"/>
  <outline>
    <contour>
      <point x="305.4214285714286" y="-244.0" type="curve" smooth="yes"/>
      <point x="330.0267857142857" y="-244.0"/>
      <point x="334.8357142857143" y="-238.14642857142857"/>
      <point x="334.8357142857143" y="-225.29285714285714" type="curve" smooth="yes"/>
      <point x="334.8357142857143" y="-212.0125"/>
      <point x="244.6767857142857" y="-66.0"/>
      <point x="244.6767857142857" y="237.0" type="curve" smooth="yes"/>
      <point x="244.6767857142857" y="430.0"/>
      <point x="301.54285714285714" y="592.9232142857143"/>
      <point x="349.0964285714286" y="680.9928571428571" type="curve" smooth="yes"/>
      <point x="365.8482142857143" y="715.7321428571429"/>
      <point x="367.65714285714284" y="724.8214285714286"/>
      <point x="367.65714285714284" y="733.9107142857143" type="curve" smooth="yes"/>
      <point x="367.65714285714284" y="748.8089285714286"/>
      <point x="358.5107142857143" y="756.0"/>
      <point x="333.3767857142857" y="756.0" type="curve" smooth="yes"/>
      <point x="299.44642857142856" y="756.0"/>
      <point x="260.04464285714283" y="747.3375"/>
      <point x="237.675" y="723.1589285714285" type="curve" smooth="yes"/>
      <point x="157.22321428571428" y="636.1339285714286"/>
      <point x="75.6625" y="464.5607142857143"/>
      <point x="75.6625" y="243.6625" type="curve" smooth="yes"/>
      <point x="75.6625" y="90.60535714285714"/>
      <point x="111.56071428571428" y="-60.94285714285714"/>
      <point x="208.60535714285714" y="-210.0125" type="curve" smooth="yes"/>
      <point x="227.35714285714286" y="-237.80892857142857"/>
      <point x="287.275" y="-244.0"/>
    </contour>
  </outline>
</glyph>
<glyph name="parenright" format="2">
  <advance width="382.9946428571429"/>
  <unicode hex="0029"/>
  <outline>
    <contour>
      <point x="50.61785714285714" y="-244.0" type="curve" smooth="yes"/>
      <point x="84.5482142857143" y="-244.0"/>
      <point x="123.95" y="-235.71964285714284"/>
      <point x="146.31964285714287" y="-211.54107142857143" type="curve" smooth="yes"/>
      <point x="226.77142857142857" y="-124.51607142857142"/>
      <point x="308.33214285714286" y="47.43928571428572"/>
      <point x="308.33214285714286" y="268.95535714285717" type="curve" smooth="yes"/>
      <point x="308.33214285714286" y="421.39464285714286"/>
      <point x="272.43392857142857" y="572.7517857142857"/>
      <point x="175.3892857142857" y="721.6303571428572" type="curve" smooth="yes"/>
      <point x="156.6375" y="749.4267857142858"/>
      <point x="96.52857142857142" y="756.0"/>
      <point x="78.57321428571429" y="756.0" type="curve" smooth="yes"/>
      <point x="53.776785714285715" y="756.0"/>
      <point x="49.158928571428575" y="749.7642857142857"/>
      <point x="49.158928571428575" y="737.1017857142857" type="curve" smooth="yes"/>
      <point x="49.158928571428575" y="724.0125"/>
      <point x="139.31785714285715" y="577.6178571428571"/>
      <point x="139.31785714285715" y="274.80892857142857" type="curve" smooth="yes"/>
      <point x="139.31785714285715" y="81.61785714285715"/>
      <point x="82.26071428571429" y="-81.11428571428571"/>
      <point x="34.707142857142856" y="-168.99285714285713" type="curve" smooth="yes"/>
      <point x="17.955357142857142" y="-203.73214285714286"/>
      <point x="16.146428571428572" y="-213.20357142857142"/>
      <point x="16.146428571428572" y="-222.29285714285714" type="curve" smooth="yes"/>
      <point x="16.146428571428572" y="-237.19107142857143"/>
      <point x="25.292857142857144" y="-244.0"/>
    </contour>
  </outline>
</glyph>
<glyph name="asterisk" format="2">
  <advance width="481.0"/>
  <unicode hex="002A"/>
  <outline>
    <contour>
      <point x="282.325" y="287.55357142857144" type="curve" smooth="yes"/>
      <point x="299.2232142857143" y="287.55357142857144"/>
      <point x="308.07678571428573" y="296.025"/>
      <point x="308.07678571428573" y="313.1589285714286" type="curve" smooth="yes"/>
      <point x="308.07678571428573" y="352.8910714285714"/>
      <point x="292.60535714285714" y="410.025"/>
      <point x="286.9428571428571" y="481.2160714285714" type="curve"/>
      <point x="336.4267857142857" y="430.41964285714283"/>
      <point x="369.325" y="382.8589285714286"/>
      <point x="400.2035714285714" y="355.99285714285713" type="curve" smooth="yes"/>
      <point x="406.2482142857143" y="350.13928571428573"/>
      <point x="412.1017857142857" y="347.5214285714286"/>
      <point x="418.14642857142854" y="347.5214285714286" type="curve" smooth="yes"/>
      <point x="443.325" y="347.5214285714286"/>
      <point x="473.26785714285717" y="406.40714285714284"/>
      <point x="473.26785714285717" y="429.87857142857143" type="curve" smooth="yes"/>
      <point x="473.26785714285717" y="444.35"/>
      <point x="468.65" y="455.2035714285714"/>
      <point x="460.65" y="461.6303571428571" type="curve" smooth="yes"/>
      <point x="438.26785714285717" y="480.1017857142857"/>
      <point x="374.80892857142857" y="491.38214285714287"/>
      <point x="315.4589285714286" y="517.5410714285714" type="curve"/>
      <point x="375.70714285714286" y="532.2285714285714"/>
      <point x="438.7392857142857" y="530.4196428571429"/>
      <point x="467.07678571428573" y="547.1392857142857" type="curve" smooth="yes"/>
      <point x="477.12142857142857" y="552.7571428571429"/>
      <point x="485.59285714285716" y="565.4196428571429"/>
      <point x="485.59285714285716" y="584.5535714285714" type="curve" smooth="yes"/>
      <point x="485.59285714285716" y="609.5982142857143"/>
      <point x="464.54821428571427" y="667.1017857142857"/>
      <point x="442.9875" y="667.1017857142857" type="curve" smooth="yes"/>
      <point x="438.5607142857143" y="667.1017857142857"/>
      <point x="433.325" y="666.1017857142857"/>
      <point x="427.8982142857143" y="662.4839285714286" type="curve" smooth="yes"/>
      <point x="394.12142857142857" y="641.8535714285714"/>
      <point x="351.9875" y="598.3821428571429"/>
      <point x="295.17857142857144" y="557.5285714285715" type="curve"/>
      <point x="314.50357142857143" y="615.3053571428571"/>
      <point x="349.2107142857143" y="672.0571428571428"/>
      <point x="349.2107142857143" y="705.35" type="curve" smooth="yes"/>
      <point x="349.2107142857143" y="727.2035714285714"/>
      <point x="324.91785714285714" y="756.0"/>
      <point x="255.2357142857143" y="756.0" type="curve" smooth="yes"/>
      <point x="238.14642857142857" y="756.0"/>
      <point x="229.48392857142858" y="747.5285714285715"/>
      <point x="229.48392857142858" y="729.8214285714286" type="curve" smooth="yes"/>
      <point x="229.86607142857142" y="698.0892857142857"/>
      <point x="238.71964285714284" y="655.2357142857143"/>
      <point x="245.19107142857143" y="603.6178571428571" type="curve" smooth="yes"/>
      <point x="246.80892857142857" y="590.8089285714286"/>
      <point x="248.42678571428573" y="578.0"/>
      <point x="249.04464285714286" y="564.0" type="curve"/>
      <point x="200.9875" y="613.7071428571429"/>
      <point x="169.75178571428572" y="661.5035714285714"/>
      <point x="137.82857142857142" y="687.5607142857143" type="curve" smooth="yes"/>
      <point x="131.59285714285716" y="693.6053571428572"/>
      <point x="125.5482142857143" y="696.2232142857143"/>
      <point x="119.50357142857143" y="696.2232142857143" type="curve" smooth="yes"/>
      <point x="101.79642857142858" y="696.2232142857143"/>
      <point x="64.95535714285714" y="642.1910714285714"/>
      <point x="64.95535714285714" y="612.4392857142857" type="curve" smooth="yes"/>
      <point x="64.95535714285714" y="598.7767857142857"/>
      <point x="70.38214285714285" y="588.5410714285714"/>
      <point x="77.19107142857143" y="582.1142857142858" type="curve" smooth="yes"/>
      <point x="101.675" y="559.7321428571429"/>
      <point x="165.08928571428572" y="549.2607142857142"/>
      <point x="222.71964285714284" y="526.2482142857143" type="curve"/>
      <point x="161.75178571428572" y="510.60535714285714"/>
      <point x="96.52857142857142" y="512.2232142857143"/>
      <point x="71.10178571428571" y="497.2232142857143" type="curve" smooth="yes"/>
      <point x="61.05714285714286" y="490.7964285714286"/>
      <point x="51.58571428571429" y="478.13392857142856"/>
      <point x="51.58571428571429" y="457.19107142857143" type="curve" smooth="yes"/>
      <point x="51.58571428571429" y="436.19107142857143"/>
      <point x="69.58571428571429" y="377.45178571428573"/>
      <point x="94.0" y="377.45178571428573" type="curve" smooth="yes"/>
      <point x="98.23571428571428" y="377.45178571428573"/>
      <point x="103.47142857142858" y="378.45178571428573"/>
      <point x="109.51607142857142" y="381.87857142857143" type="curve" smooth="yes"/>
      <point x="144.63035714285715" y="403.08214285714286"/>
      <point x="185.57321428571427" y="445.1714285714286"/>
      <point x="242.0" y="485.06964285714287" type="curve"/>
      <point x="222.86607142857142" y="423.28035714285716"/>
      <point x="187.96785714285716" y="367.675"/>
      <point x="187.96785714285716" y="338.0125" type="curve" smooth="yes"/>
      <point x="187.96785714285716" y="315.7767857142857"/>
      <point x="212.4517857142857" y="287.55357142857144"/>
    </contour>
  </outline>
</glyph>
<glyph name="plus" format="2">
  <advance width="574.2678571428571"/>
  <unicode hex="002B"/>
  <outline>
    <contour>
      <point x="323.24285714285713" y="81.95535714285714" type="curve" smooth="yes"/>
      <point x="348.1857142857143" y="81.95535714285714"/>
      <point x="351.95" y="86.57321428571429"/>
      <point x="351.95" y="103.04464285714286" type="curve" smooth="yes"/>
      <point x="351.95" y="142.16607142857143"/>
      <point x="354.4785714285714" y="195.2160714285714"/>
      <point x="357.86071428571427" y="264.87857142857143" type="curve"/>
      <point x="508.4589285714286" y="264.87857142857143" type="line" smooth="yes"/>
      <point x="525.8410714285715" y="264.87857142857143"/>
      <point x="538.2678571428571" y="291.35"/>
      <point x="538.2678571428571" y="331.38214285714287" type="curve" smooth="yes"/>
      <point x="538.2678571428571" y="355.5607142857143"/>
      <point x="534.65" y="359.7517857142857"/>
      <point x="524.4142857142857" y="359.7517857142857" type="curve" smooth="yes"/>
      <point x="357.625" y="359.7517857142857" type="line"/>
      <point x="361.00714285714287" y="436.975"/>
      <point x="364.7267857142857" y="486.0571428571429"/>
      <point x="364.7267857142857" y="492.82142857142856" type="curve" smooth="yes"/>
      <point x="364.7267857142857" y="526.0571428571428"/>
      <point x="305.7964285714286" y="539.9553571428571"/>
      <point x="270.5732142857143" y="539.9553571428571" type="curve" smooth="yes"/>
      <point x="245.63035714285715" y="539.9553571428571"/>
      <point x="241.05714285714285" y="533.7196428571428"/>
      <point x="241.05714285714285" y="518.0571428571428" type="curve" smooth="yes"/>
      <point x="241.05714285714285" y="478.9357142857143"/>
      <point x="238.71964285714284" y="426.3696428571429"/>
      <point x="236.14642857142857" y="359.7517857142857" type="curve"/>
      <point x="89.07678571428572" y="359.7517857142857" type="line" smooth="yes"/>
      <point x="71.88571428571429" y="359.7517857142857"/>
      <point x="59.26785714285714" y="333.85357142857146"/>
      <point x="59.26785714285714" y="293.2482142857143" type="curve" smooth="yes"/>
      <point x="59.26785714285714" y="269.06964285714287"/>
      <point x="62.26785714285714" y="264.87857142857143"/>
      <point x="73.12142857142857" y="264.87857142857143" type="curve" smooth="yes"/>
      <point x="236.38214285714287" y="264.87857142857143" type="line"/>
      <point x="233.0" y="185.41964285714286"/>
      <point x="228.28035714285716" y="136.04464285714286"/>
      <point x="228.28035714285716" y="129.08928571428572" type="curve" smooth="yes"/>
      <point x="228.28035714285716" y="95.04464285714286"/>
      <point x="288.01964285714286" y="81.95535714285714"/>
    </contour>
  </outline>
</glyph>
<glyph name="comma" format="2">
  <advance width="275.0"/>
  <unicode hex="002C"/>
  <outline>
    <contour>
      <point x="66.88571428571429" y="-78.0" type="curve" smooth="yes"/>
      <point x="94.87321428571428" y="-78.0"/>
      <point x="105.68214285714285" y="-74.80892857142857"/>
      <point x="127.66964285714286" y="-59.292857142857144" type="curve" smooth="yes"/>
      <point x="165.2875" y="-30.617857142857144"/>
      <point x="241.6125" y="49.3375"/>
      <point x="241.6125" y="80.3375" type="curve" smooth="yes"/>
      <point x="241.6125" y="95.61785714285715"/>
      <point x="234.37678571428572" y="110.47142857142858"/>
      <point x="215.24285714285713" y="131.4142857142857" type="curve" smooth="yes"/>
      <point x="198.10892857142858" y="149.35714285714286"/>
      <point x="158.75178571428572" y="179.24285714285713"/>
      <point x="140.04464285714286" y="179.24285714285713" type="curve" smooth="yes"/>
      <point x="129.57321428571427" y="179.24285714285713"/>
      <point x="125.3375" y="175.81607142857143"/>
      <point x="118.48392857142858" y="156.87321428571428" type="curve" smooth="yes"/>
      <point x="103.80892857142857" y="118.52321428571429"/>
      <point x="47.14642857142857" y="6.682142857142857"/>
      <point x="24.82142857142857" y="-36.394642857142856" type="curve" smooth="yes"/>
      <point x="18.439285714285713" y="-48.394642857142856"/>
      <point x="14.630357142857143" y="-54.0125"/>
      <point x="14.630357142857143" y="-56.82142857142857" type="curve" smooth="yes"/>
      <point x="14.630357142857143" y="-59.82142857142857"/>
      <point x="43.089285714285715" y="-78.0"/>
    </contour>
  </outline>
</glyph>
<glyph name="hyphen" format="2">
  <advance width="275.0"/>
  <unicode hex="002D"/>
  <outline>
    <contour>
      <point x="24.707142857142856" y="245.49642857142857" type="curve" smooth="yes"/>
      <point x="234.57321428571427" y="245.49642857142857" type="line" smooth="yes"/>
      <point x="249.7642857142857" y="245.49642857142857"/>
      <point x="259.80892857142857" y="275.5857142857143"/>
      <point x="259.80892857142857" y="323.0892857142857" type="curve" smooth="yes"/>
      <point x="259.80892857142857" y="352.7392857142857"/>
      <point x="257.0" y="356.3571428571429"/>
      <point x="247.95535714285714" y="356.3571428571429" type="curve" smooth="yes"/>
      <point x="38.089285714285715" y="356.3571428571429" type="line" smooth="yes"/>
      <point x="22.898214285714285" y="356.3571428571429"/>
      <point x="12.853571428571428" y="325.26785714285717"/>
      <point x="12.853571428571428" y="278.76428571428573" type="curve" smooth="yes"/>
      <point x="12.853571428571428" y="249.1142857142857"/>
      <point x="15.6625" y="245.49642857142857"/>
    </contour>
  </outline>
</glyph>
<glyph name="period" format="2">
  <advance width="275.0"/>
  <unicode hex="002E"/>
  <outline>
    <contour>
      <point x="131.6625" y="0.0" type="curve" smooth="yes"/>
      <point x="182.7392857142857" y="0.0"/>
      <point x="232.0964285714286" y="23.853571428571428"/>
      <point x="232.0964285714286" y="89.34464285714286" type="curve" smooth="yes"/>
      <point x="232.0964285714286" y="131.43392857142857"/>
      <point x="200.3" y="180.79107142857143"/>
      <point x="153.13392857142858" y="180.79107142857143" type="curve" smooth="yes"/>
      <point x="108.82142857142857" y="180.79107142857143"/>
      <point x="50.7" y="139.99464285714288"/>
      <point x="50.7" y="83.53571428571428" type="curve" smooth="yes"/>
      <point x="50.7" y="21.51607142857143"/>
      <point x="89.63035714285715" y="0.0"/>
    </contour>
  </outline>
</glyph>
<glyph name="slash" format="2">
  <advance width="496.55357142857144"/>
  <unicode hex="002F"/>
  <outline>
    <contour>
      <point x="148.4089285714286" y="-34.808928571428574" type="curve" smooth="yes"/>
      <point x="169.96964285714284" y="-34.808928571428574"/>
      <point x="183.63214285714287" y="-30.617857142857144"/>
      <point x="199.33928571428572" y="6.885714285714286" type="curve" smooth="yes"/>
      <point x="229.30714285714288" y="72.85357142857143"/>
      <point x="432.55357142857144" y="515.6232142857143"/>
      <point x="448.99285714285713" y="547.4892857142858" type="curve" smooth="yes"/>
      <point x="459.8017857142857" y="569.5785714285714"/>
      <point x="476.98035714285714" y="603.7"/>
      <point x="476.98035714285714" y="612.1714285714286" type="curve" smooth="yes"/>
      <point x="476.98035714285714" y="640.7767857142857"/>
      <point x="385.7946428571429" y="675.0"/>
      <point x="350.61607142857144" y="675.0" type="curve" smooth="yes"/>
      <point x="329.05535714285713" y="675.0"/>
      <point x="316.20178571428573" y="670.8089285714286"/>
      <point x="299.6857142857143" y="633.3053571428571" type="curve" smooth="yes"/>
      <point x="266.08214285714286" y="576.4732142857142"/>
      <point x="88.29821428571428" y="157.24107142857144"/>
      <point x="49.45892857142857" y="92.12857142857143" type="curve" smooth="yes"/>
      <point x="36.79642857142857" y="65.75892857142857"/>
      <point x="22.044642857142858" y="37.06428571428572"/>
      <point x="22.044642857142858" y="28.82857142857143" type="curve" smooth="yes"/>
      <point x="22.044642857142858" y="0.2232142857142847"/>
      <point x="121.31964285714285" y="-34.808928571428574"/>
    </contour>
  </outline>
</glyph>
<glyph name="zero" format="2">
  <advance width="589.8089285714286"/>
  <unicode hex="0030"/>
  <outline>
    <contour>
      <point x="282.8982142857143" y="-13.0" type="curve" smooth="yes"/>
      <point x="466.65" y="-13.0"/>
      <point x="557.7392857142858" y="134.0"/>
      <point x="557.7392857142858" y="374.0" type="curve" smooth="yes"/>
      <point x="557.7392857142858" y="562.0"/>
      <point x="464.65" y="652.0"/>
      <point x="334.9428571428571" y="652.0" type="curve" smooth="yes"/>
      <point x="149.38214285714287" y="652.0"/>
      <point x="57.48392857142857" y="506.0"/>
      <point x="57.48392857142857" y="266.0" type="curve" smooth="yes"/>
      <point x="57.48392857142857" y="78.0"/>
      <point x="152.19107142857143" y="-13.0"/>
    </contour>
    <contour>
      <point x="298.8410714285714" y="55.59285714285714" type="curve" smooth="yes"/>
      <point x="258.80357142857144" y="55.59285714285714"/>
      <point x="232.3517857142857" y="145.45892857142857"/>
      <point x="232.3517857142857" y="271.85357142857146" type="curve" smooth="yes"/>
      <point x="232.3517857142857" y="456.7767857142857"/>
      <point x="261.5678571428572" y="581.7892857142857"/>
      <point x="316.38214285714287" y="581.7892857142857" type="curve" smooth="yes"/>
      <point x="357.8464285714286" y="581.7892857142857"/>
      <point x="383.68035714285713" y="492.1142857142857"/>
      <point x="383.68035714285713" y="367.3375" type="curve" smooth="yes"/>
      <point x="383.68035714285713" y="182.79642857142858"/>
      <point x="353.65535714285716" y="55.59285714285714"/>
    </contour>
  </outline>
</glyph>
<glyph name="one" format="2">
  <advance width="439.07678571428573"/>
  <unicode hex="0031"/>
  <outline>
    <contour>
      <point x="315.625" y="-13.0" type="curve" smooth="yes"/>
      <point x="352.9375" y="-13.0"/>
      <point x="357.17321428571427" y="-5.146428571428571"/>
      <point x="357.17321428571427" y="16.03214285714286" type="curve" smooth="yes"/>
      <point x="357.17321428571427" y="221.54642857142858"/>
      <point x="383.4660714285714" y="571.5535714285714"/>
      <point x="383.4660714285714" y="588.7892857142857" type="curve" smooth="yes"/>
      <point x="383.4660714285714" y="632.675"/>
      <point x="288.9875" y="652.0"/>
      <point x="266.3696428571429" y="652.0" type="curve" smooth="yes"/>
      <point x="254.47142857142856" y="652.0"/>
      <point x="72.14642857142857" y="512.8660714285714"/>
      <point x="62.95535714285714" y="502.86607142857144" type="curve" smooth="yes"/>
      <point x="53.71964285714286" y="492.82142857142856"/>
      <point x="51.910714285714285" y="466.8339285714286"/>
      <point x="51.910714285714285" y="445.8910714285714" type="curve" smooth="yes"/>
      <point x="51.910714285714285" y="403.19642857142856"/>
      <point x="60.528571428571425" y="389.5214285714286"/>
      <point x="69.95535714285714" y="389.5214285714286" type="curve" smooth="yes"/>
      <point x="79.80892857142857" y="389.5214285714286"/>
      <point x="145.43928571428572" y="454.87142857142857"/>
      <point x="190.46428571428572" y="486.88392857142856" type="curve"/>
      <point x="186.0375" y="360.2785714285714"/>
      <point x="167.17142857142858" y="64.82857142857142"/>
      <point x="167.17142857142858" y="50.401785714285715" type="curve" smooth="yes"/>
      <point x="167.17142857142858" y="6.516071428571429"/>
      <point x="259.65" y="-13.0"/>
    </contour>
  </outline>
</glyph>
<glyph name="two" format="2">
  <advance width="557.5160714285714"/>
  <unicode hex="0032"/>
  <outline>
    <contour>
      <point x="88.9875" y="0.0" type="curve" smooth="yes"/>
      <point x="466.2107142857143" y="0.0" type="line" smooth="yes"/>
      <point x="480.4017857142857" y="0.0"/>
      <point x="498.1089285714286" y="20.955357142857142"/>
      <point x="498.1089285714286" y="67.84107142857142" type="curve" smooth="yes"/>
      <point x="498.1089285714286" y="103.15357142857144"/>
      <point x="496.1089285714286" y="118.8607142857143"/>
      <point x="489.6821428571429" y="118.8607142857143" type="curve" smooth="yes"/>
      <point x="482.8285714285714" y="118.8607142857143"/>
      <point x="385.4214285714286" y="105.2875"/>
      <point x="319.2946428571429" y="105.2875" type="curve" smooth="yes"/>
      <point x="295.95714285714286" y="105.2875"/>
      <point x="273.1482142857143" y="105.2875"/>
      <point x="250.53035714285716" y="105.2875" type="curve"/>
      <point x="309.1928571428572" y="164.43392857142857"/>
      <point x="371.6892857142857" y="226.69464285714287"/>
      <point x="419.1857142857143" y="291.0" type="curve" smooth="yes"/>
      <point x="461.81607142857143" y="349.86607142857144"/>
      <point x="489.49107142857144" y="411.7767857142857"/>
      <point x="489.49107142857144" y="483.1589285714286" type="curve" smooth="yes"/>
      <point x="489.49107142857144" y="618.2357142857143"/>
      <point x="380.4142857142857" y="652.0"/>
      <point x="277.0" y="652.0" type="curve" smooth="yes"/>
      <point x="197.05714285714285" y="652.0"/>
      <point x="138.71964285714284" y="637.7071428571429"/>
      <point x="100.82142857142857" y="610.0446428571429" type="curve" smooth="yes"/>
      <point x="84.20357142857142" y="597.4267857142858"/>
      <point x="80.20357142857142" y="583.1464285714286"/>
      <point x="80.20357142857142" y="565.7196428571428" type="curve" smooth="yes"/>
      <point x="80.20357142857142" y="505.9357142857143"/>
      <point x="96.3375" y="494.08214285714286"/>
      <point x="111.61785714285715" y="494.08214285714286" type="curve" smooth="yes"/>
      <point x="124.0" y="494.08214285714286"/>
      <point x="163.3375" y="546.6678571428572"/>
      <point x="233.9232142857143" y="546.6678571428572" type="curve" smooth="yes"/>
      <point x="268.8464285714286" y="546.6678571428572"/>
      <point x="301.9607142857143" y="517.9035714285715"/>
      <point x="301.9607142857143" y="459.55357142857144" type="curve" smooth="yes"/>
      <point x="301.9607142857143" y="425.39464285714286"/>
      <point x="291.4767857142857" y="385.71964285714284"/>
      <point x="267.2732142857143" y="337.80892857142857" type="curve" smooth="yes"/>
      <point x="234.9232142857143" y="273.70714285714286"/>
      <point x="171.22321428571428" y="199.66964285714286"/>
      <point x="80.56071428571428" y="111.625" type="curve" smooth="yes"/>
      <point x="64.28035714285714" y="96.34464285714286"/>
      <point x="60.6625" y="83.25535714285715"/>
      <point x="60.6625" y="70.59285714285714" type="curve" smooth="yes"/>
      <point x="60.6625" y="53.93035714285715"/>
      <point x="73.08928571428572" y="0.0"/>
    </contour>
  </outline>
</glyph>
<glyph name="three" format="2">
  <advance width="565.5928571428572"/>
  <unicode hex="0033"/>
  <outline>
    <contour>
      <point x="231.17857142857144" y="-13.0" type="curve" smooth="yes"/>
      <point x="409.75892857142856" y="-13.0"/>
      <point x="504.0964285714286" y="88.88571428571429"/>
      <point x="504.0964285714286" y="194.8982142857143" type="curve" smooth="yes"/>
      <point x="504.0964285714286" y="284.325"/>
      <point x="447.33214285714286" y="344.0892857142857"/>
      <point x="353.9625" y="357.4714285714286" type="curve"/>
      <point x="392.00714285714287" y="364.80892857142857"/>
      <point x="494.3767857142857" y="418.14642857142854"/>
      <point x="494.3767857142857" y="510.0" type="curve" smooth="yes"/>
      <point x="494.3767857142857" y="603.0571428571428"/>
      <point x="419.31964285714287" y="652.0"/>
      <point x="283.975" y="652.0" type="curve" smooth="yes"/>
      <point x="205.17857142857144" y="652.0"/>
      <point x="151.94285714285715" y="639.0"/>
      <point x="111.42678571428571" y="616.7642857142857" type="curve" smooth="yes"/>
      <point x="93.0" y="606.7642857142857"/>
      <point x="84.61785714285715" y="592.3375"/>
      <point x="84.61785714285715" y="567.6303571428572" type="curve" smooth="yes"/>
      <point x="84.61785714285715" y="515.7446428571428"/>
      <point x="91.04464285714286" y="510.1267857142857"/>
      <point x="104.51607142857142" y="510.1267857142857" type="curve" smooth="yes"/>
      <point x="113.75178571428572" y="510.1267857142857"/>
      <point x="128.94285714285715" y="518.4642857142857"/>
      <point x="149.85357142857143" y="527.7571428571429" type="curve" smooth="yes"/>
      <point x="174.0" y="538.6678571428572"/>
      <point x="203.95535714285714" y="548.8589285714286"/>
      <point x="239.57321428571427" y="548.8589285714286" type="curve" smooth="yes"/>
      <point x="300.3375" y="548.8589285714286"/>
      <point x="319.55357142857144" y="511.05"/>
      <point x="319.55357142857144" y="471.92321428571427" type="curve" smooth="yes"/>
      <point x="319.55357142857144" y="407.9428571428571"/>
      <point x="257.4714285714286" y="364.6625"/>
      <point x="198.0125" y="358.19107142857143" type="curve" smooth="yes"/>
      <point x="187.77678571428572" y="357.38214285714287"/>
      <point x="181.96785714285716" y="346.4267857142857"/>
      <point x="181.96785714285716" y="324.5285714285714" type="curve" smooth="yes"/>
      <point x="181.96785714285716" y="310.0571428571429"/>
      <point x="184.39464285714286" y="303.0125"/>
      <point x="194.48392857142858" y="303.0125" type="curve" smooth="yes"/>
      <point x="269.1589285714286" y="303.0125"/>
      <point x="321.9482142857143" y="266.39464285714286"/>
      <point x="321.9482142857143" y="191.69464285714287" type="curve" smooth="yes"/>
      <point x="321.9482142857143" y="115.01964285714286"/>
      <point x="272.7892857142857" y="88.71428571428572"/>
      <point x="214.0" y="88.71428571428572" type="curve" smooth="yes"/>
      <point x="140.84107142857144" y="88.71428571428572"/>
      <point x="85.94285714285715" y="125.44642857142857"/>
      <point x="76.84107142857142" y="125.44642857142857" type="curve" smooth="yes"/>
      <point x="61.9875" y="125.44642857142857"/>
      <point x="58.56071428571428" y="117.44642857142857"/>
      <point x="58.56071428571428" y="70.85357142857143" type="curve" smooth="yes"/>
      <point x="58.56071428571428" y="40.808928571428574"/>
      <point x="70.84107142857142" y="27.382142857142856"/>
      <point x="89.26785714285714" y="16.573214285714286" type="curve" smooth="yes"/>
      <point x="120.26785714285714" y="-0.8089285714285714"/>
      <point x="160.0767857142857" y="-13.0"/>
    </contour>
  </outline>
</glyph>
<glyph name="four" format="2">
  <advance width="561.9107142857143"/>
  <unicode hex="0034"/>
  <outline>
    <contour>
      <point x="388.49107142857144" y="-13.0" type="curve" smooth="yes"/>
      <point x="425.4214285714286" y="-13.0"/>
      <point x="428.0392857142857" y="-5.146428571428571"/>
      <point x="428.0392857142857" y="16.03214285714286" type="curve" smooth="yes"/>
      <point x="428.0392857142857" y="70.94285714285715"/>
      <point x="429.8482142857143" y="130.9875"/>
      <point x="431.9946428571429" y="170.17142857142858" type="curve"/>
      <point x="513.8214285714286" y="170.17142857142858" type="line" smooth="yes"/>
      <point x="535.4839285714286" y="170.17142857142858"/>
      <point x="536.8214285714286" y="213.5857142857143"/>
      <point x="536.8214285714286" y="232.5857142857143" type="curve" smooth="yes"/>
      <point x="536.8214285714286" y="255.7642857142857"/>
      <point x="533.8214285714286" y="261.0"/>
      <point x="528.8214285714286" y="261.0" type="curve" smooth="yes"/>
      <point x="516.675" y="261.0"/>
      <point x="492.93035714285713" y="257.61785714285713"/>
      <point x="435.80357142857144" y="256.23571428571427" type="curve"/>
      <point x="441.80357142857144" y="398.01964285714286"/>
      <point x="454.5232142857143" y="571.7446428571428"/>
      <point x="454.5232142857143" y="588.9803571428572" type="curve" smooth="yes"/>
      <point x="454.5232142857143" y="632.8660714285714"/>
      <point x="374.5160714285714" y="652.0"/>
      <point x="325.39464285714286" y="652.0" type="curve" smooth="yes"/>
      <point x="309.30535714285713" y="652.0"/>
      <point x="303.49642857142857" y="649.0"/>
      <point x="293.025" y="635.9107142857143" type="curve" smooth="yes"/>
      <point x="264.4392857142857" y="600.0321428571428"/>
      <point x="47.05714285714286" y="282.6303571428571"/>
      <point x="34.675" y="257.5285714285714" type="curve" smooth="yes"/>
      <point x="31.057142857142857" y="250.91071428571428"/>
      <point x="30.248214285714283" y="241.43928571428572"/>
      <point x="30.248214285714283" y="234.39464285714286" type="curve" smooth="yes"/>
      <point x="30.248214285714283" y="201.3625"/>
      <point x="43.63035714285714" y="170.17142857142858"/>
      <point x="62.0125" y="170.17142857142858" type="curve" smooth="yes"/>
      <point x="252.99285714285713" y="170.17142857142858" type="line"/>
      <point x="250.0375" y="137.7392857142857"/>
      <point x="243.84642857142856" y="67.3125"/>
      <point x="243.84642857142856" y="50.401785714285715" type="curve" smooth="yes"/>
      <point x="243.84642857142856" y="6.516071428571429"/>
      <point x="332.5160714285714" y="-13.0"/>
    </contour>
    <contour>
      <point x="122.73928571428571" y="252.0" type="line"/>
      <point x="139.70714285714286" y="282.8339285714286"/>
      <point x="230.85892857142858" y="421.04285714285714"/>
      <point x="267.09464285714284" y="460.04285714285714" type="curve"/>
      <point x="266.2857142857143" y="416.57142857142856"/>
      <point x="260.18392857142857" y="330.5410714285714"/>
      <point x="255.18392857142857" y="252.0" type="curve"/>
    </contour>
  </outline>
</glyph>
<glyph name="five" format="2">
  <advance width="541.7196428571428"/>
  <unicode hex="0035"/>
  <outline>
    <contour>
      <point x="235.7642857142857" y="-13.0" type="curve" smooth="yes"/>
      <point x="357.4267857142857" y="-13.0"/>
      <point x="493.4017857142857" y="46.394642857142856"/>
      <point x="493.4017857142857" y="205.70714285714286" type="curve" smooth="yes"/>
      <point x="493.4017857142857" y="331.5160714285714"/>
      <point x="418.6375" y="394.5160714285714"/>
      <point x="256.7392857142857" y="394.5160714285714" type="curve" smooth="yes"/>
      <point x="241.12142857142857" y="394.5160714285714"/>
      <point x="222.7839285714286" y="393.70714285714286"/>
      <point x="210.82857142857142" y="392.0892857142857" type="curve"/>
      <point x="222.50357142857143" y="510.1517857142857" type="line"/>
      <point x="437.85357142857146" y="510.1517857142857" type="line" smooth="yes"/>
      <point x="465.3696428571429" y="510.1517857142857"/>
      <point x="482.50357142857143" y="534.7696428571428"/>
      <point x="482.50357142857143" y="602.4964285714286" type="curve" smooth="yes"/>
      <point x="482.50357142857143" y="628.2928571428571"/>
      <point x="477.07678571428573" y="639.0"/>
      <point x="460.13392857142856" y="639.0" type="curve" smooth="yes"/>
      <point x="125.11428571428571" y="639.0" type="line"/>
      <point x="87.6875" y="285.8910714285714" type="line"/>
      <point x="109.64285714285714" y="288.2732142857143"/>
      <point x="152.40714285714284" y="291.2732142857143"/>
      <point x="171.93571428571428" y="291.2732142857143" type="curve" smooth="yes"/>
      <point x="269.76964285714286" y="291.2732142857143"/>
      <point x="311.82678571428573" y="251.43928571428572"/>
      <point x="311.82678571428573" y="192.42678571428573" type="curve" smooth="yes"/>
      <point x="311.82678571428573" y="117.26785714285714"/>
      <point x="266.6232142857143" y="88.90535714285714"/>
      <point x="215.35" y="88.90535714285714" type="curve" smooth="yes"/>
      <point x="129.63035714285715" y="88.90535714285714"/>
      <point x="102.57321428571429" y="124.49107142857143"/>
      <point x="89.80892857142857" y="124.49107142857143" type="curve" smooth="yes"/>
      <point x="75.3375" y="124.49107142857143"/>
      <point x="67.05714285714285" y="117.06428571428572"/>
      <point x="67.05714285714285" y="68.325" type="curve" smooth="yes"/>
      <point x="67.05714285714285" y="40.61785714285714"/>
      <point x="79.95535714285714" y="26.19107142857143"/>
      <point x="96.0" y="16.0" type="curve" smooth="yes"/>
      <point x="127.03214285714286" y="-1.8982142857142854"/>
      <point x="167.84107142857144" y="-13.0"/>
    </contour>
  </outline>
</glyph>
<glyph name="six" format="2">
  <advance width="580.2232142857143"/>
  <unicode hex="0036"/>
  <outline>
    <contour>
      <point x="298.4589285714286" y="-13.0" type="curve" smooth="yes"/>
      <point x="458.8732142857143" y="-13.0"/>
      <point x="552.0071428571429" y="85.39464285714286"/>
      <point x="552.0071428571429" y="221.0" type="curve" smooth="yes"/>
      <point x="552.0071428571429" y="373.91785714285714"/>
      <point x="458.26785714285717" y="418.80892857142857"/>
      <point x="341.34464285714284" y="418.80892857142857" type="curve" smooth="yes"/>
      <point x="290.9375" y="418.80892857142857"/>
      <point x="256.5875" y="406.7392857142857"/>
      <point x="245.6767857142857" y="398.2553571428571" type="curve"/>
      <point x="254.65714285714284" y="469.78214285714284"/>
      <point x="331.54821428571427" y="568.8910714285714"/>
      <point x="445.1660714285714" y="568.8910714285714" type="curve" smooth="yes"/>
      <point x="455.4017857142857" y="568.8910714285714"/>
      <point x="459.01964285714286" y="579.3625"/>
      <point x="459.01964285714286" y="593.2607142857142" type="curve" smooth="yes"/>
      <point x="459.01964285714286" y="630.1464285714286"/>
      <point x="447.8285714285714" y="652.0"/>
      <point x="400.4142857142857" y="652.0" type="curve" smooth="yes"/>
      <point x="284.0642857142857" y="652.0"/>
      <point x="56.71964285714286" y="548.2232142857143"/>
      <point x="56.71964285714286" y="255.56071428571428" type="curve" smooth="yes"/>
      <point x="56.71964285714286" y="90.0"/>
      <point x="128.61785714285713" y="-13.0"/>
    </contour>
    <contour>
      <point x="305.07678571428573" y="56.783928571428575" type="curve" smooth="yes"/>
      <point x="245.21785714285716" y="56.783928571428575"/>
      <point x="231.5875" y="155.13392857142858"/>
      <point x="231.5875" y="227.3375" type="curve" smooth="yes"/>
      <point x="231.5875" y="238.71964285714284"/>
      <point x="231.7785714285714" y="257.71964285714284"/>
      <point x="232.96964285714284" y="264.5285714285714" type="curve" smooth="yes"/>
      <point x="242.45357142857142" y="319.5857142857143"/>
      <point x="274.34464285714284" y="348.2160714285714"/>
      <point x="313.17857142857144" y="348.2160714285714" type="curve" smooth="yes"/>
      <point x="346.1589285714286" y="348.2160714285714"/>
      <point x="377.9482142857143" y="311.30535714285713"/>
      <point x="377.9482142857143" y="215.57321428571427" type="curve" smooth="yes"/>
      <point x="377.9482142857143" y="112.65"/>
      <point x="341.7767857142857" y="56.783928571428575"/>
    </contour>
  </outline>
</glyph>
<glyph name="seven" format="2">
  <advance width="511.9107142857143"/>
  <unicode hex="0037"/>
  <outline>
    <contour>
      <point x="164.16607142857143" y="-13.0" type="curve" smooth="yes"/>
      <point x="196.58035714285714" y="-13.0"/>
      <point x="217.2875" y="-11.0"/>
      <point x="228.75892857142856" y="7.516071428571429" type="curve" smooth="yes"/>
      <point x="316.3" y="148.14642857142857"/>
      <point x="460.34464285714284" y="428.1714285714286"/>
      <point x="475.8410714285714" y="491.9482142857143" type="curve" smooth="yes"/>
      <point x="479.17857142857144" y="504.9035714285714"/>
      <point x="486.13392857142856" y="539.8910714285714"/>
      <point x="486.13392857142856" y="557.8339285714286" type="curve" smooth="yes"/>
      <point x="486.13392857142856" y="611.1464285714286"/>
      <point x="478.17857142857144" y="639.0"/>
      <point x="461.04464285714283" y="639.0" type="curve" smooth="yes"/>
      <point x="127.3125" y="639.0" type="line" smooth="yes"/>
      <point x="97.70714285714286" y="639.0"/>
      <point x="75.52857142857142" y="603.9107142857143"/>
      <point x="75.52857142857142" y="499.82678571428573" type="curve" smooth="yes"/>
      <point x="75.52857142857142" y="464.3232142857143"/>
      <point x="80.57321428571429" y="460.3232142857143"/>
      <point x="94.47142857142858" y="460.3232142857143" type="curve" smooth="yes"/>
      <point x="104.47142857142858" y="460.3232142857143"/>
      <point x="216.35714285714286" y="469.46964285714284"/>
      <point x="337.76964285714286" y="469.46964285714284" type="curve"/>
      <point x="309.2857142857143" y="366.98571428571427"/>
      <point x="179.5857142857143" y="139.13392857142858"/>
      <point x="96.14642857142857" y="38.07678571428572" type="curve" smooth="yes"/>
      <point x="89.10178571428571" y="30.03214285714286"/>
      <point x="86.3375" y="23.414285714285715"/>
      <point x="86.3375" y="14.751785714285715" type="curve" smooth="yes"/>
      <point x="86.3375" y="0.8982142857142854"/>
      <point x="124.51607142857142" y="-13.0"/>
    </contour>
  </outline>
</glyph>
<glyph name="eight" format="2">
  <advance width="573.5285714285715"/>
  <unicode hex="0038"/>
  <outline>
    <contour>
      <point x="255.71964285714284" y="-13.0" type="curve" smooth="yes"/>
      <point x="439.69464285714287" y="-13.0"/>
      <point x="520.3125" y="90.325"/>
      <point x="520.3125" y="193.36964285714285" type="curve" smooth="yes"/>
      <point x="520.3125" y="262.26785714285717"/>
      <point x="483.9428571428571" y="323.0642857142857"/>
      <point x="412.38928571428573" y="363.65" type="curve"/>
      <point x="478.9625" y="386.3696428571429"/>
      <point x="517.1214285714286" y="440.5160714285714"/>
      <point x="517.1214285714286" y="499.0571428571429" type="curve" smooth="yes"/>
      <point x="517.1214285714286" y="574.7321428571429"/>
      <point x="460.9625" y="652.0"/>
      <point x="307.19107142857143" y="652.0" type="curve" smooth="yes"/>
      <point x="168.41964285714286" y="652.0"/>
      <point x="81.40714285714286" y="567.2732142857143"/>
      <point x="81.40714285714286" y="465.2160714285714" type="curve" smooth="yes"/>
      <point x="81.40714285714286" y="401.06964285714287"/>
      <point x="111.0375" y="342.6428571428571"/>
      <point x="168.4767857142857" y="307.6875" type="curve"/>
      <point x="95.83392857142857" y="273.92321428571427"/>
      <point x="57.86607142857143" y="217.54107142857143"/>
      <point x="57.86607142857143" y="154.2357142857143" type="curve" smooth="yes"/>
      <point x="57.86607142857143" y="72.08928571428572"/>
      <point x="116.35" y="-13.0"/>
    </contour>
    <contour>
      <point x="268.9107142857143" y="56.975" type="curve" smooth="yes"/>
      <point x="212.7267857142857" y="56.975"/>
      <point x="184.1982142857143" y="95.91071428571428"/>
      <point x="184.1982142857143" y="149.71964285714284" type="curve" smooth="yes"/>
      <point x="184.1982142857143" y="194.8017857142857"/>
      <point x="212.08928571428572" y="235.56607142857143"/>
      <point x="242.64285714285714" y="262.18392857142857" type="curve"/>
      <point x="304.5160714285714" y="220.6357142857143"/>
      <point x="348.25357142857143" y="177.69285714285712"/>
      <point x="348.25357142857143" y="125.6875" type="curve" smooth="yes"/>
      <point x="348.25357142857143" y="78.26785714285714"/>
      <point x="309.1267857142857" y="56.975"/>
    </contour>
    <contour>
      <point x="345.3125" y="405.5357142857143" type="curve"/>
      <point x="278.6821428571429" y="440.49107142857144"/>
      <point x="245.14107142857142" y="475.2553571428571"/>
      <point x="245.14107142857142" y="521.7517857142857" type="curve" smooth="yes"/>
      <point x="245.14107142857142" y="562.9232142857143"/>
      <point x="274.54821428571427" y="581.7892857142857"/>
      <point x="312.28035714285716" y="581.7892857142857" type="curve" smooth="yes"/>
      <point x="359.2482142857143" y="581.7892857142857"/>
      <point x="393.7892857142857" y="553.9678571428572"/>
      <point x="393.7892857142857" y="499.0571428571429" type="curve" smooth="yes"/>
      <point x="393.7892857142857" y="461.8982142857143"/>
      <point x="373.0125" y="428.93035714285713"/>
    </contour>
  </outline>
</glyph>
<glyph name="nine" format="2">
  <advance width="556.1785714285714"/>
  <unicode hex="0039"/>
  <outline>
    <contour>
      <point x="193.3125" y="-13.0" type="curve" smooth="yes"/>
      <point x="309.6625" y="-13.0"/>
      <point x="537.0071428571429" y="90.77678571428572"/>
      <point x="537.0071428571429" y="383.4392857142857" type="curve" smooth="yes"/>
      <point x="537.0071428571429" y="549.0"/>
      <point x="465.1089285714286" y="652.0"/>
      <point x="295.26785714285717" y="652.0" type="curve" smooth="yes"/>
      <point x="134.85357142857143" y="652.0"/>
      <point x="41.71964285714286" y="553.6053571428572"/>
      <point x="41.71964285714286" y="418.0" type="curve" smooth="yes"/>
      <point x="41.71964285714286" y="265.08214285714286"/>
      <point x="135.45892857142857" y="220.19107142857143"/>
      <point x="252.38214285714287" y="220.19107142857143" type="curve" smooth="yes"/>
      <point x="302.7892857142857" y="220.19107142857143"/>
      <point x="337.13928571428573" y="232.2607142857143"/>
      <point x="348.05" y="240.74464285714285" type="curve"/>
      <point x="339.06964285714287" y="169.21785714285716"/>
      <point x="262.17857142857144" y="70.10892857142858"/>
      <point x="148.56071428571428" y="70.10892857142858" type="curve" smooth="yes"/>
      <point x="138.325" y="70.10892857142858"/>
      <point x="134.70714285714286" y="59.6375"/>
      <point x="134.70714285714286" y="45.739285714285714" type="curve" smooth="yes"/>
      <point x="134.70714285714286" y="8.853571428571428"/>
      <point x="145.8982142857143" y="-13.0"/>
    </contour>
    <contour>
      <point x="280.54821428571427" y="289.1660714285714" type="curve" smooth="yes"/>
      <point x="247.56785714285715" y="289.1660714285714"/>
      <point x="215.7785714285714" y="326.07678571428573"/>
      <point x="215.7785714285714" y="421.80892857142857" type="curve" smooth="yes"/>
      <point x="215.7785714285714" y="524.7321428571429"/>
      <point x="251.95" y="580.5982142857143"/>
      <point x="288.65" y="580.5982142857143" type="curve" smooth="yes"/>
      <point x="348.50892857142856" y="580.5982142857143"/>
      <point x="362.13928571428573" y="482.2482142857143"/>
      <point x="362.13928571428573" y="410.04464285714283" type="curve" smooth="yes"/>
      <point x="362.13928571428573" y="399.4714285714286"/>
      <point x="361.9482142857143" y="378.04464285714283"/>
      <point x="360.75714285714287" y="372.85357142857146" type="curve" smooth="yes"/>
      <point x="350.4642857142857" y="317.7964285714286"/>
      <point x="319.38214285714287" y="289.1660714285714"/>
    </contour>
  </outline>
</glyph>
<glyph name="colon" format="2">
  <advance width="275.0"/>
  <unicode hex="003A"/>
  <outline>
    <contour>
      <point x="140.12142857142857" y="241.86964285714285" type="curve" smooth="yes"/>
      <point x="186.34464285714284" y="241.86964285714285"/>
      <point x="241.98214285714286" y="280.2839285714286"/>
      <point x="242.17321428571427" y="330.40535714285716" type="curve" smooth="yes"/>
      <point x="242.55535714285713" y="391.9089285714286"/>
      <point x="202.2875" y="413.7625"/>
      <point x="161.59285714285716" y="413.7625" type="curve" smooth="yes"/>
      <point x="112.42678571428571" y="413.7625"/>
      <point x="60.776785714285715" y="389.9535714285714"/>
      <point x="60.776785714285715" y="326.2142857142857" type="curve" smooth="yes"/>
      <point x="60.776785714285715" y="287.6535714285714"/>
      <point x="91.42678571428571" y="241.86964285714285"/>
    </contour>
    <contour>
      <point x="137.5857142857143" y="75.42857142857144" type="curve" smooth="yes"/>
      <point x="186.94285714285715" y="75.42857142857144"/>
      <point x="238.59285714285716" y="99.23750000000001"/>
      <point x="238.59285714285716" y="162.9767857142857" type="curve" smooth="yes"/>
      <point x="238.59285714285716" y="201.53750000000002"/>
      <point x="207.75178571428572" y="247.32142857142856"/>
      <point x="159.24821428571428" y="247.32142857142856" type="curve" smooth="yes"/>
      <point x="112.83392857142857" y="247.32142857142856"/>
      <point x="57.19642857142857" y="208.90714285714284"/>
      <point x="57.19642857142857" y="157.9767857142857" type="curve" smooth="yes"/>
      <point x="57.19642857142857" y="97.28214285714284"/>
      <point x="97.08214285714286" y="75.42857142857144"/>
    </contour>
  </outline>
</glyph>
<glyph name="semicolon" format="2">
  <advance width="294.60535714285714"/>
  <unicode hex="003B"/>
  <outline>
    <contour>
      <point x="168.70714285714286" y="318.1071428571429" type="curve" smooth="yes"/>
      <point x="213.01964285714286" y="318.1071428571429"/>
      <point x="271.1410714285714" y="357.2857142857143"/>
      <point x="271.1410714285714" y="409.7" type="curve" smooth="yes"/>
      <point x="271.1410714285714" y="469.29285714285714"/>
      <point x="232.2107142857143" y="490.0"/>
      <point x="190.17857142857144" y="490.0" type="curve" smooth="yes"/>
      <point x="138.91071428571428" y="490.0"/>
      <point x="89.74464285714285" y="466.95535714285717"/>
      <point x="89.74464285714285" y="405.50892857142856" type="curve" smooth="yes"/>
      <point x="89.74464285714285" y="365.0375"/>
      <point x="121.54107142857143" y="318.1071428571429"/>
    </contour>
    <contour>
      <point x="66.88571428571429" y="-78.80892857142857" type="curve" smooth="yes"/>
      <point x="94.87321428571428" y="-78.80892857142857"/>
      <point x="105.68214285714285" y="-75.61785714285715"/>
      <point x="127.66964285714286" y="-60.10178571428571" type="curve" smooth="yes"/>
      <point x="165.2875" y="-31.426785714285714"/>
      <point x="241.6125" y="48.528571428571425"/>
      <point x="241.6125" y="79.52857142857142" type="curve" smooth="yes"/>
      <point x="241.6125" y="94.80892857142857"/>
      <point x="234.37678571428572" y="109.6625"/>
      <point x="215.24285714285713" y="130.60535714285714" type="curve" smooth="yes"/>
      <point x="198.10892857142858" y="148.5482142857143"/>
      <point x="158.75178571428572" y="178.43392857142857"/>
      <point x="140.04464285714286" y="178.43392857142857" type="curve" smooth="yes"/>
      <point x="129.57321428571427" y="178.43392857142857"/>
      <point x="125.3375" y="175.00714285714287"/>
      <point x="118.48392857142858" y="156.06428571428572" type="curve" smooth="yes"/>
      <point x="103.80892857142857" y="117.71428571428572"/>
      <point x="47.14642857142857" y="5.873214285714283"/>
      <point x="24.82142857142857" y="-37.20357142857143" type="curve" smooth="yes"/>
      <point x="18.439285714285713" y="-49.20357142857143"/>
      <point x="14.630357142857143" y="-54.82142857142857"/>
      <point x="14.630357142857143" y="-57.63035714285714" type="curve" smooth="yes"/>
      <point x="14.630357142857143" y="-60.63035714285714"/>
      <point x="43.089285714285715" y="-78.80892857142857"/>
    </contour>
  </outline>
</glyph>
<glyph name="less" format="2">
  <advance width="540.0"/>
  <unicode hex="003C"/>
  <outline>
    <contour>
      <point x="421.29285714285714" y="90.30535714285715" type="curve" smooth="yes"/>
      <point x="430.86607142857144" y="90.30535714285715"/>
      <point x="435.71964285714284" y="119.86607142857143"/>
      <point x="435.71964285714284" y="145.95535714285714" type="curve" smooth="yes"/>
      <point x="435.71964285714284" y="167.94285714285715"/>
      <point x="431.675" y="184.45892857142857"/>
      <point x="399.87857142857143" y="199.5482142857143" type="curve" smooth="yes"/>
      <point x="224.21785714285716" y="281.1142857142857" type="line"/>
      <point x="451.82142857142856" y="375.19642857142856" type="line" smooth="yes"/>
      <point x="476.29285714285714" y="385.6232142857143"/>
      <point x="484.19107142857143" y="414.8589285714286"/>
      <point x="484.19107142857143" y="482.95535714285717" type="curve" smooth="yes"/>
      <point x="484.19107142857143" y="522.5035714285714"/>
      <point x="476.3375" y="535.1214285714286"/>
      <point x="468.1017857142857" y="535.1214285714286" type="curve" smooth="yes"/>
      <point x="461.675" y="535.1214285714286"/>
      <point x="452.2482142857143" y="532.5035714285714"/>
      <point x="436.0125" y="525.6946428571429" type="curve" smooth="yes"/>
      <point x="87.675" y="374.93035714285713" type="line" smooth="yes"/>
      <point x="70.63035714285715" y="367.3125"/>
      <point x="62.63035714285714" y="353.65"/>
      <point x="62.63035714285714" y="331.9428571428571" type="curve" smooth="yes"/>
      <point x="62.63035714285714" y="292.4267857142857"/>
      <point x="68.05714285714285" y="254.30535714285713"/>
      <point x="89.71964285714286" y="243.87857142857143" type="curve" smooth="yes"/>
      <point x="401.29285714285714" y="97.49642857142857" type="line" smooth="yes"/>
      <point x="414.29285714285714" y="91.49642857142857"/>
      <point x="417.29285714285714" y="90.30535714285715"/>
    </contour>
  </outline>
</glyph>
<glyph name="equal" format="2">
  <advance width="558.0892857142857"/>
  <unicode hex="003D"/>
  <outline>
    <contour>
      <point x="403.9214285714286" y="465.3642857142857" type="curve" smooth="yes"/>
      <point x="196.0857142857143" y="465.3642857142857" type="line" smooth="yes"/>
      <point x="187.00892857142856" y="465.3642857142857"/>
      <point x="177.8303571428571" y="443.44642857142856"/>
      <point x="177.8303571428571" y="403.7767857142857" type="curve" smooth="yes"/>
      <point x="177.8303571428571" y="376.18392857142857"/>
      <point x="181.3017857142857" y="373.13928571428573"/>
      <point x="188.43571428571425" y="373.13928571428573" type="curve" smooth="yes"/>
      <point x="396.2714285714286" y="373.13928571428573" type="line" smooth="yes"/>
      <point x="405.3482142857143" y="373.13928571428573"/>
      <point x="414.5267857142857" y="395.2482142857143"/>
      <point x="414.5267857142857" y="435.7267857142857" type="curve" smooth="yes"/>
      <point x="414.5267857142857" y="462.31964285714287"/>
      <point x="411.05535714285713" y="465.3642857142857"/>
    </contour>
    <contour>
      <point x="392.9214285714286" y="251.3125" type="curve" smooth="yes"/>
      <point x="185.0857142857143" y="251.3125" type="line" smooth="yes"/>
      <point x="176.00892857142856" y="251.3125"/>
      <point x="166.63928571428573" y="228.20357142857142"/>
      <point x="166.63928571428573" y="187.725" type="curve" smooth="yes"/>
      <point x="166.63928571428573" y="161.94107142857143"/>
      <point x="170.3017857142857" y="158.89642857142857"/>
      <point x="177.43571428571425" y="158.89642857142857" type="curve" smooth="yes"/>
      <point x="385.2714285714286" y="158.89642857142857" type="line" smooth="yes"/>
      <point x="394.15714285714284" y="158.89642857142857"/>
      <point x="403.5267857142857" y="180.00535714285712"/>
      <point x="403.5267857142857" y="219.86607142857142" type="curve" smooth="yes"/>
      <point x="403.5267857142857" y="247.45892857142857"/>
      <point x="400.05535714285713" y="251.3125"/>
    </contour>
  </outline>
</glyph>
<glyph name="greater" format="2">
  <advance width="562.3571428571429"/>
  <unicode hex="003E"/>
  <outline>
    <contour>
      <point x="89.9875" y="90.11428571428571" type="curve" smooth="yes"/>
      <point x="96.41428571428571" y="90.11428571428571"/>
      <point x="105.84107142857142" y="92.73214285714286"/>
      <point x="122.07678571428572" y="99.54107142857143" type="curve" smooth="yes"/>
      <point x="467.9875" y="249.49642857142857" type="line" smooth="yes"/>
      <point x="489.26785714285717" y="258.73214285714283"/>
      <point x="495.4589285714286" y="297.4714285714286"/>
      <point x="495.4589285714286" y="333.93035714285713" type="curve" smooth="yes"/>
      <point x="495.4589285714286" y="358.69464285714287"/>
      <point x="490.2232142857143" y="370.93035714285713"/>
      <point x="468.3696428571429" y="381.3571428571429" type="curve" smooth="yes"/>
      <point x="156.9875" y="527.7392857142858" type="line" smooth="yes"/>
      <point x="143.9875" y="533.7392857142858"/>
      <point x="140.79642857142858" y="534.9303571428571"/>
      <point x="136.79642857142858" y="534.9303571428571" type="curve" smooth="yes"/>
      <point x="127.22321428571428" y="534.9303571428571"/>
      <point x="122.36964285714285" y="505.3696428571429"/>
      <point x="122.36964285714285" y="479.28035714285716" type="curve" smooth="yes"/>
      <point x="122.36964285714285" y="457.29285714285714"/>
      <point x="126.41428571428571" y="440.7767857142857"/>
      <point x="158.2107142857143" y="425.87857142857143" type="curve" smooth="yes"/>
      <point x="333.87142857142857" y="344.12142857142857" type="line"/>
      <point x="106.26785714285714" y="250.0392857142857" type="line" smooth="yes"/>
      <point x="81.79642857142858" y="239.6125"/>
      <point x="73.89821428571429" y="209.6125"/>
      <point x="73.89821428571429" y="141.51607142857142" type="curve" smooth="yes"/>
      <point x="73.89821428571429" y="101.96785714285714"/>
      <point x="81.75178571428572" y="90.11428571428571"/>
    </contour>
  </outline>
</glyph>
<glyph name="question" format="2">
  <advance width="447.0"/>
  <unicode hex="003F"/>
  <outline>
    <contour>
      <point x="151.56071428571428" y="237.7392857142857" type="curve" smooth="yes"/>
      <point x="165.56071428571428" y="237.7392857142857"/>
      <point x="173.35714285714286" y="253.17857142857144"/>
      <point x="199.54107142857143" y="272.92321428571427" type="curve" smooth="yes"/>
      <point x="303.17857142857144" y="347.61785714285713"/>
      <point x="434.00714285714287" y="367.3178571428571"/>
      <point x="434.00714285714287" y="497.3375" type="curve" smooth="yes"/>
      <point x="434.00714285714287" y="536.2928571428571"/>
      <point x="416.9625" y="570.9107142857143"/>
      <point x="392.7267857142857" y="597.9553571428571" type="curve" smooth="yes"/>
      <point x="351.8285714285714" y="643.4714285714285"/>
      <point x="278.7964285714286" y="652.0"/>
      <point x="219.9875" y="652.0" type="curve" smooth="yes"/>
      <point x="164.0767857142857" y="652.0"/>
      <point x="91.60535714285714" y="635.8982142857143"/>
      <point x="48.04464285714286" y="603.8410714285715" type="curve" smooth="yes"/>
      <point x="30.675" y="592.7517857142857"/>
      <point x="27.675" y="578.2357142857143"/>
      <point x="27.675" y="561.3375" type="curve" smooth="yes"/>
      <point x="27.675" y="516.8785714285714"/>
      <point x="37.910714285714285" y="500.2607142857143"/>
      <point x="52.38214285714286" y="500.2607142857143" type="curve" smooth="yes"/>
      <point x="56.191071428571426" y="500.2607142857143"/>
      <point x="61.95535714285714" y="503.3625"/>
      <point x="74.29285714285714" y="512.0375" type="curve" smooth="yes"/>
      <point x="103.57321428571429" y="530.375"/>
      <point x="143.3375" y="550.2857142857142"/>
      <point x="188.06964285714287" y="550.2857142857142" type="curve" smooth="yes"/>
      <point x="219.66785714285714" y="550.2857142857142"/>
      <point x="241.5339285714286" y="527.5982142857143"/>
      <point x="241.5339285714286" y="491.4392857142857" type="curve" smooth="yes"/>
      <point x="241.5339285714286" y="454.3125"/>
      <point x="211.96785714285716" y="409.91785714285714"/>
      <point x="164.3375" y="361.1089285714286" type="curve" smooth="yes"/>
      <point x="137.48392857142858" y="332.7839285714286"/>
      <point x="129.04464285714286" y="305.975"/>
      <point x="129.04464285714286" y="279.8285714285714" type="curve" smooth="yes"/>
      <point x="129.04464285714286" y="257.12142857142857"/>
      <point x="139.56071428571428" y="237.7392857142857"/>
    </contour>
    <contour>
      <point x="171.69464285714287" y="-0.8089285714285714" type="curve" smooth="yes"/>
      <point x="222.77142857142857" y="-0.8089285714285714"/>
      <point x="272.12857142857143" y="22.235714285714288"/>
      <point x="272.12857142857143" y="83.68214285714285" type="curve" smooth="yes"/>
      <point x="272.12857142857143" y="124.15357142857144"/>
      <point x="240.33214285714286" y="171.08392857142857"/>
      <point x="193.16607142857143" y="171.08392857142857" type="curve" smooth="yes"/>
      <point x="148.85357142857143" y="171.08392857142857"/>
      <point x="90.73214285714286" y="131.90535714285716"/>
      <point x="90.73214285714286" y="78.68214285714285" type="curve" smooth="yes"/>
      <point x="90.73214285714286" y="19.898214285714285"/>
      <point x="129.47142857142856" y="-0.8089285714285714"/>
    </contour>
  </outline>
</glyph>
<glyph name="at" format="2">
  <advance width="890.7464285714286"/>
  <unicode hex="0040"/>
  <outline>
    <contour>
      <point x="164.2107142857143" y="-123.71964285714286" type="curve" smooth="yes"/>
      <point x="173.44642857142856" y="-123.71964285714286"/>
      <point x="179.87321428571428" y="-120.10178571428571"/>
      <point x="179.87321428571428" y="-114.48392857142858" type="curve" smooth="yes"/>
      <point x="179.87321428571428" y="-108.48392857142858"/>
      <point x="174.68214285714285" y="-96.52857142857142"/>
      <point x="170.06428571428572" y="-80.24821428571428" type="curve" smooth="yes"/>
      <point x="145.53571428571428" y="5.719642857142857"/>
      <point x="133.15357142857144" y="87.96785714285714"/>
      <point x="133.15357142857144" y="192.19107142857143" type="curve" smooth="yes"/>
      <point x="133.15357142857144" y="425.5982142857143"/>
      <point x="245.75178571428572" y="576.8785714285714"/>
      <point x="489.5232142857143" y="576.8785714285714" type="curve" smooth="yes"/>
      <point x="746.8678571428571" y="576.8785714285714"/>
      <point x="813.275" y="476.6875"/>
      <point x="813.275" y="370.4142857142857" type="curve" smooth="yes"/>
      <point x="813.275" y="295.2875"/>
      <point x="778.6" y="219.70178571428573"/>
      <point x="740.7660714285714" y="170.7785714285714" type="curve" smooth="yes"/>
      <point x="724.3392857142858" y="147.88035714285715"/>
      <point x="709.4857142857143" y="133.4089285714286"/>
      <point x="701.8678571428571" y="133.4089285714286" type="curve" smooth="yes"/>
      <point x="694.1035714285714" y="133.4089285714286"/>
      <point x="692.7214285714285" y="144.07142857142856"/>
      <point x="692.7214285714285" y="181.68928571428572" type="curve" smooth="yes"/>
      <point x="692.7214285714285" y="231.65"/>
      <point x="701.0589285714286" y="368.39464285714286"/>
      <point x="701.0589285714286" y="376.2035714285714" type="curve"/>
      <point x="705.25" y="376.2035714285714"/>
      <point x="714.2946428571429" y="393.4839285714286"/>
      <point x="714.2946428571429" y="414.95535714285717" type="curve" smooth="yes"/>
      <point x="714.2946428571429" y="424.80892857142857"/>
      <point x="711.6767857142858" y="425.0"/>
      <point x="707.8678571428571" y="426.0" type="curve" smooth="yes"/>
      <point x="586.3321428571428" y="444.85357142857146"/>
      <point x="512.3196428571429" y="450.4267857142857"/>
      <point x="452.01964285714286" y="450.4267857142857" type="curve" smooth="yes"/>
      <point x="370.9428571428571" y="450.4267857142857"/>
      <point x="321.17857142857144" y="414.0"/>
      <point x="279.7964285714286" y="357.61785714285713" type="curve" smooth="yes"/>
      <point x="235.79642857142858" y="297.80892857142857"/>
      <point x="233.60535714285714" y="120.80892857142857"/>
      <point x="233.60535714285714" y="86.975" type="curve" smooth="yes"/>
      <point x="233.60535714285714" y="71.82857142857142"/>
      <point x="234.60535714285714" y="61.44642857142857"/>
      <point x="236.79642857142858" y="48.975" type="curve" smooth="yes"/>
      <point x="242.4142857142857" y="12.471428571428572"/>
      <point x="319.1410714285714" y="-13.0"/>
      <point x="333.9946428571429" y="-13.0" type="curve" smooth="yes"/>
      <point x="381.5232142857143" y="-13.0"/>
      <point x="508.8732142857143" y="144.2160714285714"/>
      <point x="532.0446428571429" y="212.5910714285714" type="curve"/>
      <point x="529.0892857142857" y="181.12678571428572"/>
      <point x="526.5160714285714" y="118.9875"/>
      <point x="526.5160714285714" y="86.975" type="curve" smooth="yes"/>
      <point x="526.5160714285714" y="71.82857142857142"/>
      <point x="527.325" y="61.44642857142857"/>
      <point x="529.5160714285714" y="48.975" type="curve" smooth="yes"/>
      <point x="535.1339285714286" y="12.471428571428572"/>
      <point x="612.0517857142858" y="-13.0"/>
      <point x="626.7142857142858" y="-13.0" type="curve" smooth="yes"/>
      <point x="641.0964285714285" y="-13.0"/>
      <point x="668.4785714285714" y="4.808928571428572"/>
      <point x="699.9053571428572" y="35.808928571428574" type="curve" smooth="yes"/>
      <point x="812.4535714285714" y="147.26785714285714"/>
      <point x="878.7339285714286" y="269.1660714285714"/>
      <point x="878.7339285714286" y="386.1660714285714" type="curve" smooth="yes"/>
      <point x="878.7339285714286" y="480.1142857142857"/>
      <point x="831.6071428571429" y="652.0"/>
      <point x="497.0392857142857" y="652.0" type="curve" smooth="yes"/>
      <point x="189.17857142857144" y="652.0"/>
      <point x="42.04464285714286" y="486.03214285714284"/>
      <point x="42.04464285714286" y="226.60535714285714" type="curve" smooth="yes"/>
      <point x="42.04464285714286" y="128.60535714285714"/>
      <point x="65.08928571428572" y="20.79642857142857"/>
      <point x="112.36964285714285" y="-99.10178571428571" type="curve" smooth="yes"/>
      <point x="119.79642857142858" y="-117.3375"/>
      <point x="142.50357142857143" y="-123.71964285714286"/>
    </contour>
    <contour>
      <point x="411.38392857142856" y="132.6" type="curve" smooth="yes"/>
      <point x="403.6196428571428" y="132.6"/>
      <point x="401.42857142857144" y="137.6"/>
      <point x="401.42857142857144" y="178.45357142857142" type="curve" smooth="yes"/>
      <point x="401.42857142857144" y="313.17857142857144"/>
      <point x="424.25" y="390.96785714285716"/>
      <point x="476.64464285714286" y="390.96785714285716" type="curve" smooth="yes"/>
      <point x="494.8928571428571" y="390.96785714285716"/>
      <point x="518.8160714285714" y="388.5857142857143"/>
      <point x="544.7071428571429" y="381.86607142857144" type="curve"/>
      <point x="537.8285714285714" y="261.4839285714286"/>
      <point x="428.86785714285713" y="132.6"/>
    </contour>
  </outline>
</glyph>
<glyph name="A" format="2">
  <advance width="653.9875"/>
  <unicode hex="0041"/>
  <anchor x="304.14642857142854" y="0.0" name="bottom"/>
  <anchor x="531.5160714285714" y="0.0" name="ogonek"/>
  <anchor x="382.03214285714284" y="652.0" name="top"/>
  <outline>
    <contour>
      <point x="89.34464285714286" y="-13.0" type="curve" smooth="yes"/>
      <point x="104.05178571428571" y="-13.0"/>
      <point x="105.24285714285715" y="-8.573214285714286"/>
      <point x="107.43392857142857" y="-3.1910714285714286" type="curve" smooth="yes"/>
      <point x="127.14107142857144" y="51.3125"/>
      <point x="171.56071428571428" y="155.24107142857144"/>
      <point x="179.28035714285716" y="171.76964285714286" type="curve"/>
      <point x="196.71964285714284" y="172.76964285714286"/>
      <point x="239.54107142857143" y="174.9607142857143"/>
      <point x="286.6875" y="174.9607142857143" type="curve" smooth="yes"/>
      <point x="319.375" y="174.9607142857143"/>
      <point x="380.61071428571427" y="172.9607142857143"/>
      <point x="408.8910714285714" y="170.34285714285716" type="curve"/>
      <point x="418.7125" y="132.59821428571428"/>
      <point x="429.44464285714287" y="87.59285714285714"/>
      <point x="433.2089285714286" y="59.21071428571429" type="curve" smooth="yes"/>
      <point x="435.4" y="43.16607142857143"/>
      <point x="440.82678571428573" y="34.3125"/>
      <point x="447.87142857142857" y="27.267857142857142" type="curve" smooth="yes"/>
      <point x="474.4767857142857" y="0.6624999999999996"/>
      <point x="545.8660714285714" y="-13.0"/>
      <point x="595.7071428571429" y="-13.0" type="curve" smooth="yes"/>
      <point x="634.8285714285714" y="-13.0"/>
      <point x="641.4910714285714" y="-5.146428571428571"/>
      <point x="641.4910714285714" y="10.369642857142857" type="curve" smooth="yes"/>
      <point x="641.4910714285714" y="13.560714285714287"/>
      <point x="640.4910714285714" y="19.605357142857144"/>
      <point x="636.6821428571428" y="35.07678571428572" type="curve" smooth="yes"/>
      <point x="617.1982142857142" y="117.36964285714285"/>
      <point x="523.6767857142858" y="451.36785714285713"/>
      <point x="492.96964285714284" y="596.7892857142857" type="curve" smooth="yes"/>
      <point x="486.925" y="626.6303571428572"/>
      <point x="409.5357142857143" y="652.0"/>
      <point x="328.9107142857143" y="652.0" type="curve" smooth="yes"/>
      <point x="291.1714285714286" y="652.0"/>
      <point x="284.9357142857143" y="646.9553571428571"/>
      <point x="279.7" y="629.8214285714286" type="curve" smooth="yes"/>
      <point x="256.86607142857144" y="570.2107142857143"/>
      <point x="111.18571428571428" y="267.2446428571428"/>
      <point x="20.369642857142857" y="75.34464285714286" type="curve" smooth="yes"/>
      <point x="13.51607142857143" y="60.82857142857143"/>
      <point x="12.133928571428571" y="56.44642857142857"/>
      <point x="12.133928571428571" y="49.59285714285714" type="curve" smooth="yes"/>
      <point x="12.133928571428571" y="12.17857142857143"/>
      <point x="52.35714285714286" y="-13.0"/>
    </contour>
    <contour>
      <point x="213.22321428571428" y="255.2160714285714" type="line"/>
      <point x="242.0767857142857" y="321.4392857142857"/>
      <point x="302.3375" y="455.24107142857144"/>
      <point x="327.0125" y="494.68035714285713" type="curve"/>
      <point x="337.35" y="455.34285714285716"/>
      <point x="375.4642857142857" y="311.1714285714286"/>
      <point x="388.41964285714283" y="255.2160714285714" type="curve"/>
    </contour>
  </outline>
</glyph>
<glyph name="B" format="2">
  <advance width="683.9571428571428"/>
  <unicode hex="0042"/>
  <anchor x="336.6" y="0.0" name="bottom"/>
  <anchor x="372.55535714285713" y="652.0" name="top"/>
  <outline>
    <contour>
      <point x="69.6875" y="0.0" type="curve"/>
      <point x="383.0017857142857" y="0.0" type="line" smooth="yes"/>
      <point x="545.3714285714286" y="0.0"/>
      <point x="642.1678571428572" y="88.24821428571428"/>
      <point x="642.1678571428572" y="203.28035714285716" type="curve" smooth="yes"/>
      <point x="642.1678571428572" y="289.7964285714286"/>
      <point x="579.4160714285714" y="341.80892857142857"/>
      <point x="487.16785714285714" y="350.80892857142857" type="curve"/>
      <point x="543.9071428571428" y="363.23571428571427"/>
      <point x="628.6392857142857" y="409.9428571428571"/>
      <point x="628.6392857142857" y="503.5285714285714" type="curve" smooth="yes"/>
      <point x="628.6392857142857" y="601.0892857142857"/>
      <point x="553.6964285714286" y="639.0"/>
      <point x="420.18035714285713" y="639.0" type="curve" smooth="yes"/>
      <point x="100.025" y="639.0" type="line"/>
      <point x="98.30535714285715" y="437.3696428571429"/>
      <point x="71.025" y="48.49642857142857"/>
    </contour>
    <contour>
      <point x="325.80357142857144" y="78.25535714285715" type="curve" smooth="yes"/>
      <point x="277.925" y="78.25535714285715"/>
      <point x="261.8803571428572" y="89.10892857142858"/>
      <point x="263.4982142857143" y="124.87321428571428" type="curve" smooth="yes"/>
      <point x="265.925" y="183.25535714285715"/>
      <point x="268.3071428571429" y="255.35"/>
      <point x="271.4982142857143" y="310.29285714285714" type="curve"/>
      <point x="284.31964285714287" y="310.29285714285714"/>
      <point x="297.95" y="310.29285714285714"/>
      <point x="314.00714285714287" y="308.675" type="curve" smooth="yes"/>
      <point x="379.24285714285713" y="300.5857142857143"/>
      <point x="446.26785714285717" y="272.6428571428571"/>
      <point x="446.26785714285717" y="187.675" type="curve" smooth="yes"/>
      <point x="446.26785714285717" y="130.6375"/>
      <point x="404.34464285714284" y="78.25535714285715"/>
    </contour>
    <contour>
      <point x="274.6892857142857" y="354.5732142857143" type="curve"/>
      <point x="274.0267857142857" y="400.13928571428573"/>
      <point x="282.64464285714286" y="533.2035714285714"/>
      <point x="288.0267857142857" y="561.2160714285715" type="curve"/>
      <point x="301.3642857142857" y="561.5982142857143"/>
      <point x="317.1410714285714" y="562.3625"/>
      <point x="330.4785714285714" y="562.3625" type="curve" smooth="yes"/>
      <point x="399.8732142857143" y="562.3625"/>
      <point x="435.3571428571429" y="530.5089285714286"/>
      <point x="435.3571428571429" y="477.1142857142857" type="curve" smooth="yes"/>
      <point x="435.3571428571429" y="444.6303571428571"/>
      <point x="422.6375" y="412.5285714285714"/>
      <point x="396.2553571428571" y="389.71964285714284" type="curve" smooth="yes"/>
      <point x="369.625" y="367.23571428571427"/>
      <point x="332.33214285714286" y="354.5732142857143"/>
    </contour>
  </outline>
</glyph>
<glyph name="C" format="2">
  <advance width="651.5857142857143"/>
  <unicode hex="0043"/>
  <anchor x="375.5160714285714" y="0.0" name="bottom"/>
  <anchor x="414.5160714285714" y="652.0" name="top"/>
  <outline>
    <contour>
      <point x="401.23571428571427" y="-13.0" type="curve" smooth="yes"/>
      <point x="479.2482142857143" y="-13.0"/>
      <point x="526.8464285714285" y="-6.178571428571431"/>
      <point x="579.5410714285714" y="10.630357142857143" type="curve" smooth="yes"/>
      <point x="604.9107142857143" y="18.248214285714283"/>
      <point x="620.8535714285714" y="46.76428571428571"/>
      <point x="620.8535714285714" y="107.6375" type="curve" smooth="yes"/>
      <point x="620.8535714285714" y="120.49107142857143"/>
      <point x="619.2357142857143" y="126.49107142857143"/>
      <point x="611.3821428571429" y="126.49107142857143" type="curve" smooth="yes"/>
      <point x="606.7642857142857" y="126.49107142857143"/>
      <point x="599.7642857142857" y="124.3"/>
      <point x="589.7642857142857" y="120.91785714285714" type="curve" smooth="yes"/>
      <point x="537.35" y="102.3"/>
      <point x="490.6625" y="95.09642857142858"/>
      <point x="429.2553571428571" y="95.09642857142858" type="curve" smooth="yes"/>
      <point x="307.0964285714286" y="95.09642857142858"/>
      <point x="243.95714285714286" y="156.59285714285716"/>
      <point x="243.95714285714286" y="313.5732142857143" type="curve" smooth="yes"/>
      <point x="243.95714285714286" y="496.0125"/>
      <point x="327.9375" y="542.6232142857143"/>
      <point x="417.8410714285714" y="542.6232142857143" type="curve" smooth="yes"/>
      <point x="530.6625" y="542.6232142857143"/>
      <point x="586.1910714285714" y="499.18392857142857"/>
      <point x="603.3821428571429" y="499.18392857142857" type="curve" smooth="yes"/>
      <point x="631.2232142857143" y="499.18392857142857"/>
      <point x="634.6053571428572" y="559.9678571428572"/>
      <point x="634.6053571428572" y="575.7767857142857" type="curve" smooth="yes"/>
      <point x="634.6053571428572" y="596.5285714285715"/>
      <point x="631.7517857142857" y="612.4267857142858"/>
      <point x="609.1339285714286" y="620.8089285714286" type="curve" smooth="yes"/>
      <point x="550.3375" y="642.4267857142858"/>
      <point x="484.5285714285714" y="652.0"/>
      <point x="409.8857142857143" y="652.0" type="curve" smooth="yes"/>
      <point x="191.06428571428572" y="652.0"/>
      <point x="47.86607142857143" y="571.4535714285714"/>
      <point x="47.86607142857143" y="282.06964285714287" type="curve" smooth="yes"/>
      <point x="47.86607142857143" y="62.04464285714286"/>
      <point x="182.75714285714287" y="-13.0"/>
    </contour>
  </outline>
</glyph>
<glyph name="D" format="2">
  <advance width="773.2553571428572"/>
  <unicode hex="0044"/>
  <anchor x="369.8285714285714" y="0.0" name="bottom"/>
  <anchor x="377.4714285714286" y="326.0" name="center"/>
  <anchor x="425.1982142857143" y="652.0" name="top"/>
  <outline>
    <contour>
      <point x="69.6875" y="0.0" type="curve"/>
      <point x="389.2053571428571" y="0.0" type="line" smooth="yes"/>
      <point x="595.8285714285714" y="0.0"/>
      <point x="746.3767857142857" y="94.7125"/>
      <point x="746.3767857142857" y="364.19107142857143" type="curve" smooth="yes"/>
      <point x="746.3767857142857" y="609.4339285714286"/>
      <point x="594.1660714285714" y="639.0"/>
      <point x="429.5678571428572" y="639.0" type="curve" smooth="yes"/>
      <point x="100.025" y="639.0" type="line"/>
      <point x="98.30535714285715" y="437.3696428571429"/>
      <point x="70.26071428571429" y="41.04464285714286"/>
    </contour>
    <contour>
      <point x="352.4982142857143" y="81.49107142857143" type="curve" smooth="yes"/>
      <point x="275.4982142857143" y="81.49107142857143"/>
      <point x="264.3071428571429" y="87.49107142857143"/>
      <point x="264.3071428571429" y="126.49107142857143" type="curve" smooth="yes"/>
      <point x="264.3071428571429" y="314.58035714285717"/>
      <point x="282.4982142857143" y="507.34464285714284"/>
      <point x="286.4089285714286" y="552.3178571428572" type="curve"/>
      <point x="311.3767857142857" y="555.7"/>
      <point x="338.81607142857143" y="557.7"/>
      <point x="383.4785714285714" y="557.7" type="curve" smooth="yes"/>
      <point x="489.49642857142857" y="557.7"/>
      <point x="548.9482142857142" y="503.8339285714286"/>
      <point x="548.9482142857142" y="361.13392857142856" type="curve" smooth="yes"/>
      <point x="548.9482142857142" y="122.19107142857143"/>
      <point x="470.23571428571427" y="81.49107142857143"/>
    </contour>
  </outline>
</glyph>
<glyph name="E" format="2">
  <advance width="553.0"/>
  <unicode hex="0045"/>
  <anchor x="285.4714285714286" y="0.0" name="bottom"/>
  <anchor x="425.4714285714286" y="0.0" name="ogonek"/>
  <anchor x="308.19107142857143" y="652.0" name="top"/>
  <anchor x="28.47142857142857" y="652.0" name="topleft"/>
  <outline>
    <contour>
      <point x="69.6875" y="0.0" type="curve"/>
      <point x="501.4142857142857" y="0.0" type="line" smooth="yes"/>
      <point x="526.2107142857143" y="0.0"/>
      <point x="532.975" y="59.16607142857143"/>
      <point x="532.975" y="77.975" type="curve" smooth="yes"/>
      <point x="532.975" y="100.53571428571428"/>
      <point x="532.975" y="107.34464285714286"/>
      <point x="526.3571428571429" y="107.34464285714286" type="curve" smooth="yes"/>
      <point x="516.9303571428571" y="107.34464285714286"/>
      <point x="448.7517857142857" y="92.81607142857143"/>
      <point x="352.6892857142857" y="92.81607142857143" type="curve" smooth="yes"/>
      <point x="275.6892857142857" y="92.81607142857143"/>
      <point x="264.4982142857143" y="101.24285714285715"/>
      <point x="264.4982142857143" y="133.77142857142857" type="curve" smooth="yes"/>
      <point x="264.4982142857143" y="182.16607142857143"/>
      <point x="268.925" y="257.12142857142857"/>
      <point x="269.8803571428572" y="283.6875" type="curve"/>
      <point x="295.31964285714287" y="283.6875" type="line" smooth="yes"/>
      <point x="386.1660714285714" y="283.6875"/>
      <point x="459.01964285714286" y="278.1142857142857"/>
      <point x="467.0642857142857" y="278.1142857142857" type="curve" smooth="yes"/>
      <point x="475.91785714285714" y="278.1142857142857"/>
      <point x="481.91785714285714" y="315.4839285714286"/>
      <point x="481.91785714285714" y="341.80892857142857" type="curve" smooth="yes"/>
      <point x="481.91785714285714" y="363.5607142857143"/>
      <point x="477.3" y="370.3696428571429"/>
      <point x="463.975" y="370.3696428571429" type="curve" smooth="yes"/>
      <point x="272.6892857142857" y="370.3696428571429" type="line"/>
      <point x="274.0267857142857" y="425.6428571428571"/>
      <point x="281.21785714285716" y="529.35"/>
      <point x="286.6" y="551.5089285714286" type="curve"/>
      <point x="313.74642857142857" y="551.5089285714286" type="line" smooth="yes"/>
      <point x="390.8410714285714" y="551.5089285714286"/>
      <point x="471.1660714285714" y="546.5535714285714"/>
      <point x="479.01964285714286" y="546.5535714285714" type="curve" smooth="yes"/>
      <point x="487.8732142857143" y="546.5535714285714"/>
      <point x="493.8732142857143" y="583.3053571428571"/>
      <point x="493.8732142857143" y="609.6303571428572" type="curve" smooth="yes"/>
      <point x="493.8732142857143" y="631.3821428571429"/>
      <point x="489.44642857142856" y="639.0"/>
      <point x="475.93035714285713" y="639.0" type="curve" smooth="yes"/>
      <point x="100.21607142857142" y="639.0" type="line"/>
      <point x="98.49642857142857" y="437.3696428571429"/>
      <point x="71.21607142857142" y="48.49642857142857"/>
    </contour>
  </outline>
</glyph>
<glyph name="F" format="2">
  <advance width="508.85357142857146"/>
  <unicode hex="0046"/>
  <anchor x="130.47142857142856" y="0.0" name="bottom"/>
  <anchor x="294.4714285714286" y="652.0" name="top"/>
  <outline>
    <contour>
      <point x="218.14107142857142" y="-13.0" type="curve" smooth="yes"/>
      <point x="255.2625" y="-13.0"/>
      <point x="259.6892857142857" y="-5.146428571428571"/>
      <point x="259.6892857142857" y="16.03214285714286" type="curve" smooth="yes"/>
      <point x="259.6892857142857" y="84.79642857142858"/>
      <point x="263.07142857142856" y="182.65535714285716"/>
      <point x="266.6892857142857" y="260.45178571428573" type="curve"/>
      <point x="290.70178571428573" y="260.45178571428573" type="line" smooth="yes"/>
      <point x="381.54821428571427" y="260.45178571428573"/>
      <point x="454.4017857142857" y="255.49642857142857"/>
      <point x="462.2553571428571" y="255.49642857142857" type="curve" smooth="yes"/>
      <point x="471.1089285714286" y="255.49642857142857"/>
      <point x="477.1089285714286" y="291.4392857142857"/>
      <point x="477.1089285714286" y="317.76428571428573" type="curve" smooth="yes"/>
      <point x="477.1089285714286" y="340.325"/>
      <point x="472.6821428571429" y="347.13392857142856"/>
      <point x="459.1660714285714" y="347.13392857142856" type="curve" smooth="yes"/>
      <point x="271.3071428571429" y="347.13392857142856" type="line"/>
      <point x="272.64464285714286" y="382.76964285714286"/>
      <point x="280.8357142857143" y="529.35"/>
      <point x="283.6" y="551.5089285714286" type="curve"/>
      <point x="312.55535714285713" y="551.5089285714286" type="line" smooth="yes"/>
      <point x="389.65" y="551.5089285714286"/>
      <point x="466.54821428571427" y="547.3625"/>
      <point x="474.59285714285716" y="547.3625" type="curve" smooth="yes"/>
      <point x="483.44642857142856" y="547.3625"/>
      <point x="489.44642857142856" y="583.3053571428571"/>
      <point x="489.44642857142856" y="609.6303571428572" type="curve" smooth="yes"/>
      <point x="489.44642857142856" y="631.3821428571429"/>
      <point x="485.01964285714286" y="639.0"/>
      <point x="471.50357142857143" y="639.0" type="curve" smooth="yes"/>
      <point x="95.78928571428571" y="639.0" type="line"/>
      <point x="95.78928571428571" y="509.65535714285716"/>
      <point x="80.98035714285714" y="223.2607142857143"/>
      <point x="75.4517857142857" y="141.3125" type="curve" smooth="yes"/>
      <point x="72.4517857142857" y="94.75178571428572"/>
      <point x="69.6875" y="55.019642857142856"/>
      <point x="69.6875" y="50.401785714285715" type="curve" smooth="yes"/>
      <point x="69.6875" y="6.516071428571429"/>
      <point x="161.975" y="-13.0"/>
    </contour>
  </outline>
</glyph>
<glyph name="G" format="2">
  <advance width="730.1339285714286"/>
  <unicode hex="0047"/>
  <anchor x="366.5160714285714" y="0.0" name="bottom"/>
  <anchor x="400.5160714285714" y="652.0" name="top"/>
  <outline>
    <contour>
      <point x="397.2232142857143" y="-13.0" type="curve" smooth="yes"/>
      <point x="518.975" y="-13.0"/>
      <point x="629.5232142857143" y="9.707142857142857"/>
      <point x="674.5357142857143" y="27.853571428571428" type="curve"/>
      <point x="681.1535714285715" y="151.59285714285716"/>
      <point x="687.9625" y="279.3767857142857"/>
      <point x="691.3446428571428" y="331.12142857142857" type="curve"/>
      <point x="439.76428571428573" y="331.12142857142857" type="line" smooth="yes"/>
      <point x="426.9107142857143" y="331.12142857142857"/>
      <point x="413.4392857142857" y="317.59285714285716"/>
      <point x="413.4392857142857" y="284.2232142857143" type="curve" smooth="yes"/>
      <point x="413.4392857142857" y="263.6625"/>
      <point x="415.6303571428571" y="245.1017857142857"/>
      <point x="423.0571428571429" y="245.1017857142857" type="curve" smooth="yes"/>
      <point x="430.4839285714286" y="245.1017857142857"/>
      <point x="462.38214285714287" y="246.86607142857142"/>
      <point x="512.0053571428572" y="246.86607142857142" type="curve"/>
      <point x="511.6232142857143" y="173.0125"/>
      <point x="506.05" y="112.25535714285715"/>
      <point x="504.8589285714286" y="85.35714285714286" type="curve"/>
      <point x="486.56607142857143" y="83.25535714285715"/>
      <point x="459.82142857142856" y="81.15357142857144"/>
      <point x="429.8285714285714" y="81.15357142857144" type="curve" smooth="yes"/>
      <point x="340.17321428571427" y="81.15357142857144"/>
      <point x="243.95714285714286" y="137.35714285714286"/>
      <point x="243.95714285714286" y="309.29285714285714" type="curve" smooth="yes"/>
      <point x="243.95714285714286" y="470.7"/>
      <point x="314.9946428571429" y="543.0053571428572"/>
      <point x="425.93035714285713" y="543.0053571428572" type="curve" smooth="yes"/>
      <point x="504.3571428571429" y="543.0053571428572"/>
      <point x="563.1785714285714" y="523.9035714285715"/>
      <point x="596.3696428571428" y="510.8017857142857" type="curve" smooth="yes"/>
      <point x="616.5607142857143" y="502.4642857142857"/>
      <point x="628.7964285714286" y="497.65535714285716"/>
      <point x="635.1785714285714" y="497.65535714285716" type="curve" smooth="yes"/>
      <point x="663.2107142857143" y="497.65535714285716"/>
      <point x="666.5928571428572" y="557.4839285714286"/>
      <point x="666.5928571428572" y="575.0571428571428" type="curve" smooth="yes"/>
      <point x="666.5928571428572" y="598.6178571428571"/>
      <point x="660.1660714285714" y="611.7071428571429"/>
      <point x="643.0321428571428" y="618.1339285714286" type="curve" smooth="yes"/>
      <point x="607.4267857142858" y="632.1339285714286"/>
      <point x="514.7767857142857" y="652.0"/>
      <point x="409.8857142857143" y="652.0" type="curve" smooth="yes"/>
      <point x="191.06428571428572" y="652.0"/>
      <point x="47.86607142857143" y="571.4535714285714"/>
      <point x="47.86607142857143" y="282.06964285714287" type="curve" smooth="yes"/>
      <point x="47.86607142857143" y="73.89107142857142"/>
      <point x="170.52857142857144" y="-13.0"/>
    </contour>
  </outline>
</glyph>
<glyph name="H" format="2">
  <advance width="811.0767857142857"/>
  <unicode hex="0048"/>
  <anchor x="384.4714285714286" y="0.0" name="bottom"/>
  <anchor x="404.4714285714286" y="326.0" name="center"/>
  <anchor x="429.4714285714286" y="652.0" name="top"/>
  <anchor x="28.47142857142857" y="652.0" name="topleft"/>
  <outline>
    <contour>
      <point x="218.14107142857142" y="-13.0" type="curve" smooth="yes"/>
      <point x="255.2625" y="-13.0"/>
      <point x="259.6892857142857" y="-5.146428571428571"/>
      <point x="259.6892857142857" y="16.03214285714286" type="curve" smooth="yes"/>
      <point x="259.6892857142857" y="89.20357142857142"/>
      <point x="262.6892857142857" y="179.2160714285714"/>
      <point x="267.2625" y="266.1267857142857" type="curve"/>
      <point x="323.4214285714286" y="271.7446428571429"/>
      <point x="377.9625" y="274.55357142857144"/>
      <point x="430.69464285714287" y="274.55357142857144" type="curve" smooth="yes"/>
      <point x="476.80892857142857" y="274.55357142857144"/>
      <point x="522.1142857142858" y="272.55357142857144"/>
      <point x="563.8017857142858" y="268.7446428571429" type="curve"/>
      <point x="557.2285714285714" y="153.52857142857144"/>
      <point x="551.0821428571428" y="58.019642857142856"/>
      <point x="551.0821428571428" y="50.401785714285715" type="curve" smooth="yes"/>
      <point x="551.0821428571428" y="6.516071428571429"/>
      <point x="643.3696428571428" y="-13.0"/>
      <point x="699.5357142857143" y="-13.0" type="curve" smooth="yes"/>
      <point x="736.6571428571428" y="-13.0"/>
      <point x="741.275" y="-5.146428571428571"/>
      <point x="741.275" y="16.03214285714286" type="curve" smooth="yes"/>
      <point x="741.275" y="221.54642857142858"/>
      <point x="767.3767857142857" y="571.5535714285714"/>
      <point x="767.3767857142857" y="588.7892857142857" type="curve" smooth="yes"/>
      <point x="767.3767857142857" y="632.675"/>
      <point x="674.8982142857143" y="652.0"/>
      <point x="618.7321428571429" y="652.0" type="curve" smooth="yes"/>
      <point x="581.4196428571429" y="652.0"/>
      <point x="577.1839285714286" y="644.3375"/>
      <point x="577.1839285714286" y="623.1589285714285" type="curve" smooth="yes"/>
      <point x="576.9928571428571" y="561.4071428571428"/>
      <point x="573.6107142857143" y="467.1017857142857"/>
      <point x="569.0375" y="374.03214285714284" type="curve"/>
      <point x="272.4982142857143" y="374.03214285714284" type="line"/>
      <point x="279.2625" y="491.2035714285714"/>
      <point x="285.7910714285714" y="580.7892857142857"/>
      <point x="285.7910714285714" y="588.7892857142857" type="curve" smooth="yes"/>
      <point x="285.7910714285714" y="632.675"/>
      <point x="193.50357142857143" y="652.0"/>
      <point x="137.3375" y="652.0" type="curve" smooth="yes"/>
      <point x="100.025" y="652.0"/>
      <point x="95.78928571428571" y="644.3375"/>
      <point x="95.78928571428571" y="623.1589285714285" type="curve" smooth="yes"/>
      <point x="95.21607142857142" y="458.5339285714286"/>
      <point x="69.6875" y="67.25535714285715"/>
      <point x="69.6875" y="50.401785714285715" type="curve" smooth="yes"/>
      <point x="69.6875" y="6.516071428571429"/>
      <point x="161.975" y="-13.0"/>
    </contour>
  </outline>
</glyph>
<glyph name="I" format="2">
  <advance width="333.6821428571429"/>
  <unicode hex="0049"/>
  <anchor x="163.7839285714286" y="0.0" name="bottom"/>
  <anchor x="272.04464285714283" y="10.0" name="ogonek"/>
  <anchor x="201.60535714285714" y="652.0" name="top"/>
  <anchor x="31.044642857142858" y="652.0" name="topleft"/>
  <outline>
    <contour>
      <point x="220.71428571428572" y="-13.0" type="curve" smooth="yes"/>
      <point x="257.8357142857143" y="-13.0"/>
      <point x="262.2625" y="-5.146428571428571"/>
      <point x="262.2625" y="16.03214285714286" type="curve" smooth="yes"/>
      <point x="262.2625" y="221.54642857142858"/>
      <point x="288.3642857142857" y="571.5535714285714"/>
      <point x="288.3642857142857" y="587.9803571428572" type="curve" smooth="yes"/>
      <point x="288.3642857142857" y="632.675"/>
      <point x="196.0767857142857" y="652.0"/>
      <point x="139.91071428571428" y="652.0" type="curve" smooth="yes"/>
      <point x="102.59821428571428" y="652.0"/>
      <point x="98.3625" y="644.3375"/>
      <point x="98.3625" y="623.1589285714285" type="curve" smooth="yes"/>
      <point x="97.78928571428571" y="458.5339285714286"/>
      <point x="72.26071428571429" y="67.25535714285715"/>
      <point x="72.26071428571429" y="50.401785714285715" type="curve" smooth="yes"/>
      <point x="72.26071428571429" y="6.516071428571429"/>
      <point x="164.5482142857143" y="-13.0"/>
    </contour>
  </outline>
</glyph>
<glyph name="J" format="2">
  <advance width="370.92321428571427"/>
  <unicode hex="004A"/>
  <anchor x="165.9482142857143" y="0.0" name="bottom"/>
  <anchor x="245.59821428571428" y="652.0" name="top"/>
  <outline>
    <contour>
      <point x="120.19107142857143" y="-13.0" type="curve" smooth="yes"/>
      <point x="203.4142857142857" y="-13.0"/>
      <point x="263.26785714285717" y="26.426785714285714"/>
      <point x="287.60535714285714" y="100.43928571428572" type="curve" smooth="yes"/>
      <point x="320.4589285714286" y="200.0"/>
      <point x="329.4589285714286" y="510.6428571428571"/>
      <point x="329.4589285714286" y="588.7892857142857" type="curve" smooth="yes"/>
      <point x="329.4589285714286" y="632.675"/>
      <point x="237.17142857142858" y="652.0"/>
      <point x="181.00535714285712" y="652.0" type="curve" smooth="yes"/>
      <point x="143.69285714285712" y="652.0"/>
      <point x="139.45714285714286" y="644.3375"/>
      <point x="139.45714285714286" y="623.1589285714285" type="curve" smooth="yes"/>
      <point x="139.45714285714286" y="382.2375"/>
      <point x="130.35535714285714" y="111.12142857142857"/>
      <point x="105.91607142857143" y="82.78392857142858" type="curve" smooth="yes"/>
      <point x="96.3875" y="71.21071428571429"/>
      <point x="84.85892857142856" y="67.25535714285715"/>
      <point x="69.33035714285714" y="67.25535714285715" type="curve" smooth="yes"/>
      <point x="53.025" y="67.25535714285715"/>
      <point x="37.573214285714286" y="73.26785714285714"/>
      <point x="31.426785714285714" y="73.26785714285714" type="curve" smooth="yes"/>
      <point x="24.80892857142857" y="73.26785714285714"/>
      <point x="20.0" y="57.36964285714286"/>
      <point x="20.0" y="45.56071428571428" type="curve" smooth="yes"/>
      <point x="20.0" y="28.17857142857143"/>
      <point x="25.426785714285714" y="3.382142857142857"/>
      <point x="35.808928571428574" y="-1.0" type="curve"/>
      <point x="53.808928571428574" y="-9.191071428571428"/>
      <point x="89.51607142857142" y="-13.0"/>
    </contour>
  </outline>
</glyph>
<glyph name="K" format="2">
  <advance width="681.1535714285715"/>
  <unicode hex="004B"/>
  <anchor x="294.4714285714286" y="0.0" name="bottom"/>
  <anchor x="338.4714285714286" y="652.0" name="top"/>
  <outline>
    <contour>
      <point x="218.14107142857142" y="-13.0" type="curve" smooth="yes"/>
      <point x="255.2625" y="-13.0"/>
      <point x="259.6892857142857" y="-5.146428571428571"/>
      <point x="259.6892857142857" y="16.03214285714286" type="curve" smooth="yes"/>
      <point x="259.6892857142857" y="92.39464285714286"/>
      <point x="263.07142857142856" y="192.06964285714287"/>
      <point x="267.2625" y="283.6428571428571" type="curve"/>
      <point x="273.4535714285714" y="272.1714285714286"/>
      <point x="295.3964285714286" y="260.7446428571429"/>
      <point x="310.8232142857143" y="254.7892857142857" type="curve" smooth="yes"/>
      <point x="361.12857142857143" y="179.46428571428572"/>
      <point x="428.96785714285716" y="85.17857142857143"/>
      <point x="481.56607142857143" y="9.79642857142857" type="curve" smooth="yes"/>
      <point x="493.4642857142857" y="-10.191071428571428"/>
      <point x="502.3178571428571" y="-13.0"/>
      <point x="521.8339285714286" y="-13.0" type="curve" smooth="yes"/>
      <point x="568.0446428571429" y="-13.0"/>
      <point x="618.0196428571428" y="13.369642857142857"/>
      <point x="653.9053571428572" y="40.16607142857143" type="curve" smooth="yes"/>
      <point x="663.95" y="47.783928571428575"/>
      <point x="671.3767857142857" y="54.401785714285715"/>
      <point x="671.3767857142857" y="60.44642857142857" type="curve" smooth="yes"/>
      <point x="671.3767857142857" y="66.68214285714285"/>
      <point x="669.5678571428572" y="71.72678571428571"/>
      <point x="657.9053571428572" y="87.24285714285715" type="curve" smooth="yes"/>
      <point x="599.3714285714286" y="152.60535714285714"/>
      <point x="477.61428571428576" y="335.01964285714286"/>
      <point x="452.1303571428572" y="373.8732142857143" type="curve"/>
      <point x="518.9267857142858" y="456.5107142857143"/>
      <point x="603.3517857142857" y="541.6303571428572"/>
      <point x="640.8607142857143" y="582.0375" type="curve" smooth="yes"/>
      <point x="650.9053571428572" y="593.7"/>
      <point x="655.3321428571428" y="599.7446428571428"/>
      <point x="655.3321428571428" y="605.1714285714286" type="curve" smooth="yes"/>
      <point x="655.3321428571428" y="620.6875"/>
      <point x="624.1535714285715" y="652.0"/>
      <point x="583.2678571428571" y="652.0" type="curve" smooth="yes"/>
      <point x="556.3696428571428" y="652.0"/>
      <point x="548.3696428571428" y="640.2928571428571"/>
      <point x="533.325" y="623.0125" type="curve" smooth="yes"/>
      <point x="473.1607142857143" y="559.0517857142858"/>
      <point x="329.05892857142857" y="384.07678571428573"/>
      <point x="268.8803571428572" y="313.1017857142857" type="curve"/>
      <point x="276.4535714285714" y="455.5982142857143"/>
      <point x="285.7910714285714" y="578.9803571428572"/>
      <point x="285.7910714285714" y="588.7892857142857" type="curve" smooth="yes"/>
      <point x="285.7910714285714" y="632.675"/>
      <point x="193.50357142857143" y="652.0"/>
      <point x="137.3375" y="652.0" type="curve" smooth="yes"/>
      <point x="100.025" y="652.0"/>
      <point x="95.78928571428571" y="644.3375"/>
      <point x="95.78928571428571" y="623.1589285714285" type="curve" smooth="yes"/>
      <point x="95.21607142857142" y="458.5339285714286"/>
      <point x="69.6875" y="67.25535714285715"/>
      <point x="69.6875" y="50.401785714285715" type="curve" smooth="yes"/>
      <point x="69.6875" y="6.516071428571429"/>
      <point x="161.975" y="-13.0"/>
    </contour>
  </outline>
</glyph>
<glyph name="L" format="2">
  <advance width="500.7964285714286"/>
  <unicode hex="004C"/>
  <anchor x="281.4267857142857" y="0.0" name="bottom"/>
  <anchor x="238.42678571428573" y="326.0" name="center"/>
  <anchor x="245.42678571428573" y="635.8214285714286" name="top"/>
  <anchor x="418.4267857142857" y="524.0" name="topright"/>
  <outline>
    <contour>
      <point x="69.6875" y="0.0" type="curve"/>
      <point x="459.2232142857143" y="0.0" type="line" smooth="yes"/>
      <point x="484.2107142857143" y="0.0"/>
      <point x="491.7839285714286" y="55.121428571428574"/>
      <point x="491.7839285714286" y="73.93035714285715" type="curve" smooth="yes"/>
      <point x="491.7839285714286" y="96.49107142857143"/>
      <point x="491.7839285714286" y="102.49107142857143"/>
      <point x="484.7392857142857" y="102.49107142857143" type="curve" smooth="yes"/>
      <point x="476.26785714285717" y="102.49107142857143"/>
      <point x="415.38928571428573" y="92.81607142857143"/>
      <point x="352.4982142857143" y="92.81607142857143" type="curve" smooth="yes"/>
      <point x="275.4982142857143" y="92.81607142857143"/>
      <point x="264.3071428571429" y="101.24285714285715"/>
      <point x="264.3071428571429" y="133.77142857142857" type="curve" smooth="yes"/>
      <point x="264.3071428571429" y="233.82678571428573"/>
      <point x="288.4089285714286" y="575.5089285714286"/>
      <point x="288.4089285714286" y="588.7892857142857" type="curve" smooth="yes"/>
      <point x="288.4089285714286" y="632.675"/>
      <point x="196.12142857142857" y="652.0"/>
      <point x="139.95535714285714" y="652.0" type="curve" smooth="yes"/>
      <point x="102.83392857142857" y="652.0"/>
      <point x="98.40714285714286" y="644.3375"/>
      <point x="98.40714285714286" y="623.1589285714285" type="curve" smooth="yes"/>
      <point x="97.06964285714285" y="431.23571428571427"/>
      <point x="71.025" y="37.17142857142857"/>
    </contour>
  </outline>
</glyph>
<glyph name="M" format="2">
  <advance width="1009.7392857142858"/>
  <unicode hex="004D"/>
  <anchor x="453.82142857142856" y="0.0" name="bottom"/>
  <anchor x="520.1785714285714" y="652.0" name="top"/>
  <outline>
    <contour>
      <point x="134.57321428571427" y="-13.0" type="curve" smooth="yes"/>
      <point x="149.6625" y="-13.0"/>
      <point x="154.70714285714286" y="-7.573214285714286"/>
      <point x="155.51607142857142" y="2.2803571428571434" type="curve" smooth="yes"/>
      <point x="161.9875" y="65.17857142857143"/>
      <point x="203.36964285714285" y="405.69464285714287"/>
      <point x="219.47142857142856" y="487.5785714285714" type="curve"/>
      <point x="246.29285714285714" y="397.24107142857144"/>
      <point x="322.6232142857143" y="121.86607142857143"/>
      <point x="341.03035714285716" y="48.68214285714286" type="curve" smooth="yes"/>
      <point x="347.45714285714286" y="12.9875"/>
      <point x="416.7" y="-13.0"/>
      <point x="491.5607142857143" y="-13.0" type="curve" smooth="yes"/>
      <point x="523.2553571428572" y="-13.0"/>
      <point x="530.4910714285714" y="-8.0"/>
      <point x="536.5357142857143" y="10.560714285714287" type="curve" smooth="yes"/>
      <point x="586.1464285714286" y="139.31785714285715"/>
      <point x="697.7571428571429" y="365.36785714285713"/>
      <point x="755.9928571428571" y="493.4892857142857" type="curve"/>
      <point x="757.6107142857143" y="438.46964285714284"/>
      <point x="759.9928571428571" y="352.5785714285714"/>
      <point x="759.8017857142858" y="268.86607142857144" type="curve" smooth="yes"/>
      <point x="760.4196428571429" y="172.96785714285716"/>
      <point x="759.6553571428572" y="83.0"/>
      <point x="759.6553571428572" y="52.019642857142856" type="curve" smooth="yes"/>
      <point x="759.6553571428572" y="8.942857142857143"/>
      <point x="846.0892857142857" y="-13.0"/>
      <point x="909.9625" y="-13.0" type="curve" smooth="yes"/>
      <point x="940.6125" y="-13.0"/>
      <point x="952.3196428571429" y="-7.573214285714286"/>
      <point x="952.3196428571429" y="11.560714285714287" type="curve" smooth="yes"/>
      <point x="952.3196428571429" y="74.90892857142856"/>
      <point x="937.1857142857143" y="498.55535714285713"/>
      <point x="936.8035714285714" y="587.7892857142857" type="curve" smooth="yes"/>
      <point x="936.8035714285714" y="632.8660714285714"/>
      <point x="828.0" y="652.0"/>
      <point x="764.1267857142857" y="652.0" type="curve" smooth="yes"/>
      <point x="730.8589285714286" y="652.0"/>
      <point x="719.9607142857143" y="648.5732142857142"/>
      <point x="715.1517857142857" y="635.9107142857143" type="curve" smooth="yes"/>
      <point x="689.3303571428571" y="569.4267857142858"/>
      <point x="545.9357142857143" y="269.28035714285716"/>
      <point x="499.17857142857144" y="179.54285714285714" type="curve"/>
      <point x="473.49107142857144" y="253.2875"/>
      <point x="404.70178571428573" y="505.2875"/>
      <point x="379.42857142857144" y="589.9803571428572" type="curve" smooth="yes"/>
      <point x="369.38392857142856" y="631.0571428571428"/>
      <point x="269.9625" y="652.0"/>
      <point x="195.47142857142856" y="652.0" type="curve" smooth="yes"/>
      <point x="149.6875" y="652.0"/>
      <point x="146.06964285714287" y="648.3821428571429"/>
      <point x="142.64285714285714" y="621.6303571428572" type="curve" smooth="yes"/>
      <point x="133.5857142857143" y="543.0589285714286"/>
      <point x="56.025" y="95.18571428571428"/>
      <point x="56.025" y="50.401785714285715" type="curve" smooth="yes"/>
      <point x="56.025" y="6.516071428571429"/>
      <point x="104.86607142857143" y="-13.0"/>
    </contour>
  </outline>
</glyph>
<glyph name="N" format="2">
  <advance width="765.0178571428571"/>
  <unicode hex="004E"/>
  <anchor x="378.3625" y="0.0" name="bottom"/>
  <anchor x="420.45178571428573" y="642.7642857142857" name="top"/>
  <outline>
    <contour>
      <point x="153.28035714285716" y="-13.0" type="curve" smooth="yes"/>
      <point x="173.4142857142857" y="-13.0"/>
      <point x="176.22321428571428" y="-5.3375"/>
      <point x="176.22321428571428" y="16.414285714285715" type="curve" smooth="yes"/>
      <point x="176.22321428571428" y="121.17142857142858"/>
      <point x="185.51607142857142" y="360.3732142857143"/>
      <point x="188.94285714285715" y="399.59642857142853" type="curve"/>
      <point x="228.65" y="357.0232142857143"/>
      <point x="534.9232142857143" y="29.973214285714278"/>
      <point x="562.75" y="-0.19107142857142856" type="curve" smooth="yes"/>
      <point x="569.3678571428571" y="-8.426785714285714"/>
      <point x="578.6035714285714" y="-13.0"/>
      <point x="587.4571428571428" y="-13.0" type="curve" smooth="yes"/>
      <point x="614.6803571428571" y="-13.0"/>
      <point x="697.025" y="44.783928571428575"/>
      <point x="697.025" y="73.19821428571429" type="curve" smooth="yes"/>
      <point x="697.025" y="151.4142857142857"/>
      <point x="721.3178571428572" y="558.8017857142858"/>
      <point x="721.3178571428572" y="588.7892857142857" type="curve" smooth="yes"/>
      <point x="721.3178571428572" y="632.675"/>
      <point x="670.2410714285714" y="652.0"/>
      <point x="638.3428571428572" y="652.0" type="curve" smooth="yes"/>
      <point x="617.2089285714286" y="652.0"/>
      <point x="614.5910714285715" y="644.5285714285715"/>
      <point x="614.5910714285715" y="622.5857142857143" type="curve" smooth="yes"/>
      <point x="614.5910714285715" y="481.71607142857147"/>
      <point x="605.1071428571429" y="275.95178571428573"/>
      <point x="601.6803571428571" y="241.2125" type="curve"/>
      <point x="552.8017857142858" y="287.09107142857147"/>
      <point x="244.61785714285713" y="618.1982142857142"/>
      <point x="228.25535714285715" y="639.3821428571429" type="curve" smooth="yes"/>
      <point x="221.82857142857142" y="647.6178571428571"/>
      <point x="212.40178571428572" y="652.0"/>
      <point x="203.5482142857143" y="652.0" type="curve" smooth="yes"/>
      <point x="175.75178571428572" y="652.0"/>
      <point x="93.98035714285714" y="594.4071428571428"/>
      <point x="93.98035714285714" y="565.9928571428571" type="curve" smooth="yes"/>
      <point x="93.98035714285714" y="487.7767857142857"/>
      <point x="69.6875" y="80.19821428571429"/>
      <point x="69.6875" y="50.401785714285715" type="curve" smooth="yes"/>
      <point x="69.6875" y="6.516071428571429"/>
      <point x="120.57321428571429" y="-13.0"/>
    </contour>
  </outline>
</glyph>
<glyph name="O" format="2">
  <advance width="760.325"/>
  <unicode hex="004F"/>
  <anchor x="372.8982142857143" y="0.0" name="bottom"/>
  <anchor x="389.8982142857143" y="326.0" name="center"/>
  <anchor x="440.8982142857143" y="10.0" name="ogonek"/>
  <anchor x="406.8982142857143" y="652.0" name="top"/>
  <anchor x="52.89821428571429" y="652.0" name="topleft"/>
  <anchor x="586.8857142857142" y="606.8535714285714" name="topright"/>
  <outline>
    <contour>
      <point x="369.14642857142854" y="-13.0" type="curve" smooth="yes"/>
      <point x="583.5285714285715" y="-13.0"/>
      <point x="728.6375" y="62.005357142857136"/>
      <point x="728.6375" y="361.9428571428571" type="curve" smooth="yes"/>
      <point x="728.6375" y="614.5553571428571"/>
      <point x="581.3946428571428" y="652.0"/>
      <point x="413.54821428571427" y="652.0" type="curve" smooth="yes"/>
      <point x="198.35714285714286" y="652.0"/>
      <point x="53.24821428571428" y="577.1857142857143"/>
      <point x="53.24821428571428" y="278.0571428571429" type="curve" smooth="yes"/>
      <point x="53.24821428571428" y="25.444642857142853"/>
      <point x="200.49107142857144" y="-13.0"/>
    </contour>
    <contour>
      <point x="407.3571428571429" y="59.59285714285714" type="curve" smooth="yes"/>
      <point x="305.1607142857143" y="59.59285714285714"/>
      <point x="249.33928571428572" y="126.91071428571428"/>
      <point x="249.33928571428572" y="281.86607142857144" type="curve" smooth="yes"/>
      <point x="249.33928571428572" y="417.05"/>
      <point x="278.3767857142857" y="586.6875"/>
      <point x="374.5285714285714" y="586.6875" type="curve" smooth="yes"/>
      <point x="476.725" y="586.6875"/>
      <point x="532.5464285714286" y="518.7517857142857"/>
      <point x="532.5464285714286" y="365.4142857142857" type="curve" smooth="yes"/>
      <point x="532.5464285714286" y="228.42142857142858"/>
      <point x="504.3178571428571" y="59.59285714285714"/>
    </contour>
  </outline>
</glyph>
<glyph name="P" format="2">
  <advance width="639.5875"/>
  <unicode hex="0050"/>
  <anchor x="263.4714285714286" y="0.0" name="bottom"/>
  <anchor x="297.4714285714286" y="652.0" name="top"/>
  <outline>
    <contour>
      <point x="218.14107142857142" y="-13.0" type="curve" smooth="yes"/>
      <point x="255.2625" y="-13.0"/>
      <point x="258.8803571428572" y="-5.146428571428571"/>
      <point x="258.8803571428572" y="16.03214285714286" type="curve" smooth="yes"/>
      <point x="258.8803571428572" y="80.3375"/>
      <point x="261.6892857142857" y="157.82142857142856"/>
      <point x="264.8803571428572" y="234.82142857142856" type="curve"/>
      <point x="270.07142857142856" y="227.20357142857142"/>
      <point x="293.5875" y="211.64285714285714"/>
      <point x="316.64464285714286" y="211.64285714285714" type="curve" smooth="yes"/>
      <point x="509.7660714285714" y="211.64285714285714"/>
      <point x="636.3714285714286" y="323.96785714285716"/>
      <point x="636.3714285714286" y="461.1017857142857" type="curve" smooth="yes"/>
      <point x="636.3714285714286" y="571.7642857142857"/>
      <point x="566.4160714285714" y="639.0"/>
      <point x="420.0785714285714" y="639.0" type="curve" smooth="yes"/>
      <point x="95.78928571428571" y="639.0" type="line"/>
      <point x="95.025" y="444.5339285714286"/>
      <point x="69.6875" y="67.25535714285715"/>
      <point x="69.6875" y="50.401785714285715" type="curve" smooth="yes"/>
      <point x="69.6875" y="6.516071428571429"/>
      <point x="161.975" y="-13.0"/>
    </contour>
    <contour>
      <point x="265.8803571428572" y="272.95535714285717" type="curve"/>
      <point x="267.6" y="314.7053571428571"/>
      <point x="282.21785714285716" y="542.3375"/>
      <point x="283.6" y="561.2160714285715" type="curve"/>
      <point x="294.12857142857143" y="561.5982142857143"/>
      <point x="304.4660714285714" y="562.3625"/>
      <point x="324.1857142857143" y="562.3625" type="curve" smooth="yes"/>
      <point x="406.9428571428571" y="562.3625"/>
      <point x="441.28035714285716" y="505.8339285714286"/>
      <point x="441.28035714285716" y="440.82142857142856" type="curve" smooth="yes"/>
      <point x="441.28035714285716" y="392.1017857142857"/>
      <point x="424.9428571428571" y="346.2482142857143"/>
      <point x="391.325" y="314.82142857142856" type="curve" smooth="yes"/>
      <point x="349.4017857142857" y="276.4714285714286"/>
      <point x="299.55535714285713" y="271.4267857142857"/>
    </contour>
  </outline>
</glyph>
<glyph name="Q" format="2">
  <advance width="760.325"/>
  <unicode hex="0051"/>
  <outline>
    <contour>
      <point x="636.1964285714286" y="-139.1982142857143" type="curve" smooth="yes"/>
      <point x="692.1714285714286" y="-139.1982142857143"/>
      <point x="755.9428571428572" y="-65.08928571428572"/>
      <point x="755.9428571428572" y="-19.35" type="curve" smooth="yes"/>
      <point x="755.9428571428572" y="-10.6875"/>
      <point x="753.325" y="-8.305357142857144"/>
      <point x="745.5160714285714" y="-6.6875" type="curve" smooth="yes"/>
      <point x="696.8285714285714" y="-0.21607142857142492"/>
      <point x="614.2428571428571" y="25.255357142857143"/>
      <point x="569.4410714285714" y="42.3" type="curve"/>
      <point x="657.625" y="81.77142857142857"/>
      <point x="728.6375" y="189.45892857142857"/>
      <point x="728.6375" y="361.9428571428571" type="curve" smooth="yes"/>
      <point x="728.6375" y="614.5553571428571"/>
      <point x="581.3946428571428" y="652.0"/>
      <point x="413.54821428571427" y="652.0" type="curve" smooth="yes"/>
      <point x="198.35714285714286" y="652.0"/>
      <point x="53.24821428571428" y="577.1857142857143"/>
      <point x="53.24821428571428" y="278.0571428571429" type="curve" smooth="yes"/>
      <point x="53.24821428571428" y="113.11428571428571"/>
      <point x="126.3375" y="32.61785714285714"/>
      <point x="262.1589285714286" y="-0.7642857142857142" type="curve" smooth="yes"/>
      <point x="311.0625" y="-12.20357142857143"/>
      <point x="522.9928571428571" y="-111.06428571428572"/>
      <point x="585.5785714285714" y="-128.53571428571428" type="curve" smooth="yes"/>
      <point x="605.9160714285714" y="-133.9625"/>
      <point x="619.1071428571429" y="-139.1982142857143"/>
    </contour>
    <contour>
      <point x="407.3571428571429" y="45.03214285714286" type="curve" smooth="yes"/>
      <point x="305.1607142857143" y="45.03214285714286"/>
      <point x="249.33928571428572" y="113.96785714285714"/>
      <point x="249.33928571428572" y="273.7767857142857" type="curve" smooth="yes"/>
      <point x="249.33928571428572" y="412.19642857142856"/>
      <point x="278.3767857142857" y="586.6875"/>
      <point x="374.5285714285714" y="586.6875" type="curve" smooth="yes"/>
      <point x="476.725" y="586.6875"/>
      <point x="532.5464285714286" y="517.1339285714286"/>
      <point x="532.5464285714286" y="359.7517857142857" type="curve" smooth="yes"/>
      <point x="532.5464285714286" y="218.71428571428572"/>
      <point x="504.3178571428571" y="45.03214285714286"/>
    </contour>
  </outline>
</glyph>
<glyph name="R" format="2">
  <advance width="668.7339285714286"/>
  <unicode hex="0052"/>
  <anchor x="333.00714285714287" y="0.0" name="bottom"/>
  <anchor x="367.00714285714287" y="652.0" name="top"/>
  <outline>
    <contour>
      <point x="218.14107142857142" y="-13.0" type="curve" smooth="yes"/>
      <point x="255.2625" y="-13.0"/>
      <point x="259.6892857142857" y="-5.146428571428571"/>
      <point x="259.6892857142857" y="16.03214285714286" type="curve" smooth="yes"/>
      <point x="259.6892857142857" y="92.58571428571429"/>
      <point x="263.4982142857143" y="179.17142857142858"/>
      <point x="267.8803571428572" y="269.7892857142857" type="curve"/>
      <point x="277.3071428571429" y="259.1714285714286"/>
      <point x="301.96964285714284" y="249.89107142857142"/>
      <point x="310.7785714285714" y="249.31785714285715" type="curve"/>
      <point x="368.05892857142857" y="149.45714285714286"/>
      <point x="436.7714285714286" y="43.29821428571428"/>
      <point x="466.92321428571427" y="7.191071428571428" type="curve" smooth="yes"/>
      <point x="478.73214285714283" y="-8.853571428571428"/>
      <point x="490.35" y="-13.0"/>
      <point x="512.4839285714286" y="-13.0" type="curve" smooth="yes"/>
      <point x="557.7964285714286" y="-13.0"/>
      <point x="656.6" y="31.267857142857142"/>
      <point x="656.6" y="56.06428571428572" type="curve" smooth="yes"/>
      <point x="656.6" y="63.917857142857144"/>
      <point x="652.3642857142858" y="68.72678571428571"/>
      <point x="639.7017857142857" y="89.2875" type="curve" smooth="yes"/>
      <point x="612.3767857142857" y="133.8357142857143"/>
      <point x="517.5696428571429" y="270.8982142857143"/>
      <point x="498.02857142857147" y="299.5285714285714" type="curve"/>
      <point x="571.4482142857144" y="324.5160714285714"/>
      <point x="635.0785714285714" y="396.4839285714286"/>
      <point x="635.0785714285714" y="480.4839285714286" type="curve" smooth="yes"/>
      <point x="635.0785714285714" y="591.0767857142857"/>
      <point x="566.3714285714286" y="639.0"/>
      <point x="422.75357142857143" y="639.0" type="curve" smooth="yes"/>
      <point x="96.3625" y="639.0" type="line"/>
      <point x="95.21607142857142" y="445.68035714285713"/>
      <point x="69.6875" y="67.25535714285715"/>
      <point x="69.6875" y="50.401785714285715" type="curve" smooth="yes"/>
      <point x="69.6875" y="6.516071428571429"/>
      <point x="161.975" y="-13.0"/>
    </contour>
    <contour>
      <point x="269.07142857142856" y="309.1589285714286" type="curve"/>
      <point x="271.4089285714286" y="351.5267857142857"/>
      <point x="282.4089285714286" y="529.8785714285714"/>
      <point x="284.7910714285714" y="561.4071428571428" type="curve"/>
      <point x="297.55535714285713" y="561.9803571428572"/>
      <point x="309.31964285714287" y="562.3625"/>
      <point x="323.80357142857144" y="562.3625" type="curve" smooth="yes"/>
      <point x="404.2232142857143" y="562.3625"/>
      <point x="439.9875" y="514.3625"/>
      <point x="439.9875" y="456.5410714285714" type="curve" smooth="yes"/>
      <point x="439.9875" y="416.5410714285714"/>
      <point x="426.4142857142857" y="380.2607142857143"/>
      <point x="398.3696428571429" y="352.40714285714284" type="curve" smooth="yes"/>
      <point x="358.12142857142857" y="312.73214285714283"/>
      <point x="299.7142857142857" y="307.82142857142856"/>
    </contour>
  </outline>
</glyph>
<glyph name="S" format="2">
  <advance width="562.9178571428572"/>
  <unicode hex="0053"/>
  <anchor x="262.12142857142857" y="0.0" name="bottom"/>
  <anchor x="303.4714285714286" y="652.0" name="top"/>
  <outline>
    <contour>
      <point x="272.7392857142857" y="-13.0" type="curve" smooth="yes"/>
      <point x="393.7142857142857" y="-13.0"/>
      <point x="505.3767857142857" y="67.89821428571429"/>
      <point x="505.3767857142857" y="195.22321428571428" type="curve" smooth="yes"/>
      <point x="505.3767857142857" y="235.79642857142858"/>
      <point x="497.0839285714286" y="278.50357142857143"/>
      <point x="459.4214285714286" y="317.59285714285716" type="curve" smooth="yes"/>
      <point x="405.58035714285717" y="373.6696428571429"/>
      <point x="320.75892857142856" y="411.4017857142857"/>
      <point x="283.5232142857143" y="446.2107142857143" type="curve" smooth="yes"/>
      <point x="267.8928571428571" y="461.03214285714284"/>
      <point x="260.9821428571429" y="473.61785714285713"/>
      <point x="260.9821428571429" y="493.0125" type="curve" smooth="yes"/>
      <point x="260.9821428571429" y="533.6107142857143"/>
      <point x="294.33214285714286" y="542.6232142857143"/>
      <point x="325.4785714285714" y="542.6232142857143" type="curve" smooth="yes"/>
      <point x="384.91785714285714" y="542.6232142857143"/>
      <point x="426.5357142857143" y="519.8017857142858"/>
      <point x="455.38928571428573" y="503.08214285714286" type="curve" smooth="yes"/>
      <point x="467.38928571428573" y="495.9357142857143"/>
      <point x="478.43392857142857" y="491.7892857142857"/>
      <point x="487.6696428571429" y="491.7892857142857" type="curve" smooth="yes"/>
      <point x="501.7142857142857" y="491.7892857142857"/>
      <point x="509.95" y="517.3053571428571"/>
      <point x="509.95" y="555.0125" type="curve" smooth="yes"/>
      <point x="509.95" y="576.3821428571429"/>
      <point x="506.33214285714286" y="591.0446428571429"/>
      <point x="485.7714285714286" y="605.1339285714286" type="curve" smooth="yes"/>
      <point x="434.4017857142857" y="642.5160714285714"/>
      <point x="360.8410714285714" y="652.0"/>
      <point x="299.325" y="652.0" type="curve" smooth="yes"/>
      <point x="163.0" y="652.0"/>
      <point x="78.21607142857142" y="561.7196428571428"/>
      <point x="78.21607142857142" y="446.55357142857144" type="curve" smooth="yes"/>
      <point x="78.21607142857142" y="400.025"/>
      <point x="91.50892857142857" y="352.50892857142856"/>
      <point x="140.49642857142857" y="307.13928571428573" type="curve" smooth="yes"/>
      <point x="186.6875" y="264.75714285714287"/>
      <point x="257.2732142857143" y="233.98035714285714"/>
      <point x="295.3178571428571" y="195.3625" type="curve" smooth="yes"/>
      <point x="312.8464285714286" y="177.4517857142857"/>
      <point x="319.9482142857143" y="162.20357142857142"/>
      <point x="319.9482142857143" y="145.04464285714286" type="curve" smooth="yes"/>
      <point x="319.9482142857143" y="111.9625"/>
      <point x="284.5857142857143" y="96.14107142857144"/>
      <point x="245.39464285714286" y="96.14107142857144" type="curve" smooth="yes"/>
      <point x="193.19107142857143" y="96.14107142857144"/>
      <point x="145.2357142857143" y="117.19821428571429"/>
      <point x="119.28035714285714" y="131.06428571428572" type="curve" smooth="yes"/>
      <point x="98.85357142857143" y="141.40178571428572"/>
      <point x="84.38214285714285" y="147.7392857142857"/>
      <point x="75.52857142857142" y="147.7392857142857" type="curve" smooth="yes"/>
      <point x="60.48392857142857" y="147.7392857142857"/>
      <point x="51.63035714285714" y="117.44642857142857"/>
      <point x="51.63035714285714" y="83.36964285714285" type="curve" smooth="yes"/>
      <point x="51.63035714285714" y="58.95535714285714"/>
      <point x="55.86607142857143" y="43.10178571428571"/>
      <point x="87.13392857142857" y="27.20357142857143" type="curve" smooth="yes"/>
      <point x="133.50357142857143" y="2.057142857142857"/>
      <point x="187.3125" y="-13.0"/>
    </contour>
  </outline>
</glyph>
<glyph name="T" format="2">
  <advance width="538.325"/>
  <unicode hex="0054"/>
  <anchor x="259.70714285714286" y="0.0" name="bottom"/>
  <anchor x="282.71964285714284" y="326.0" name="center"/>
  <anchor x="299.9428571428571" y="652.0" name="top"/>
  <outline>
    <contour>
      <point x="320.7267857142857" y="-13.0" type="curve" smooth="yes"/>
      <point x="358.0392857142857" y="-13.0"/>
      <point x="362.4660714285714" y="-5.146428571428571"/>
      <point x="362.4660714285714" y="16.03214285714286" type="curve" smooth="yes"/>
      <point x="362.4660714285714" y="177.44464285714287"/>
      <point x="377.9946428571429" y="422.5910714285714"/>
      <point x="385.1857142857143" y="529.6678571428572" type="curve"/>
      <point x="388.75892857142856" y="529.6678571428572" type="line"/>
      <point x="424.49642857142857" y="529.6678571428572"/>
      <point x="527.7517857142857" y="520.8589285714286"/>
      <point x="536.9428571428572" y="520.8589285714286" type="curve" smooth="yes"/>
      <point x="546.9428571428572" y="520.8589285714286"/>
      <point x="552.7517857142857" y="577.0696428571429"/>
      <point x="552.7517857142857" y="604.9232142857143" type="curve" smooth="yes"/>
      <point x="552.7517857142857" y="626.675"/>
      <point x="549.1339285714286" y="639.0"/>
      <point x="535.2357142857143" y="639.0" type="curve" smooth="yes"/>
      <point x="53.85357142857143" y="639.0" type="line" smooth="yes"/>
      <point x="40.61785714285714" y="639.0"/>
      <point x="29.146428571428572" y="606.2482142857143"/>
      <point x="29.146428571428572" y="558.9803571428572" type="curve" smooth="yes"/>
      <point x="29.146428571428572" y="538.2285714285714"/>
      <point x="32.95535714285714" y="520.8589285714286"/>
      <point x="40.38214285714286" y="520.8589285714286" type="curve" smooth="yes"/>
      <point x="49.76428571428571" y="520.8589285714286"/>
      <point x="141.2107142857143" y="529.6678571428572"/>
      <point x="191.99285714285713" y="529.6678571428572" type="curve"/>
      <point x="196.375" y="529.6678571428572" type="line"/>
      <point x="191.375" y="332.92321428571427"/>
      <point x="172.46428571428572" y="64.44642857142857"/>
      <point x="172.46428571428572" y="50.401785714285715" type="curve" smooth="yes"/>
      <point x="172.46428571428572" y="6.516071428571429"/>
      <point x="264.7517857142857" y="-13.0"/>
    </contour>
  </outline>
</glyph>
<glyph name="U" format="2">
  <advance width="701.5285714285715"/>
  <unicode hex="0055"/>
  <anchor x="369.03214285714284" y="0.0" name="bottom"/>
  <anchor x="572.6714285714286" y="8.089285714285715" name="ogonek"/>
  <anchor x="403.4142857142857" y="652.0" name="top"/>
  <anchor x="653.7964285714286" y="608.0" name="topright"/>
  <outline>
    <contour>
      <point x="346.4714285714286" y="-13.0" type="curve" smooth="yes"/>
      <point x="446.8857142857143" y="-13.0"/>
      <point x="520.2107142857143" y="11.6625"/>
      <point x="572.6821428571428" y="60.94285714285714" type="curve" smooth="yes"/>
      <point x="668.4910714285714" y="151.17857142857144"/>
      <point x="697.4910714285714" y="325.0892857142857"/>
      <point x="697.4910714285714" y="588.7892857142857" type="curve" smooth="yes"/>
      <point x="697.4910714285714" y="632.675"/>
      <point x="639.8982142857143" y="652.0"/>
      <point x="604.3375" y="652.0" type="curve" smooth="yes"/>
      <point x="580.7767857142857" y="652.0"/>
      <point x="578.1589285714285" y="644.3375"/>
      <point x="578.1589285714285" y="623.1589285714285" type="curve" smooth="yes"/>
      <point x="578.1589285714285" y="333.44642857142856"/>
      <point x="551.6303571428572" y="190.10892857142858"/>
      <point x="505.04464285714283" y="132.3892857142857" type="curve" smooth="yes"/>
      <point x="480.5607142857143" y="102.43392857142857"/>
      <point x="441.975" y="85.24285714285715"/>
      <point x="408.34464285714284" y="85.24285714285715" type="curve" smooth="yes"/>
      <point x="367.5678571428572" y="85.24285714285715"/>
      <point x="329.55535714285713" y="98.625"/>
      <point x="304.8803571428572" y="133.3892857142857" type="curve" smooth="yes"/>
      <point x="275.63214285714287" y="174.34464285714284"/>
      <point x="266.9125" y="254.06428571428572"/>
      <point x="266.9125" y="339.3571428571429" type="curve" smooth="yes"/>
      <point x="266.9125" y="418.28035714285716"/>
      <point x="282.48571428571427" y="572.8214285714286"/>
      <point x="282.48571428571427" y="588.7892857142857" type="curve" smooth="yes"/>
      <point x="282.48571428571427" y="632.675"/>
      <point x="190.1982142857143" y="652.0"/>
      <point x="134.03214285714284" y="652.0" type="curve" smooth="yes"/>
      <point x="96.71964285714286" y="652.0"/>
      <point x="94.91071428571428" y="644.3375"/>
      <point x="92.48392857142858" y="623.1589285714285" type="curve" smooth="yes"/>
      <point x="91.675" y="613.1589285714285"/>
      <point x="76.48392857142858" y="448.71964285714284"/>
      <point x="74.86607142857143" y="298.0" type="curve" smooth="yes"/>
      <point x="74.05714285714285" y="195.0"/>
      <point x="87.24821428571428" y="104.80892857142857"/>
      <point x="141.29285714285714" y="54.61785714285714" type="curve" smooth="yes"/>
      <point x="188.14642857142857" y="11.617857142857144"/>
      <point x="266.19107142857143" y="-13.0"/>
    </contour>
  </outline>
</glyph>
<glyph name="V" format="2">
  <advance width="624.4714285714285"/>
  <unicode hex="0056"/>
  <anchor x="297.7964285714286" y="0.0" name="bottom"/>
  <anchor x="366.12142857142857" y="652.0" name="top"/>
  <outline>
    <contour>
      <point x="338.91785714285714" y="-13.0" type="curve" smooth="yes"/>
      <point x="368.75892857142856" y="-13.0"/>
      <point x="376.4214285714286" y="-6.955357142857142"/>
      <point x="381.8482142857143" y="5.324999999999999" type="curve" smooth="yes"/>
      <point x="409.49107142857144" y="68.17142857142858"/>
      <point x="545.7892857142857" y="371.1375"/>
      <point x="628.2232142857143" y="553.9482142857142" type="curve" smooth="yes"/>
      <point x="635.0767857142857" y="568.4642857142857"/>
      <point x="639.6946428571429" y="579.3178571428572"/>
      <point x="639.6946428571429" y="587.9803571428572" type="curve" smooth="yes"/>
      <point x="639.6946428571429" y="632.1017857142857"/>
      <point x="593.2357142857143" y="652.0"/>
      <point x="563.3375" y="652.0" type="curve" smooth="yes"/>
      <point x="552.675" y="652.0"/>
      <point x="547.2482142857143" y="649.3821428571429"/>
      <point x="544.4392857142857" y="641.5732142857142" type="curve" smooth="yes"/>
      <point x="506.1589285714286" y="535.0571428571428"/>
      <point x="384.24285714285713" y="239.10357142857143"/>
      <point x="341.7714285714286" y="161.88035714285715" type="curve"/>
      <point x="319.75892857142856" y="229.4660714285714"/>
      <point x="258.98928571428576" y="554.1714285714286"/>
      <point x="254.26964285714286" y="588.3625" type="curve" smooth="yes"/>
      <point x="250.4607142857143" y="627.2928571428571"/>
      <point x="162.65714285714284" y="652.0"/>
      <point x="84.01964285714286" y="652.0" type="curve" smooth="yes"/>
      <point x="51.36964285714286" y="652.0"/>
      <point x="39.04464285714286" y="646.7642857142857"/>
      <point x="39.04464285714286" y="634.4839285714286" type="curve" smooth="yes"/>
      <point x="39.04464285714286" y="628.8660714285714"/>
      <point x="41.6625" y="622.0125"/>
      <point x="44.6625" y="611.3946428571428" type="curve" smooth="yes"/>
      <point x="52.24821428571428" y="584.9178571428572"/>
      <point x="147.3875" y="205.61964285714285"/>
      <point x="178.66785714285714" y="54.535714285714285" type="curve" smooth="yes"/>
      <point x="187.33035714285714" y="11.560714285714287"/>
      <point x="260.71964285714284" y="-13.0"/>
    </contour>
  </outline>
</glyph>
<glyph name="W" format="2">
  <advance width="1005.7267857142857"/>
  <unicode hex="0057"/>
  <anchor x="493.2232142857143" y="0.0" name="bottom"/>
  <anchor x="567.6696428571429" y="652.0" name="top"/>
  <outline>
    <contour>
      <point x="282.8928571428571" y="-13.0" type="curve" smooth="yes"/>
      <point x="310.3071428571429" y="-13.0"/>
      <point x="316.54285714285714" y="-9.573214285714286"/>
      <point x="322.96964285714284" y="8.133928571428571" type="curve" smooth="yes"/>
      <point x="339.25" y="54.44642857142857"/>
      <point x="465.8482142857143" y="334.5285714285714"/>
      <point x="517.4017857142857" y="446.45714285714286" type="curve"/>
      <point x="545.7964285714286" y="352.05"/>
      <point x="618.4767857142857" y="105.81607142857143"/>
      <point x="631.0946428571428" y="49.82857142857143" type="curve" smooth="yes"/>
      <point x="639.9482142857142" y="10.560714285714287"/>
      <point x="723.3821428571429" y="-13.0"/>
      <point x="788.1660714285714" y="-13.0" type="curve" smooth="yes"/>
      <point x="815.9625" y="-13.0"/>
      <point x="841.6125" y="-8.382142857142856"/>
      <point x="845.8482142857143" y="12.707142857142857" type="curve" smooth="yes"/>
      <point x="871.0714285714286" y="132.5107142857143"/>
      <point x="1009.0392857142857" y="548.8589285714286"/>
      <point x="1009.0392857142857" y="588.7892857142857" type="curve" smooth="yes"/>
      <point x="1009.0392857142857" y="632.675"/>
      <point x="960.1982142857142" y="652.0"/>
      <point x="929.6821428571428" y="652.0" type="curve" smooth="yes"/>
      <point x="917.6375" y="652.0"/>
      <point x="910.3571428571429" y="650.0"/>
      <point x="908.7392857142858" y="629.6303571428572" type="curve" smooth="yes"/>
      <point x="904.6946428571429" y="571.5857142857143"/>
      <point x="809.8857142857142" y="250.42678571428573"/>
      <point x="786.9625" y="169.30714285714288" type="curve"/>
      <point x="756.8928571428571" y="265.1857142857143"/>
      <point x="689.1928571428572" y="516.5160714285714"/>
      <point x="669.9767857142857" y="596.1714285714286" type="curve" smooth="yes"/>
      <point x="664.3589285714286" y="629.4392857142857"/>
      <point x="593.1160714285714" y="652.0"/>
      <point x="530.3892857142857" y="652.0" type="curve" smooth="yes"/>
      <point x="504.3571428571429" y="652.0"/>
      <point x="497.12142857142857" y="649.4267857142858"/>
      <point x="490.4589285714286" y="630.2482142857143" type="curve" smooth="yes"/>
      <point x="458.24285714285713" y="540.7142857142858"/>
      <point x="321.7964285714286" y="223.64285714285714"/>
      <point x="296.4535714285714" y="170.11607142857144" type="curve"/>
      <point x="268.2625" y="343.94464285714287"/>
      <point x="244.53035714285716" y="550.5214285714286"/>
      <point x="242.91250000000002" y="583.1267857142857" type="curve" smooth="yes"/>
      <point x="240.4857142857143" y="625.3946428571428"/>
      <point x="145.3892857142857" y="652.0"/>
      <point x="89.79642857142858" y="652.0" type="curve" smooth="yes"/>
      <point x="62.191071428571426" y="652.0"/>
      <point x="43.82142857142857" y="648.3821428571429"/>
      <point x="43.82142857142857" y="634.7196428571428" type="curve" smooth="yes"/>
      <point x="43.82142857142857" y="629.9107142857143"/>
      <point x="46.24821428571428" y="617.2482142857143"/>
      <point x="48.05714285714286" y="606.0125" type="curve" smooth="yes"/>
      <point x="54.82142857142857" y="559.1214285714286"/>
      <point x="117.52857142857142" y="134.76964285714286"/>
      <point x="125.96785714285714" y="50.59285714285714" type="curve" smooth="yes"/>
      <point x="129.5857142857143" y="6.324999999999999"/>
      <point x="217.40178571428572" y="-13.0"/>
    </contour>
  </outline>
</glyph>
<glyph name="X" format="2">
  <advance width="593.9553571428571"/>
  <unicode hex="0058"/>
  <anchor x="244.08214285714286" y="0.0" name="bottom"/>
  <anchor x="373.8285714285714" y="645.8089285714286" name="top"/>
  <outline>
    <contour>
      <point x="75.88571428571429" y="-13.0" type="curve" smooth="yes"/>
      <point x="80.69464285714285" y="-13.0"/>
      <point x="85.93035714285715" y="-8.955357142857142"/>
      <point x="100.78392857142858" y="12.325" type="curve" smooth="yes"/>
      <point x="131.85357142857143" y="56.06964285714285"/>
      <point x="215.36964285714285" y="167.52857142857144"/>
      <point x="260.3625" y="220.9607142857143" type="curve"/>
      <point x="307.9357142857143" y="125.31071428571428"/>
      <point x="365.55892857142857" y="18.292857142857144"/>
      <point x="373.1892857142857" y="6.4714285714285715" type="curve" smooth="yes"/>
      <point x="381.1892857142857" y="-7.573214285714286"/>
      <point x="396.94107142857143" y="-13.0"/>
      <point x="416.075" y="-13.0" type="curve" smooth="yes"/>
      <point x="453.1517857142857" y="-13.0"/>
      <point x="503.08214285714286" y="4.898214285714285"/>
      <point x="534.4964285714286" y="22.9875" type="curve" smooth="yes"/>
      <point x="555.675" y="35.07678571428572"/>
      <point x="563.1464285714286" y="42.121428571428574"/>
      <point x="563.1464285714286" y="51.21071428571429" type="curve" smooth="yes"/>
      <point x="563.1464285714286" y="56.25535714285714"/>
      <point x="559.1464285714286" y="62.25535714285714"/>
      <point x="554.5732142857142" y="70.6375" type="curve" smooth="yes"/>
      <point x="520.1464285714286" y="132.43392857142857"/>
      <point x="463.975" y="233.975"/>
      <point x="412.33214285714286" y="332.61785714285713" type="curve"/>
      <point x="488.8928571428571" y="421.13392857142856"/>
      <point x="537.4214285714286" y="471.86607142857144"/>
      <point x="565.4017857142857" y="521.9928571428571" type="curve" smooth="yes"/>
      <point x="571.2107142857143" y="534.0375"/>
      <point x="574.0196428571428" y="545.5089285714286"/>
      <point x="574.0196428571428" y="556.7446428571428" type="curve" smooth="yes"/>
      <point x="574.0196428571428" y="599.35"/>
      <point x="534.325" y="652.0"/>
      <point x="522.9428571428572" y="652.0" type="curve" smooth="yes"/>
      <point x="518.325" y="652.0"/>
      <point x="513.2803571428572" y="647.5732142857142"/>
      <point x="499.76428571428573" y="627.8214285714286" type="curve" smooth="yes"/>
      <point x="476.14642857142854" y="590.3821428571429"/>
      <point x="396.76428571428573" y="477.9428571428571"/>
      <point x="356.3571428571429" y="429.0964285714286" type="curve"/>
      <point x="305.43392857142857" y="527.3892857142857"/>
      <point x="261.8928571428571" y="614.975"/>
      <point x="251.01428571428573" y="632.8660714285714" type="curve" smooth="yes"/>
      <point x="242.96964285714284" y="646.9553571428571"/>
      <point x="226.64464285714286" y="652.0"/>
      <point x="206.31964285714287" y="652.0" type="curve" smooth="yes"/>
      <point x="162.66964285714286" y="652.0"/>
      <point x="61.43928571428572" y="616.5857142857143"/>
      <point x="61.43928571428572" y="588.3625" type="curve" smooth="yes"/>
      <point x="61.43928571428572" y="582.9357142857143"/>
      <point x="64.05714285714285" y="576.8910714285714"/>
      <point x="68.43928571428572" y="568.7" type="curve" smooth="yes"/>
      <point x="100.76428571428572" y="511.0053571428571"/>
      <point x="149.9232142857143" y="416.1517857142857"/>
      <point x="205.00535714285712" y="316.2035714285714" type="curve"/>
      <point x="122.91607142857143" y="221.96785714285716"/>
      <point x="66.33035714285714" y="165.51607142857142"/>
      <point x="33.191071428571426" y="111.05178571428571" type="curve" smooth="yes"/>
      <point x="28.0" y="101.00714285714287"/>
      <point x="25.19107142857143" y="90.72678571428571"/>
      <point x="25.19107142857143" y="80.87321428571428" type="curve" smooth="yes"/>
      <point x="25.19107142857143" y="32.94285714285714"/>
      <point x="68.16607142857143" y="-13.0"/>
    </contour>
  </outline>
</glyph>
<glyph name="Y" format="2">
  <advance width="544.9678571428572"/>
  <unicode hex="0059"/>
  <anchor x="257.96785714285716" y="0.0" name="bottom"/>
  <anchor x="308.14642857142854" y="642.0" name="top"/>
  <anchor x="73.96785714285714" y="652.0" name="topleft"/>
  <outline>
    <contour>
      <point x="315.5607142857143" y="-13.0" type="curve" smooth="yes"/>
      <point x="352.8732142857143" y="-13.0"/>
      <point x="357.1089285714286" y="-5.146428571428571"/>
      <point x="357.1089285714286" y="16.03214285714286" type="curve" smooth="yes"/>
      <point x="357.6821428571429" y="81.76428571428572"/>
      <point x="360.6821428571429" y="153.77678571428572"/>
      <point x="363.6821428571429" y="238.1142857142857" type="curve"/>
      <point x="396.8410714285714" y="293.4321428571428"/>
      <point x="507.2232142857143" y="467.9035714285714"/>
      <point x="529.0892857142857" y="503.44464285714287" type="curve" smooth="yes"/>
      <point x="542.7517857142857" y="524.725"/>
      <point x="548.7964285714286" y="549.3303571428571"/>
      <point x="548.7964285714286" y="569.5089285714286" type="curve" smooth="yes"/>
      <point x="548.7964285714286" y="613.0571428571428"/>
      <point x="510.29285714285714" y="652.0"/>
      <point x="495.4839285714286" y="652.0" type="curve" smooth="yes"/>
      <point x="486.6303571428571" y="652.0"/>
      <point x="482.0125" y="643.5285714285715"/>
      <point x="469.49642857142857" y="620.1142857142858" type="curve" smooth="yes"/>
      <point x="447.5982142857143" y="578.1267857142857"/>
      <point x="374.325" y="441.4589285714286"/>
      <point x="327.69464285714287" y="369.34464285714284" type="curve"/>
      <point x="305.01964285714286" y="433.00714285714287"/>
      <point x="279.23035714285714" y="508.04464285714283"/>
      <point x="253.2375" y="586.3178571428572" type="curve" smooth="yes"/>
      <point x="241.85535714285714" y="636.4392857142857"/>
      <point x="139.90535714285716" y="652.0"/>
      <point x="74.13392857142857" y="652.0" type="curve" smooth="yes"/>
      <point x="33.43928571428572" y="652.0"/>
      <point x="23.96785714285714" y="642.7196428571428"/>
      <point x="23.96785714285714" y="629.2482142857143" type="curve" smooth="yes"/>
      <point x="23.96785714285714" y="625.0571428571428"/>
      <point x="26.305357142857144" y="619.5285714285715"/>
      <point x="28.878571428571426" y="613.9553571428571" type="curve" smooth="yes"/>
      <point x="65.675" y="541.4642857142857"/>
      <point x="133.675" y="367.71785714285716"/>
      <point x="179.44464285714287" y="263.675" type="curve"/>
      <point x="173.25357142857143" y="159.6875"/>
      <point x="167.10714285714286" y="59.783928571428575"/>
      <point x="167.10714285714286" y="50.401785714285715" type="curve" smooth="yes"/>
      <point x="167.10714285714286" y="6.516071428571429"/>
      <point x="259.39464285714286" y="-13.0"/>
    </contour>
  </outline>
</glyph>
<glyph name="Z" format="2">
  <advance width="571.3571428571429"/>
  <unicode hex="005A"/>
  <anchor x="287.38214285714287" y="0.0" name="bottom"/>
  <anchor x="250.1142857142857" y="326.0" name="center"/>
  <anchor x="303.29285714285714" y="652.0" name="top"/>
  <outline>
    <contour>
      <point x="408.03035714285716" y="516.9053571428572" type="curve" smooth="yes"/>
      <point x="170.1357142857143" y="516.9053571428572" type="line" smooth="yes"/>
      <point x="159.95714285714286" y="516.9053571428572"/>
      <point x="145.88035714285712" y="507.54821428571427"/>
      <point x="145.88035714285712" y="462.02500000000003" type="curve" smooth="yes"/>
      <point x="145.88035714285712" y="434.0053571428571"/>
      <point x="147.11607142857144" y="420.9732142857143"/>
      <point x="151.8232142857143" y="420.9732142857143" type="curve" smooth="yes"/>
      <point x="156.95714285714286" y="420.9732142857143"/>
      <point x="223.98392857142858" y="428.6232142857143"/>
      <point x="220.56071428571428" y="428.6232142857143" type="curve" smooth="yes"/>
      <point x="268.9321428571428" y="428.6232142857143" type="line"/>
      <point x="248.76607142857142" y="399.61607142857144"/>
      <point x="144.0017857142857" y="250.8875"/>
      <point x="131.64464285714286" y="230.16071428571428" type="curve" smooth="yes"/>
      <point x="127.5107142857143" y="222.3642857142857"/>
      <point x="127.70178571428573" y="217.80357142857144"/>
      <point x="127.70178571428573" y="209.43392857142857" type="curve" smooth="yes"/>
      <point x="127.70178571428573" y="195.12142857142857"/>
      <point x="152.6767857142857" y="122.09464285714284"/>
      <point x="176.0339285714286" y="122.09464285714284" type="curve" smooth="yes"/>
      <point x="434.9982142857143" y="122.09464285714284" type="line" smooth="yes"/>
      <point x="444.60357142857146" y="122.09464285714284"/>
      <point x="459.0625" y="133.87857142857143"/>
      <point x="459.0625" y="172.54821428571427" type="curve" smooth="yes"/>
      <point x="459.0625" y="204.6125"/>
      <point x="457.6357142857143" y="218.02678571428572"/>
      <point x="452.92857142857144" y="218.02678571428572" type="curve" smooth="yes"/>
      <point x="448.94107142857143" y="218.02678571428572"/>
      <point x="379.2392857142857" y="210.56785714285712"/>
      <point x="375.2107142857143" y="210.56785714285712" type="curve" smooth="yes"/>
      <point x="312.8964285714286" y="210.56785714285712" type="line"/>
      <point x="307.3303571428571" y="205.3464285714286"/>
      <point x="453.62857142857143" y="406.30892857142857"/>
      <point x="451.61071428571427" y="408.2660714285714" type="curve" smooth="yes"/>
      <point x="456.55357142857144" y="416.0625"/>
      <point x="456.55357142857144" y="421.76964285714286"/>
      <point x="456.55357142857144" y="430.33035714285717" type="curve" smooth="yes"/>
      <point x="456.55357142857144" y="444.64285714285717"/>
      <point x="431.3875" y="516.9053571428572"/>
    </contour>
  </outline>
</glyph>
<glyph name="bracketleft" format="2">
  <advance width="382.9946428571429"/>
  <unicode hex="005B"/>
  <outline>
    <contour>
      <point x="64.58571428571429" y="-244.0" type="curve"/>
      <point x="309.5357142857143" y="-244.0" type="line" smooth="yes"/>
      <point x="328.7714285714286" y="-244.0"/>
      <point x="333.1535714285714" y="-203.73214285714286"/>
      <point x="333.1535714285714" y="-188.82142857142856" type="curve" smooth="yes"/>
      <point x="333.1535714285714" y="-173.1142857142857"/>
      <point x="332.9625" y="-168.49642857142857"/>
      <point x="327.9625" y="-168.49642857142857" type="curve" smooth="yes"/>
      <point x="322.34464285714284" y="-168.49642857142857"/>
      <point x="291.01964285714286" y="-175.73214285714286"/>
      <point x="236.2625" y="-176.30535714285713" type="curve"/>
      <point x="237.07142857142856" y="347.3482142857143"/>
      <point x="278.8803571428572" y="650.0892857142857"/>
      <point x="281.64464285714286" y="691.9678571428572" type="curve"/>
      <point x="326.91785714285714" y="691.7767857142857"/>
      <point x="358.91785714285714" y="688.5857142857143"/>
      <point x="365.34464285714284" y="688.5857142857143" type="curve" smooth="yes"/>
      <point x="371.9625" y="688.5857142857143"/>
      <point x="376.34464285714284" y="715.675"/>
      <point x="376.34464285714284" y="734.7196428571428" type="curve" smooth="yes"/>
      <point x="376.34464285714284" y="750.7642857142857"/>
      <point x="373.5357142857143" y="756.0"/>
      <point x="363.3" y="756.0" type="curve" smooth="yes"/>
      <point x="114.58571428571429" y="756.0" type="line"/>
      <point x="107.58571428571429" y="550.0"/>
      <point x="64.58571428571429" y="-189.0"/>
    </contour>
  </outline>
</glyph>
<glyph name="backslash" format="2">
  <advance width="478.4642857142857"/>
  <unicode hex="005C"/>
  <outline>
    <contour>
      <point x="309.8392857142857" y="-34.808928571428574" type="curve" smooth="yes"/>
      <point x="340.82678571428573" y="-34.808928571428574"/>
      <point x="430.5857142857143" y="-7.821428571428569"/>
      <point x="430.5857142857143" y="20.783928571428575" type="curve" smooth="yes"/>
      <point x="430.5857142857143" y="29.44642857142857"/>
      <point x="421.30535714285713" y="56.2875"/>
      <point x="416.06964285714287" y="71.80357142857143" type="curve" smooth="yes"/>
      <point x="388.6821428571429" y="138.725"/>
      <point x="274.54821428571427" y="533.2625"/>
      <point x="240.30714285714288" y="631.7321428571429" type="curve" smooth="yes"/>
      <point x="229.2625" y="672.6178571428571"/>
      <point x="210.5107142857143" y="675.0"/>
      <point x="187.37678571428572" y="675.0" type="curve" smooth="yes"/>
      <point x="138.44642857142856" y="675.0"/>
      <point x="66.63035714285715" y="645.5857142857143"/>
      <point x="66.63035714285715" y="618.5982142857143" type="curve" smooth="yes"/>
      <point x="66.63035714285715" y="610.7446428571428"/>
      <point x="75.91071428571428" y="583.9035714285715"/>
      <point x="81.14642857142857" y="568.3875" type="curve" smooth="yes"/>
      <point x="97.06964285714285" y="526.8785714285714"/>
      <point x="240.20892857142857" y="54.0625"/>
      <point x="256.90892857142853" y="8.458928571428572" type="curve" smooth="yes"/>
      <point x="269.3803571428572" y="-31.617857142857144"/>
      <point x="286.7053571428571" y="-34.808928571428574"/>
    </contour>
  </outline>
</glyph>
<glyph name="bracketright" format="2">
  <advance width="402.9946428571429"/>
  <unicode hex="005D"/>
  <outline>
    <contour>
      <point x="35.87321428571428" y="-244.0" type="curve" smooth="yes"/>
      <point x="284.7785714285714" y="-244.0" type="line"/>
      <point x="291.3964285714286" y="-40.86607142857143"/>
      <point x="334.7785714285714" y="709.7892857142857"/>
      <point x="334.7785714285714" y="756.0" type="curve"/>
      <point x="90.01964285714286" y="756.0" type="line" smooth="yes"/>
      <point x="70.59285714285714" y="756.0"/>
      <point x="66.21071428571429" y="715.7321428571429"/>
      <point x="66.21071428571429" y="700.8214285714286" type="curve" smooth="yes"/>
      <point x="66.21071428571429" y="685.1142857142858"/>
      <point x="66.40178571428572" y="680.4964285714286"/>
      <point x="71.40178571428572" y="680.4964285714286" type="curve" smooth="yes"/>
      <point x="77.01964285714286" y="680.4964285714286"/>
      <point x="108.34464285714286" y="687.7321428571429"/>
      <point x="163.29285714285714" y="688.1142857142858" type="curve"/>
      <point x="161.91071428571428" y="161.78571428571428"/>
      <point x="119.91071428571428" y="-140.95535714285714"/>
      <point x="117.52857142857142" y="-180.15892857142856" type="curve"/>
      <point x="72.25535714285715" y="-179.77678571428572"/>
      <point x="40.44642857142857" y="-176.5857142857143"/>
      <point x="34.019642857142856" y="-176.5857142857143" type="curve" smooth="yes"/>
      <point x="27.401785714285715" y="-176.5857142857143"/>
      <point x="23.019642857142856" y="-203.675"/>
      <point x="23.019642857142856" y="-222.71964285714284" type="curve" smooth="yes"/>
      <point x="23.019642857142856" y="-238.7642857142857"/>
      <point x="25.82857142857143" y="-244.0"/>
    </contour>
  </outline>
</glyph>
<glyph name="asciicircum" format="2">
  <advance width="531.9107142857143"/>
  <unicode hex="005E"/>
  <outline>
    <contour>
      <point x="125.69464285714285" y="372.71964285714284" type="curve"/>
      <point x="147.5482142857143" y="395.1017857142857"/>
      <point x="241.08928571428572" y="468.2285714285714"/>
      <point x="296.1017857142857" y="505.3875" type="curve"/>
      <point x="336.86607142857144" y="467.56607142857143"/>
      <point x="410.1589285714286" y="391.675"/>
      <point x="425.2035714285714" y="372.71964285714284" type="curve"/>
      <point x="456.5160714285714" y="400.60535714285714"/>
      <point x="468.19107142857143" y="427.12142857142857"/>
      <point x="468.19107142857143" y="444.1660714285714" type="curve" smooth="yes"/>
      <point x="468.19107142857143" y="455.7839285714286"/>
      <point x="466.23571428571427" y="467.12142857142857"/>
      <point x="461.23571428571427" y="478.3571428571429" type="curve" smooth="yes"/>
      <point x="449.4142857142857" y="503.9428571428571"/>
      <point x="387.3125" y="589.7196428571428"/>
      <point x="340.7964285714286" y="634.4839285714286" type="curve" smooth="yes"/>
      <point x="326.0892857142857" y="648.5732142857142"/>
      <point x="319.28035714285716" y="652.0"/>
      <point x="306.38214285714287" y="652.0" type="curve" smooth="yes"/>
      <point x="291.86607142857144" y="652.0"/>
      <point x="284.4392857142857" y="647.7642857142857"/>
      <point x="267.1142857142857" y="634.4839285714286" type="curve" smooth="yes"/>
      <point x="216.8017857142857" y="597.6875"/>
      <point x="121.22321428571428" y="504.8732142857143"/>
      <point x="103.79642857142858" y="479.8732142857143" type="curve" smooth="yes"/>
      <point x="92.51607142857142" y="463.975"/>
      <point x="91.325" y="453.7392857142857"/>
      <point x="91.325" y="438.8410714285714" type="curve" smooth="yes"/>
      <point x="91.325" y="423.26785714285717"/>
      <point x="99.85357142857143" y="400.9875"/>
    </contour>
  </outline>
</glyph>
<glyph name="underscore" format="2">
  <advance width="500.0"/>
  <unicode hex="005F"/>
  <outline>
    <contour>
      <point x="-7.057142857142857" y="-140.0" type="curve" smooth="yes"/>
      <point x="506.9428571428571" y="-140.0" type="line" smooth="yes"/>
      <point x="523.9428571428572" y="-140.0"/>
      <point x="529.9428571428572" y="-119.0"/>
      <point x="529.9428571428572" y="-101.0" type="curve" smooth="yes"/>
      <point x="529.9428571428572" y="-95.0"/>
      <point x="526.9428571428572" y="-93.0"/>
      <point x="521.9428571428572" y="-93.0" type="curve" smooth="yes"/>
      <point x="7.942857142857143" y="-93.0" type="line" smooth="yes"/>
      <point x="-9.057142857142857" y="-93.0"/>
      <point x="-15.057142857142857" y="-115.0"/>
      <point x="-15.057142857142857" y="-133.0" type="curve" smooth="yes"/>
      <point x="-15.057142857142857" y="-139.0"/>
      <point x="-12.057142857142857" y="-140.0"/>
    </contour>
  </outline>
</glyph>
<glyph name="a" format="2">
  <advance width="678.1660714285714"/>
  <unicode hex="0061"/>
  <anchor x="303.0" y="0.0" name="bottom"/>
  <anchor x="545.9875" y="10.0" name="ogonek"/>
  <anchor x="364.07678571428573" y="524.0" name="top"/>
  <outline>
    <contour>
      <point x="168.69464285714287" y="-13.0" type="curve" smooth="yes"/>
      <point x="223.60535714285714" y="-13.0"/>
      <point x="371.71964285714284" y="169.55357142857144"/>
      <point x="398.41964285714283" y="249.03035714285716" type="curve"/>
      <point x="395.65535714285716" y="211.84642857142856"/>
      <point x="391.8910714285714" y="139.60535714285714"/>
      <point x="391.8910714285714" y="102.6375" type="curve" smooth="yes"/>
      <point x="391.8910714285714" y="86.10892857142858"/>
      <point x="392.7" y="72.91785714285714"/>
      <point x="394.8910714285714" y="59.6375" type="curve" smooth="yes"/>
      <point x="401.50892857142856" y="16.28035714285714"/>
      <point x="491.325" y="-13.0"/>
      <point x="507.9875" y="-13.0" type="curve" smooth="yes"/>
      <point x="551.6053571428572" y="-13.0"/>
      <point x="646.3125" y="100.94285714285715"/>
      <point x="670.4142857142857" y="135.85357142857143" type="curve" smooth="yes"/>
      <point x="676.4589285714286" y="144.325"/>
      <point x="679.8857142857142" y="153.17857142857144"/>
      <point x="679.8857142857142" y="162.03214285714284" type="curve" smooth="yes"/>
      <point x="679.8857142857142" y="180.69464285714287"/>
      <point x="664.2232142857143" y="203.16607142857143"/>
      <point x="654.5607142857143" y="203.16607142857143" type="curve" smooth="yes"/>
      <point x="650.7517857142857" y="203.16607142857143"/>
      <point x="648.9428571428572" y="200.975"/>
      <point x="643.5160714285714" y="193.93035714285713" type="curve"/>
      <point x="633.8410714285715" y="181.3"/>
      <point x="602.8035714285714" y="143.73392857142858"/>
      <point x="592.7017857142857" y="143.73392857142858" type="curve" smooth="yes"/>
      <point x="583.9375" y="143.73392857142858"/>
      <point x="580.7464285714286" y="149.11607142857144"/>
      <point x="580.7464285714286" y="199.8232142857143" type="curve" smooth="yes"/>
      <point x="580.7464285714286" y="258.03214285714284"/>
      <point x="591.8928571428571" y="429.1589285714286"/>
      <point x="591.8928571428571" y="438.1589285714286" type="curve"/>
      <point x="597.7017857142857" y="438.1589285714286"/>
      <point x="607.9375" y="458.2482142857143"/>
      <point x="607.9375" y="483.5285714285714" type="curve" smooth="yes"/>
      <point x="607.9375" y="494.19107142857143"/>
      <point x="604.9375" y="495.19107142857143"/>
      <point x="600.7017857142857" y="496.0" type="curve" smooth="yes"/>
      <point x="461.4142857142857" y="517.8535714285714"/>
      <point x="376.01964285714286" y="524.0"/>
      <point x="305.4392857142857" y="524.0" type="curve" smooth="yes"/>
      <point x="210.93571428571428" y="524.0"/>
      <point x="154.59821428571428" y="482.38214285714287"/>
      <point x="106.40714285714286" y="417.0" type="curve" smooth="yes"/>
      <point x="55.40714285714286" y="348.0"/>
      <point x="52.40714285714286" y="141.80892857142857"/>
      <point x="52.40714285714286" y="102.6375" type="curve" smooth="yes"/>
      <point x="52.40714285714286" y="86.10892857142858"/>
      <point x="53.40714285714286" y="72.91785714285714"/>
      <point x="55.598214285714285" y="59.6375" type="curve" smooth="yes"/>
      <point x="62.216071428571425" y="16.28035714285714"/>
      <point x="152.03214285714284" y="-13.0"/>
    </contour>
    <contour>
      <point x="253.21785714285716" y="142.925" type="curve" smooth="yes"/>
      <point x="244.45357142857142" y="142.925"/>
      <point x="241.2625" y="148.30714285714288"/>
      <point x="241.2625" y="198.20535714285714" type="curve" smooth="yes"/>
      <point x="241.2625" y="362.4589285714286"/>
      <point x="269.3767857142857" y="459.1589285714286"/>
      <point x="329.7267857142857" y="459.1589285714286" type="curve" smooth="yes"/>
      <point x="350.7392857142857" y="459.1589285714286"/>
      <point x="377.80892857142857" y="456.5857142857143"/>
      <point x="407.41964285714283" y="448.675" type="curve"/>
      <point x="399.39464285714286" y="301.2035714285714"/>
      <point x="273.275" y="142.925"/>
    </contour>
  </outline>
</glyph>
<glyph name="b" format="2">
  <advance width="640.2428571428571"/>
  <unicode hex="0062"/>
  <anchor x="315.5607142857143" y="0.0" name="bottom"/>
  <anchor x="212.04464285714286" y="639.0" name="cross"/>
  <anchor x="460.2553571428571" y="524.0" name="top"/>
  <outline>
    <contour>
      <point x="354.7267857142857" y="-13.0" type="curve" smooth="yes"/>
      <point x="447.6125" y="-13.0"/>
      <point x="501.95" y="18.292857142857144"/>
      <point x="558.4660714285715" y="94.0" type="curve" smooth="yes"/>
      <point x="606.4535714285714" y="158.4142857142857"/>
      <point x="603.9375" y="347.21785714285716"/>
      <point x="603.9375" y="385.58035714285717" type="curve" smooth="yes"/>
      <point x="603.9375" y="418.5857142857143"/>
      <point x="602.5553571428571" y="437.3178571428571"/>
      <point x="599.7910714285714" y="451.3625" type="curve" smooth="yes"/>
      <point x="592.7910714285714" y="494.9107142857143"/>
      <point x="503.1660714285714" y="524.0"/>
      <point x="486.3125" y="524.0" type="curve" smooth="yes"/>
      <point x="431.4017857142857" y="524.0"/>
      <point x="276.0642857142857" y="334.4589285714286"/>
      <point x="257.9821428571429" y="254.17321428571427" type="curve"/>
      <point x="259.70178571428573" y="305.4589285714286"/>
      <point x="290.31964285714287" y="658.8785714285714"/>
      <point x="290.5107142857143" y="677.2285714285714" type="curve" smooth="yes"/>
      <point x="290.5107142857143" y="730.0125"/>
      <point x="201.84107142857144" y="756.0"/>
      <point x="132.30535714285713" y="756.0" type="curve" smooth="yes"/>
      <point x="109.74464285714285" y="756.0"/>
      <point x="103.89107142857142" y="748.9553571428571"/>
      <point x="103.89107142857142" y="732.6303571428572" type="curve" smooth="yes"/>
      <point x="103.12678571428572" y="694.1160714285714"/>
      <point x="68.22857142857143" y="169.40714285714284"/>
      <point x="66.31785714285715" y="73.03214285714286" type="curve"/>
      <point x="61.31785714285714" y="73.03214285714286"/>
      <point x="51.082142857142856" y="52.75178571428572"/>
      <point x="51.082142857142856" y="27.47142857142857" type="curve" smooth="yes"/>
      <point x="51.082142857142856" y="16.80892857142857"/>
      <point x="54.082142857142856" y="15.808928571428572"/>
      <point x="58.31785714285714" y="15.0" type="curve" smooth="yes"/>
      <point x="197.4142857142857" y="-6.6625"/>
      <point x="282.4267857142857" y="-13.0"/>
    </contour>
    <contour>
      <point x="330.0571428571429" y="50.223214285714285" type="curve" smooth="yes"/>
      <point x="309.04464285714283" y="50.223214285714285"/>
      <point x="281.975" y="52.79642857142857"/>
      <point x="252.17321428571427" y="60.89821428571429" type="curve"/>
      <point x="258.86071428571427" y="208.36964285714285"/>
      <point x="382.30535714285713" y="366.45714285714286"/>
      <point x="402.3625" y="366.45714285714286" type="curve" smooth="yes"/>
      <point x="412.65535714285716" y="366.45714285714286"/>
      <point x="415.2732142857143" y="356.29821428571427"/>
      <point x="415.2732142857143" y="295.7" type="curve" smooth="yes"/>
      <point x="415.2732142857143" y="141.19107142857143"/>
      <point x="388.6875" y="50.223214285714285"/>
    </contour>
  </outline>
</glyph>
<glyph name="c" format="2">
  <advance width="436.675"/>
  <unicode hex="0063"/>
  <anchor x="235.6625" y="0.0" name="bottom"/>
  <anchor x="288.23571428571427" y="524.0" name="top"/>
  <outline>
    <contour>
      <point x="261.26785714285717" y="-13.0" type="curve" smooth="yes"/>
      <point x="310.19107142857143" y="-13.0"/>
      <point x="366.38214285714287" y="7.910714285714285"/>
      <point x="405.3375" y="45.0125" type="curve" smooth="yes"/>
      <point x="413.76428571428573" y="52.63035714285714"/>
      <point x="416.38214285714287" y="58.05714285714286"/>
      <point x="416.38214285714287" y="68.91071428571428" type="curve" smooth="yes"/>
      <point x="416.38214285714287" y="85.76428571428572"/>
      <point x="412.0" y="104.61785714285715"/>
      <point x="403.5732142857143" y="104.61785714285715" type="curve" smooth="yes"/>
      <point x="399.5732142857143" y="104.61785714285715"/>
      <point x="395.95535714285717" y="102.42678571428571"/>
      <point x="384.5732142857143" y="96.89821428571429" type="curve" smooth="yes"/>
      <point x="370.04464285714283" y="89.22321428571428"/>
      <point x="332.7517857142857" y="76.10892857142858"/>
      <point x="304.91785714285714" y="76.10892857142858" type="curve" smooth="yes"/>
      <point x="244.0392857142857" y="76.10892857142858"/>
      <point x="215.6" y="109.57321428571429"/>
      <point x="215.6" y="211.63035714285715" type="curve" smooth="yes"/>
      <point x="215.6" y="370.0125"/>
      <point x="253.5232142857143" y="441.2732142857143"/>
      <point x="292.7839285714286" y="441.2732142857143" type="curve" smooth="yes"/>
      <point x="326.8857142857143" y="441.2732142857143"/>
      <point x="354.4589285714286" y="422.18392857142857"/>
      <point x="379.3696428571429" y="406.025" type="curve" smooth="yes"/>
      <point x="386.7517857142857" y="401.6875"/>
      <point x="393.17857142857144" y="399.30535714285713"/>
      <point x="400.3696428571429" y="399.30535714285713" type="curve" smooth="yes"/>
      <point x="417.4589285714286" y="399.30535714285713"/>
      <point x="423.8410714285714" y="445.5732142857143"/>
      <point x="423.8410714285714" y="464.0" type="curve" smooth="yes"/>
      <point x="423.8410714285714" y="478.4714285714286"/>
      <point x="419.8410714285714" y="490.5160714285714"/>
      <point x="404.17857142857144" y="497.8982142857143" type="curve" smooth="yes"/>
      <point x="374.5607142857143" y="512.3821428571429"/>
      <point x="333.4267857142857" y="524.0"/>
      <point x="274.85357142857146" y="524.0" type="curve" smooth="yes"/>
      <point x="140.17142857142858" y="524.0"/>
      <point x="40.35" y="442.71964285714284"/>
      <point x="40.35" y="219.57321428571427" type="curve" smooth="yes"/>
      <point x="40.35" y="16.598214285714285"/>
      <point x="145.47142857142856" y="-13.0"/>
    </contour>
  </outline>
</glyph>
<glyph name="d" format="2">
  <advance width="682.2107142857143"/>
  <unicode hex="0064"/>
  <anchor x="303.0" y="0.0" name="bottom"/>
  <anchor x="323.0" y="262.0" name="center"/>
  <anchor x="492.9428571428571" y="639.0" name="cross"/>
  <anchor x="197.18392857142857" y="550.6946428571429" name="top"/>
  <anchor x="648.5160714285714" y="598.4517857142857" name="topright"/>
  <outline>
    <contour>
      <point x="168.69464285714287" y="-13.0" type="curve" smooth="yes"/>
      <point x="223.60535714285714" y="-13.0"/>
      <point x="371.71964285714284" y="169.55357142857144"/>
      <point x="398.41964285714283" y="249.03035714285716" type="curve"/>
      <point x="395.65535714285716" y="211.84642857142856"/>
      <point x="391.8910714285714" y="139.60535714285714"/>
      <point x="391.8910714285714" y="102.6375" type="curve" smooth="yes"/>
      <point x="391.8910714285714" y="86.10892857142858"/>
      <point x="392.7" y="72.91785714285714"/>
      <point x="394.8910714285714" y="59.6375" type="curve" smooth="yes"/>
      <point x="401.50892857142856" y="16.28035714285714"/>
      <point x="491.325" y="-13.0"/>
      <point x="507.9875" y="-13.0" type="curve" smooth="yes"/>
      <point x="551.6053571428572" y="-13.0"/>
      <point x="646.3125" y="100.94285714285715"/>
      <point x="670.4142857142857" y="135.85357142857143" type="curve" smooth="yes"/>
      <point x="676.4589285714286" y="144.325"/>
      <point x="679.8857142857142" y="152.9875"/>
      <point x="679.8857142857142" y="162.03214285714284" type="curve" smooth="yes"/>
      <point x="679.8857142857142" y="180.69464285714287"/>
      <point x="664.2232142857143" y="203.16607142857143"/>
      <point x="654.7517857142857" y="203.16607142857143" type="curve" smooth="yes"/>
      <point x="650.7517857142857" y="203.16607142857143"/>
      <point x="648.9428571428572" y="200.975"/>
      <point x="643.5160714285714" y="193.93035714285713" type="curve"/>
      <point x="633.8410714285715" y="181.3"/>
      <point x="602.8035714285714" y="143.925"/>
      <point x="592.7017857142857" y="143.925" type="curve" smooth="yes"/>
      <point x="583.9375" y="143.925"/>
      <point x="580.7464285714286" y="149.11607142857144"/>
      <point x="580.7464285714286" y="199.8232142857143" type="curve" smooth="yes"/>
      <point x="580.7464285714286" y="258.03214285714284"/>
      <point x="591.8928571428571" y="429.1589285714286"/>
      <point x="591.8928571428571" y="438.1589285714286" type="curve"/>
      <point x="597.7017857142857" y="438.1589285714286"/>
      <point x="607.9375" y="458.2482142857143"/>
      <point x="607.9375" y="483.5285714285714" type="curve" smooth="yes"/>
      <point x="607.9375" y="494.19107142857143"/>
      <point x="605.1285714285714" y="496.19107142857143"/>
      <point x="600.7017857142857" y="496.19107142857143" type="curve" smooth="yes"/>
      <point x="596.7017857142857" y="496.19107142857143" type="line"/>
      <point x="598.4214285714286" y="528.4571428571428"/>
      <point x="610.0839285714286" y="668.5535714285714"/>
      <point x="610.0839285714286" y="677.2285714285714" type="curve" smooth="yes"/>
      <point x="610.0839285714286" y="730.0125"/>
      <point x="521.6053571428572" y="756.0"/>
      <point x="452.6875" y="756.0" type="curve" smooth="yes"/>
      <point x="429.50892857142856" y="756.0"/>
      <point x="424.2732142857143" y="748.9553571428571"/>
      <point x="424.2732142857143" y="732.6303571428572" type="curve" smooth="yes"/>
      <point x="424.08214285714286" y="710.8160714285714"/>
      <point x="420.4642857142857" y="643.2553571428572"/>
      <point x="411.0375" y="518.5160714285714" type="curve"/>
      <point x="374.35" y="521.2357142857143"/>
      <point x="338.04464285714283" y="524.0"/>
      <point x="305.4392857142857" y="524.0" type="curve" smooth="yes"/>
      <point x="210.93571428571428" y="524.0"/>
      <point x="154.59821428571428" y="482.38214285714287"/>
      <point x="106.40714285714286" y="417.0" type="curve" smooth="yes"/>
      <point x="55.40714285714286" y="348.0"/>
      <point x="52.40714285714286" y="141.80892857142857"/>
      <point x="52.40714285714286" y="102.6375" type="curve" smooth="yes"/>
      <point x="52.40714285714286" y="86.10892857142858"/>
      <point x="53.40714285714286" y="72.91785714285714"/>
      <point x="55.598214285714285" y="59.6375" type="curve" smooth="yes"/>
      <point x="62.216071428571425" y="16.28035714285714"/>
      <point x="152.03214285714284" y="-13.0"/>
    </contour>
    <contour>
      <point x="253.21785714285716" y="143.11607142857144" type="curve" smooth="yes"/>
      <point x="244.45357142857142" y="143.11607142857144"/>
      <point x="241.2625" y="148.30714285714288"/>
      <point x="241.2625" y="198.20535714285714" type="curve" smooth="yes"/>
      <point x="241.2625" y="362.4589285714286"/>
      <point x="269.3767857142857" y="459.1589285714286"/>
      <point x="329.7267857142857" y="459.1589285714286" type="curve" smooth="yes"/>
      <point x="350.7392857142857" y="459.1589285714286"/>
      <point x="377.80892857142857" y="456.5857142857143"/>
      <point x="407.41964285714283" y="448.675" type="curve"/>
      <point x="399.39464285714286" y="301.2035714285714"/>
      <point x="273.275" y="143.11607142857144"/>
    </contour>
  </outline>
</glyph>
<glyph name="e" format="2">
  <advance width="490.07678571428573"/>
  <unicode hex="0065"/>
  <anchor x="231.57321428571427" y="0.0" name="bottom"/>
  <anchor x="368.5732142857143" y="0.0" name="ogonek"/>
  <anchor x="296.5732142857143" y="524.0" name="top"/>
  <outline>
    <contour>
      <point x="261.8410714285714" y="-13.0" type="curve" smooth="yes"/>
      <point x="325.325" y="-13.0"/>
      <point x="393.65" y="16.0"/>
      <point x="437.4589285714286" y="60.38214285714286" type="curve" smooth="yes"/>
      <point x="448.3125" y="71.23571428571428"/>
      <point x="450.93035714285713" y="79.89821428571429"/>
      <point x="450.93035714285713" y="85.89821428571429" type="curve" smooth="yes"/>
      <point x="450.93035714285713" y="106.79642857142858"/>
      <point x="446.54821428571427" y="124.03214285714286"/>
      <point x="438.12142857142857" y="124.03214285714286" type="curve" smooth="yes"/>
      <point x="434.12142857142857" y="124.03214285714286"/>
      <point x="428.07678571428573" y="120.22321428571428"/>
      <point x="417.50357142857143" y="113.07678571428572" type="curve" smooth="yes"/>
      <point x="393.26785714285717" y="97.3125"/>
      <point x="352.59285714285716" y="76.10892857142858"/>
      <point x="318.2875" y="76.10892857142858" type="curve" smooth="yes"/>
      <point x="251.55535714285713" y="76.10892857142858"/>
      <point x="215.79107142857143" y="104.71964285714286"/>
      <point x="215.79107142857143" y="210.82142857142856" type="curve" smooth="yes"/>
      <point x="215.79107142857143" y="222.54107142857143"/>
      <point x="215.79107142857143" y="236.98035714285714"/>
      <point x="216.17321428571427" y="247.2160714285714" type="curve"/>
      <point x="229.23035714285714" y="246.06964285714287"/>
      <point x="244.9625" y="245.1142857142857"/>
      <point x="261.07678571428573" y="245.1142857142857" type="curve" smooth="yes"/>
      <point x="360.0642857142857" y="245.1142857142857"/>
      <point x="477.24285714285713" y="289.96785714285716"/>
      <point x="477.24285714285713" y="396.82142857142856" type="curve" smooth="yes"/>
      <point x="477.24285714285713" y="484.13392857142856"/>
      <point x="417.4017857142857" y="524.0"/>
      <point x="277.3375" y="524.0" type="curve" smooth="yes"/>
      <point x="139.4517857142857" y="524.0"/>
      <point x="40.92321428571428" y="442.71964285714284"/>
      <point x="40.92321428571428" y="219.57321428571427" type="curve" smooth="yes"/>
      <point x="40.92321428571428" y="12.55357142857143"/>
      <point x="150.08928571428572" y="-13.0"/>
    </contour>
    <contour>
      <point x="258.26785714285717" y="294.6303571428571" type="curve" smooth="yes"/>
      <point x="237.34464285714284" y="293.0125"/>
      <point x="222.4660714285714" y="295.87857142857143"/>
      <point x="219.08392857142857" y="297.40714285714284" type="curve"/>
      <point x="226.75892857142856" y="428.0571428571429"/>
      <point x="259.5357142857143" y="461.2607142857143"/>
      <point x="295.07678571428573" y="461.2607142857143" type="curve" smooth="yes"/>
      <point x="321.71964285714284" y="461.2607142857143"/>
      <point x="338.6303571428571" y="438.2035714285714"/>
      <point x="338.6303571428571" y="403.86607142857144" type="curve" smooth="yes"/>
      <point x="338.6303571428571" y="321.30535714285713"/>
      <point x="302.1017857142857" y="298.675"/>
    </contour>
  </outline>
</glyph>
